<svg width="81" height="81" viewBox="0 0 81 81" fill="none" xmlns="http://www.w3.org/2000/svg">
<g clip-path="url(#clip0_114_5892)">
<path d="M59.0409 51.5038C57.7101 51.5103 56.4066 51.8818 55.2723 52.5778L49.4499 46.7365C50.8047 44.8254 51.5324 42.5407 51.5324 40.1981C51.5324 37.8555 50.8047 35.5707 49.4499 33.6596L55.2723 27.8183C56.4066 28.5144 57.7101 28.8859 59.0409 28.8924C60.5316 28.8924 61.9888 28.4503 63.2283 27.6221C64.4678 26.794 65.4338 25.6168 66.0043 24.2396C66.5748 22.8624 66.724 21.3469 66.4332 19.8848C66.1424 18.4228 65.4245 17.0798 64.3704 16.0257C63.3164 14.9716 61.9734 14.2538 60.5113 13.9629C59.0493 13.6721 57.5338 13.8214 56.1566 14.3918C54.7793 14.9623 53.6022 15.9284 52.774 17.1678C51.9458 18.4073 51.5038 19.8645 51.5038 21.3552C51.5103 22.686 51.8818 23.9895 52.5778 25.1238L46.7365 30.9462C44.8254 29.5914 42.5407 28.8637 40.1981 28.8637C37.8555 28.8637 35.5707 29.5914 33.6596 30.9462L27.8183 25.1238C28.5144 23.9895 28.8859 22.686 28.8924 21.3552C28.8924 19.8645 28.4503 18.4073 27.6221 17.1678C26.794 15.9284 25.6168 14.9623 24.2396 14.3918C22.8624 13.8214 21.3469 13.6721 19.8848 13.9629C18.4228 14.2538 17.0798 14.9716 16.0257 16.0257C14.9716 17.0798 14.2538 18.4228 13.9629 19.8848C13.6721 21.3469 13.8214 22.8624 14.3918 24.2396C14.9623 25.6168 15.9284 26.794 17.1678 27.6221C18.4073 28.4503 19.8645 28.8924 21.3552 28.8924C22.686 28.8859 23.9895 28.5144 25.1238 27.8183L30.9462 33.6596C29.5914 35.5707 28.8637 37.8555 28.8637 40.1981C28.8637 42.5407 29.5914 44.8254 30.9462 46.7365L25.1238 52.5778C23.9895 51.8818 22.686 51.5103 21.3552 51.5038C19.8645 51.5038 18.4073 51.9458 17.1678 52.774C15.9284 53.6022 14.9623 54.7793 14.3918 56.1566C13.8214 57.5338 13.6721 59.0493 13.9629 60.5113C14.2538 61.9734 14.9716 63.3164 16.0257 64.3704C17.0798 65.4245 18.4228 66.1424 19.8848 66.4332C21.3469 66.724 22.8624 66.5748 24.2396 66.0043C25.6168 65.4338 26.794 64.4678 27.6221 63.2283C28.4503 61.9888 28.8924 60.5316 28.8924 59.0409C28.8859 57.7101 28.5144 56.4066 27.8183 55.2723L33.6596 49.4499C35.5707 50.8047 37.8555 51.5324 40.1981 51.5324C42.5407 51.5324 44.8254 50.8047 46.7365 49.4499L52.5778 55.2723C51.8818 56.4066 51.5103 57.7101 51.5038 59.0409C51.5038 60.5316 51.9458 61.9888 52.774 63.2283C53.6022 64.4678 54.7793 65.4338 56.1566 66.0043C57.5338 66.5748 59.0493 66.724 60.5113 66.4332C61.9734 66.1424 63.3164 65.4245 64.3704 64.3704C65.4245 63.3164 66.1424 61.9734 66.4332 60.5113C66.724 59.0493 66.5748 57.5338 66.0043 56.1566C65.4338 54.7793 64.4678 53.6022 63.2283 52.774C61.9888 51.9458 60.5316 51.5038 59.0409 51.5038ZM59.0409 17.5867C59.7862 17.5867 60.5149 17.8077 61.1346 18.2218C61.7543 18.6359 62.2374 19.2245 62.5226 19.9131C62.8078 20.6017 62.8825 21.3594 62.737 22.0905C62.5916 22.8215 62.2327 23.493 61.7057 24.02C61.1786 24.5471 60.5071 24.906 59.7761 25.0514C59.0451 25.1968 58.2873 25.1222 57.5987 24.8369C56.9101 24.5517 56.3215 24.0687 55.9074 23.4489C55.4934 22.8292 55.2723 22.1006 55.2723 21.3552C55.2723 20.3558 55.6694 19.3972 56.3761 18.6905C57.0829 17.9837 58.0414 17.5867 59.0409 17.5867ZM17.5867 21.3552C17.5867 20.6099 17.8077 19.8813 18.2218 19.2615C18.6359 18.6418 19.2245 18.1588 19.9131 17.8735C20.6017 17.5883 21.3594 17.5137 22.0905 17.6591C22.8215 17.8045 23.493 18.1634 24.02 18.6905C24.5471 19.2175 24.906 19.889 25.0514 20.62C25.1968 21.3511 25.1222 22.1088 24.8369 22.7974C24.5517 23.486 24.0687 24.0746 23.4489 24.4887C22.8292 24.9028 22.1006 25.1238 21.3552 25.1238C20.3558 25.1238 19.3972 24.7268 18.6905 24.02C17.9837 23.3133 17.5867 22.3547 17.5867 21.3552ZM21.3552 62.8095C20.6099 62.8095 19.8813 62.5884 19.2615 62.1743C18.6418 61.7602 18.1588 61.1717 17.8735 60.4831C17.5883 59.7944 17.5137 59.0367 17.6591 58.3057C17.8045 57.5747 18.1634 56.9032 18.6905 56.3761C19.2175 55.8491 19.889 55.4902 20.62 55.3447C21.3511 55.1993 22.1088 55.274 22.7974 55.5592C23.486 55.8444 24.0746 56.3274 24.4887 56.9472C24.9028 57.5669 25.1238 58.2955 25.1238 59.0409C25.1238 60.0404 24.7268 60.9989 24.02 61.7057C23.3133 62.4124 22.3547 62.8095 21.3552 62.8095ZM40.1981 47.7352C38.7074 47.7352 37.2501 47.2932 36.0107 46.465C34.7712 45.6368 33.8051 44.4596 33.2347 43.0824C32.6642 41.7052 32.5149 40.1897 32.8058 38.7276C33.0966 37.2656 33.8144 35.9226 34.8685 34.8685C35.9226 33.8144 37.2656 33.0966 38.7276 32.8058C40.1897 32.5149 41.7052 32.6642 43.0824 33.2347C44.4596 33.8051 45.6368 34.7712 46.465 36.0107C47.2932 37.2501 47.7352 38.7074 47.7352 40.1981C47.7352 42.197 46.9411 44.1141 45.5276 45.5276C44.1141 46.9411 42.197 47.7352 40.1981 47.7352ZM59.0409 62.8095C58.2955 62.8095 57.5669 62.5884 56.9472 62.1743C56.3274 61.7602 55.8444 61.1717 55.5592 60.4831C55.274 59.7944 55.1993 59.0367 55.3447 58.3057C55.4902 57.5747 55.8491 56.9032 56.3761 56.3761C56.9032 55.8491 57.5747 55.4902 58.3057 55.3447C59.0367 55.1993 59.7944 55.274 60.4831 55.5592C61.1717 55.8444 61.7602 56.3274 62.1743 56.9472C62.5884 57.5669 62.8095 58.2955 62.8095 59.0409C62.8095 60.0404 62.4124 60.9989 61.7057 61.7057C60.9989 62.4124 60.0404 62.8095 59.0409 62.8095Z" fill="black"/>
</g>
<defs>
<clipPath id="clip0_114_5892">
<rect width="80.396" height="80.396" rx="16.0792" fill="white"/>
</clipPath>
</defs>
</svg>
