<svg width="1200" height="394" viewBox="0 0 1200 394" fill="none" xmlns="http://www.w3.org/2000/svg">
<mask id="mask0_279_4150" style="mask-type:alpha" maskUnits="userSpaceOnUse" x="0" y="0" width="1200" height="394">
<rect width="1200" height="394" fill="#0165FF"/>
</mask>
<g mask="url(#mask0_279_4150)">
<path d="M284.956 345.825L235.271 416.824H309.67L213.38 448.123L93 487.237L142.281 416.824H142.318L191.966 345.825H98.9768L129.081 302.822L178.766 231.859H104.367L200.656 200.524L321 161.41L271.719 231.859L222.07 302.822H315.023L284.956 345.825Z" fill="#1270FF"/>
<path d="M1084.96 56.0894L1035.27 127.089H1109.67L1013.38 158.387L893 197.501L942.281 127.089H942.318L991.966 56.0894H898.977L929.081 13.0862L978.766 -57.8766L904.367 -57.8766L1000.66 -89.2118L1121 -128.326L1071.72 -57.8766L1022.07 13.0862H1115.02L1084.96 56.0894Z" fill="#1270FF"/>
</g>
</svg>
