<svg width="720" height="400" viewBox="0 0 720 400" fill="none" xmlns="http://www.w3.org/2000/svg">
<rect x="57.5" y="76.5" width="115" height="29" rx="14.5" fill="#6F99FF" stroke="black"/>
<path d="M87.756 95.014V86.278H89.786C90.29 86.278 90.7147 86.3247 91.06 86.418C91.4053 86.5113 91.6993 86.6467 91.942 86.824C92.1847 86.992 92.3993 87.2067 92.586 87.468C92.782 87.7293 92.9407 88.0233 93.062 88.35C93.1927 88.6767 93.286 89.036 93.342 89.428C93.4073 89.8107 93.44 90.2307 93.44 90.688C93.412 91.36 93.3233 91.962 93.174 92.494C93.0247 93.026 92.8007 93.4787 92.502 93.852C92.2033 94.2253 91.816 94.5147 91.34 94.72C90.8733 94.916 90.2993 95.014 89.618 95.014H87.756ZM88.68 94.244H89.576C90.248 94.244 90.794 94.1087 91.214 93.838C91.6433 93.5673 91.9607 93.1707 92.166 92.648C92.3713 92.1253 92.4693 91.4907 92.46 90.744C92.46 89.9787 92.3667 89.3253 92.18 88.784C91.9933 88.2427 91.6993 87.8273 91.298 87.538C90.906 87.2487 90.3833 87.104 89.73 87.104H88.68V94.244ZM96.954 95.154C96.226 95.154 95.666 94.9907 95.274 94.664C94.882 94.328 94.686 93.9033 94.686 93.39C94.686 93.0447 94.77 92.7367 94.938 92.466C95.106 92.186 95.3347 91.9527 95.624 91.766C95.9227 91.57 96.268 91.4207 96.66 91.318C97.052 91.2153 97.4673 91.164 97.906 91.164C98.0647 91.164 98.2233 91.1687 98.382 91.178C98.55 91.178 98.7227 91.1873 98.9 91.206C99.0867 91.2153 99.278 91.234 99.474 91.262L99.502 92.032C99.334 92.004 99.1613 91.9853 98.984 91.976C98.816 91.9573 98.648 91.9433 98.48 91.934C98.312 91.9247 98.1487 91.92 97.99 91.92C97.654 91.92 97.346 91.948 97.066 92.004C96.786 92.06 96.5433 92.144 96.338 92.256C96.1327 92.368 95.974 92.5127 95.862 92.69C95.75 92.8673 95.694 93.082 95.694 93.334C95.694 93.53 95.7267 93.698 95.792 93.838C95.8667 93.9687 95.9647 94.076 96.086 94.16C96.2073 94.2347 96.3473 94.2907 96.506 94.328C96.674 94.3653 96.856 94.384 97.052 94.384C97.416 94.384 97.738 94.328 98.018 94.216C98.3073 94.0947 98.55 93.922 98.746 93.698C98.9513 93.474 99.1053 93.1987 99.208 92.872C99.3107 92.5453 99.362 92.172 99.362 91.752C99.362 91.1173 99.2873 90.6227 99.138 90.268C98.9887 89.9133 98.7647 89.6613 98.466 89.512C98.1767 89.3627 97.8033 89.288 97.346 89.288C97.038 89.288 96.7347 89.3487 96.436 89.47C96.1373 89.582 95.8667 89.7593 95.624 90.002L95.134 89.358C95.4327 89.0593 95.778 88.8353 96.17 88.686C96.562 88.5367 96.9773 88.462 97.416 88.462C97.836 88.462 98.2187 88.5133 98.564 88.616C98.9093 88.7187 99.2033 88.8913 99.446 89.134C99.698 89.3673 99.8893 89.6847 100.02 90.086C100.16 90.4873 100.23 90.9913 100.23 91.598V95H99.138V94.02C99.0167 94.2533 98.8673 94.4447 98.69 94.594C98.522 94.7433 98.34 94.86 98.144 94.944C97.948 95.0187 97.7473 95.07 97.542 95.098C97.3367 95.1353 97.1407 95.154 96.954 95.154ZM105.186 95.098C104.775 95.098 104.439 95.028 104.178 94.888C103.917 94.748 103.716 94.5333 103.576 94.244C103.436 93.9453 103.343 93.572 103.296 93.124C103.259 92.676 103.249 92.144 103.268 91.528L103.436 86.964L104.486 86.838L104.626 86.824L104.64 86.922C104.593 86.9873 104.551 87.0527 104.514 87.118C104.486 87.1833 104.463 87.2953 104.444 87.454L104.318 89.036L104.36 89.288L104.262 91.598C104.234 92.3073 104.253 92.858 104.318 93.25C104.383 93.6327 104.5 93.8987 104.668 94.048C104.836 94.188 105.06 94.258 105.34 94.258C105.648 94.258 105.919 94.1973 106.152 94.076C106.395 93.9547 106.647 93.8007 106.908 93.614L107.216 94.412C106.899 94.6453 106.572 94.818 106.236 94.93C105.9 95.042 105.55 95.098 105.186 95.098ZM101.98 88.602H106.586V89.428H101.98V88.602ZM110.954 95.154C110.226 95.154 109.666 94.9907 109.274 94.664C108.882 94.328 108.686 93.9033 108.686 93.39C108.686 93.0447 108.77 92.7367 108.938 92.466C109.106 92.186 109.335 91.9527 109.624 91.766C109.923 91.57 110.268 91.4207 110.66 91.318C111.052 91.2153 111.467 91.164 111.906 91.164C112.065 91.164 112.223 91.1687 112.382 91.178C112.55 91.178 112.723 91.1873 112.9 91.206C113.087 91.2153 113.278 91.234 113.474 91.262L113.502 92.032C113.334 92.004 113.161 91.9853 112.984 91.976C112.816 91.9573 112.648 91.9433 112.48 91.934C112.312 91.9247 112.149 91.92 111.99 91.92C111.654 91.92 111.346 91.948 111.066 92.004C110.786 92.06 110.543 92.144 110.338 92.256C110.133 92.368 109.974 92.5127 109.862 92.69C109.75 92.8673 109.694 93.082 109.694 93.334C109.694 93.53 109.727 93.698 109.792 93.838C109.867 93.9687 109.965 94.076 110.086 94.16C110.207 94.2347 110.347 94.2907 110.506 94.328C110.674 94.3653 110.856 94.384 111.052 94.384C111.416 94.384 111.738 94.328 112.018 94.216C112.307 94.0947 112.55 93.922 112.746 93.698C112.951 93.474 113.105 93.1987 113.208 92.872C113.311 92.5453 113.362 92.172 113.362 91.752C113.362 91.1173 113.287 90.6227 113.138 90.268C112.989 89.9133 112.765 89.6613 112.466 89.512C112.177 89.3627 111.803 89.288 111.346 89.288C111.038 89.288 110.735 89.3487 110.436 89.47C110.137 89.582 109.867 89.7593 109.624 90.002L109.134 89.358C109.433 89.0593 109.778 88.8353 110.17 88.686C110.562 88.5367 110.977 88.462 111.416 88.462C111.836 88.462 112.219 88.5133 112.564 88.616C112.909 88.7187 113.203 88.8913 113.446 89.134C113.698 89.3673 113.889 89.6847 114.02 90.086C114.16 90.4873 114.23 90.9913 114.23 91.598V95H113.138V94.02C113.017 94.2533 112.867 94.4447 112.69 94.594C112.522 94.7433 112.34 94.86 112.144 94.944C111.948 95.0187 111.747 95.07 111.542 95.098C111.337 95.1353 111.141 95.154 110.954 95.154ZM118.724 95.154C118.463 95.154 118.215 95.112 117.982 95.028C117.749 94.9533 117.534 94.8413 117.338 94.692C117.151 94.5427 116.983 94.3653 116.834 94.16L116.484 95H115.84V85.69H116.848H116.988V85.788C116.932 85.844 116.895 85.9047 116.876 85.97C116.867 86.0353 116.862 86.1473 116.862 86.306V89.582C116.965 89.414 117.086 89.26 117.226 89.12C117.366 88.98 117.52 88.8587 117.688 88.756C117.856 88.6533 118.033 88.5787 118.22 88.532C118.407 88.476 118.589 88.448 118.766 88.448C119.158 88.448 119.513 88.518 119.83 88.658C120.157 88.7887 120.437 88.994 120.67 89.274C120.903 89.5447 121.081 89.8853 121.202 90.296C121.333 90.7067 121.398 91.1873 121.398 91.738C121.398 92.3073 121.323 92.8067 121.174 93.236C121.025 93.6653 120.819 94.0247 120.558 94.314C120.306 94.594 120.021 94.804 119.704 94.944C119.387 95.084 119.06 95.154 118.724 95.154ZM118.598 94.258C118.822 94.258 119.037 94.216 119.242 94.132C119.457 94.048 119.648 93.9127 119.816 93.726C119.984 93.53 120.115 93.2733 120.208 92.956C120.311 92.6387 120.362 92.2513 120.362 91.794C120.362 91.374 120.32 91.01 120.236 90.702C120.152 90.3847 120.031 90.1233 119.872 89.918C119.723 89.7127 119.541 89.5633 119.326 89.47C119.111 89.3673 118.878 89.316 118.626 89.316C118.281 89.316 117.973 89.4233 117.702 89.638C117.441 89.8433 117.235 90.1373 117.086 90.52C116.937 90.8933 116.862 91.3273 116.862 91.822C116.862 92.186 116.895 92.5173 116.96 92.816C117.025 93.1147 117.123 93.3713 117.254 93.586C117.394 93.8007 117.571 93.9687 117.786 94.09C118.01 94.202 118.281 94.258 118.598 94.258ZM124.954 95.154C124.226 95.154 123.666 94.9907 123.274 94.664C122.882 94.328 122.686 93.9033 122.686 93.39C122.686 93.0447 122.77 92.7367 122.938 92.466C123.106 92.186 123.335 91.9527 123.624 91.766C123.923 91.57 124.268 91.4207 124.66 91.318C125.052 91.2153 125.467 91.164 125.906 91.164C126.065 91.164 126.223 91.1687 126.382 91.178C126.55 91.178 126.723 91.1873 126.9 91.206C127.087 91.2153 127.278 91.234 127.474 91.262L127.502 92.032C127.334 92.004 127.161 91.9853 126.984 91.976C126.816 91.9573 126.648 91.9433 126.48 91.934C126.312 91.9247 126.149 91.92 125.99 91.92C125.654 91.92 125.346 91.948 125.066 92.004C124.786 92.06 124.543 92.144 124.338 92.256C124.133 92.368 123.974 92.5127 123.862 92.69C123.75 92.8673 123.694 93.082 123.694 93.334C123.694 93.53 123.727 93.698 123.792 93.838C123.867 93.9687 123.965 94.076 124.086 94.16C124.207 94.2347 124.347 94.2907 124.506 94.328C124.674 94.3653 124.856 94.384 125.052 94.384C125.416 94.384 125.738 94.328 126.018 94.216C126.307 94.0947 126.55 93.922 126.746 93.698C126.951 93.474 127.105 93.1987 127.208 92.872C127.311 92.5453 127.362 92.172 127.362 91.752C127.362 91.1173 127.287 90.6227 127.138 90.268C126.989 89.9133 126.765 89.6613 126.466 89.512C126.177 89.3627 125.803 89.288 125.346 89.288C125.038 89.288 124.735 89.3487 124.436 89.47C124.137 89.582 123.867 89.7593 123.624 90.002L123.134 89.358C123.433 89.0593 123.778 88.8353 124.17 88.686C124.562 88.5367 124.977 88.462 125.416 88.462C125.836 88.462 126.219 88.5133 126.564 88.616C126.909 88.7187 127.203 88.8913 127.446 89.134C127.698 89.3673 127.889 89.6847 128.02 90.086C128.16 90.4873 128.23 90.9913 128.23 91.598V95H127.138V94.02C127.017 94.2533 126.867 94.4447 126.69 94.594C126.522 94.7433 126.34 94.86 126.144 94.944C125.948 95.0187 125.747 95.07 125.542 95.098C125.337 95.1353 125.141 95.154 124.954 95.154ZM132.514 95.14C132.159 95.14 131.819 95.1027 131.492 95.028C131.175 94.9533 130.871 94.8413 130.582 94.692C130.302 94.5427 130.041 94.356 129.798 94.132L130.358 93.18L130.442 93.054L130.526 93.11C130.545 93.1847 130.563 93.264 130.582 93.348C130.61 93.4227 130.675 93.516 130.778 93.628C130.974 93.824 131.207 93.9873 131.478 94.118C131.758 94.2393 132.113 94.3 132.542 94.3C132.887 94.3 133.177 94.258 133.41 94.174C133.653 94.09 133.839 93.9733 133.97 93.824C134.101 93.6653 134.166 93.4833 134.166 93.278C134.166 93.138 134.138 93.0167 134.082 92.914C134.026 92.802 133.933 92.6993 133.802 92.606C133.681 92.5127 133.517 92.4193 133.312 92.326C133.107 92.2327 132.855 92.1393 132.556 92.046C132.071 91.906 131.646 91.7427 131.282 91.556C130.918 91.3693 130.638 91.1547 130.442 90.912C130.246 90.66 130.148 90.3753 130.148 90.058C130.148 89.7313 130.237 89.4513 130.414 89.218C130.591 88.9753 130.853 88.7887 131.198 88.658C131.553 88.518 131.987 88.448 132.5 88.448C132.799 88.448 133.069 88.4713 133.312 88.518C133.555 88.5553 133.779 88.616 133.984 88.7C134.189 88.784 134.376 88.8913 134.544 89.022C134.721 89.1433 134.889 89.288 135.048 89.456L134.474 90.156L134.376 90.268L134.306 90.198C134.297 90.1233 134.273 90.0533 134.236 89.988C134.208 89.9133 134.143 89.8247 134.04 89.722C133.825 89.554 133.583 89.428 133.312 89.344C133.041 89.2507 132.78 89.204 132.528 89.204C132.155 89.204 131.833 89.2693 131.562 89.4C131.291 89.5307 131.156 89.7313 131.156 90.002C131.156 90.142 131.203 90.282 131.296 90.422C131.399 90.5527 131.581 90.688 131.842 90.828C132.103 90.9587 132.477 91.094 132.962 91.234C133.494 91.402 133.919 91.5747 134.236 91.752C134.563 91.92 134.796 92.116 134.936 92.34C135.085 92.564 135.16 92.83 135.16 93.138C135.16 93.4927 135.062 93.824 134.866 94.132C134.679 94.44 134.39 94.6873 133.998 94.874C133.606 95.0513 133.111 95.14 132.514 95.14ZM139.808 95.14C139.341 95.14 138.917 95.07 138.534 94.93C138.151 94.7807 137.82 94.566 137.54 94.286C137.269 94.006 137.059 93.6607 136.91 93.25C136.761 92.83 136.686 92.354 136.686 91.822C136.686 91.2807 136.761 90.8 136.91 90.38C137.069 89.96 137.279 89.61 137.54 89.33C137.811 89.0407 138.123 88.8213 138.478 88.672C138.842 88.5227 139.225 88.448 139.626 88.448C139.99 88.448 140.331 88.5087 140.648 88.63C140.965 88.7513 141.241 88.938 141.474 89.19C141.707 89.4327 141.889 89.7453 142.02 90.128C142.16 90.5107 142.23 90.9633 142.23 91.486C142.23 91.5607 142.225 91.64 142.216 91.724C142.216 91.7987 142.211 91.8733 142.202 91.948H137.652C137.671 92.3587 137.741 92.718 137.862 93.026C137.983 93.3247 138.142 93.572 138.338 93.768C138.534 93.9547 138.758 94.0947 139.01 94.188C139.271 94.2813 139.547 94.328 139.836 94.328C140.06 94.328 140.27 94.3047 140.466 94.258C140.662 94.202 140.844 94.1227 141.012 94.02C141.189 93.908 141.348 93.7727 141.488 93.614L142.048 94.16C141.871 94.3747 141.665 94.5567 141.432 94.706C141.208 94.8553 140.961 94.9627 140.69 95.028C140.419 95.1027 140.125 95.14 139.808 95.14ZM137.694 91.164H141.208C141.208 90.8653 141.166 90.5993 141.082 90.366C141.007 90.1233 140.895 89.918 140.746 89.75C140.606 89.5727 140.433 89.442 140.228 89.358C140.032 89.2647 139.808 89.218 139.556 89.218C139.332 89.218 139.117 89.2553 138.912 89.33C138.716 89.4047 138.534 89.526 138.366 89.694C138.198 89.8527 138.053 90.0533 137.932 90.296C137.82 90.5387 137.741 90.828 137.694 91.164Z" fill="black"/>
<rect x="523.643" y="42.5" width="115" height="29" rx="14.5" fill="#7CCFFD" stroke="black"/>
<path d="M553.899 61.014V52.278H555.929C556.433 52.278 556.857 52.3247 557.203 52.418C557.548 52.5113 557.842 52.6467 558.085 52.824C558.327 52.992 558.542 53.2067 558.729 53.468C558.925 53.7293 559.083 54.0233 559.205 54.35C559.335 54.6767 559.429 55.036 559.485 55.428C559.55 55.8107 559.583 56.2307 559.583 56.688C559.555 57.36 559.466 57.962 559.317 58.494C559.167 59.026 558.943 59.4787 558.645 59.852C558.346 60.2253 557.959 60.5147 557.483 60.72C557.016 60.916 556.442 61.014 555.761 61.014H553.899ZM554.823 60.244H555.719C556.391 60.244 556.937 60.1087 557.357 59.838C557.786 59.5673 558.103 59.1707 558.309 58.648C558.514 58.1253 558.612 57.4907 558.603 56.744C558.603 55.9787 558.509 55.3253 558.323 54.784C558.136 54.2427 557.842 53.8273 557.441 53.538C557.049 53.2487 556.526 53.104 555.873 53.104H554.823V60.244ZM563.097 61.154C562.369 61.154 561.809 60.9907 561.417 60.664C561.025 60.328 560.829 59.9033 560.829 59.39C560.829 59.0447 560.913 58.7367 561.081 58.466C561.249 58.186 561.477 57.9527 561.767 57.766C562.065 57.57 562.411 57.4207 562.803 57.318C563.195 57.2153 563.61 57.164 564.049 57.164C564.207 57.164 564.366 57.1687 564.525 57.178C564.693 57.178 564.865 57.1873 565.043 57.206C565.229 57.2153 565.421 57.234 565.617 57.262L565.645 58.032C565.477 58.004 565.304 57.9853 565.127 57.976C564.959 57.9573 564.791 57.9433 564.623 57.934C564.455 57.9247 564.291 57.92 564.133 57.92C563.797 57.92 563.489 57.948 563.209 58.004C562.929 58.06 562.686 58.144 562.481 58.256C562.275 58.368 562.117 58.5127 562.005 58.69C561.893 58.8673 561.837 59.082 561.837 59.334C561.837 59.53 561.869 59.698 561.935 59.838C562.009 59.9687 562.107 60.076 562.229 60.16C562.35 60.2347 562.49 60.2907 562.649 60.328C562.817 60.3653 562.999 60.384 563.195 60.384C563.559 60.384 563.881 60.328 564.161 60.216C564.45 60.0947 564.693 59.922 564.889 59.698C565.094 59.474 565.248 59.1987 565.351 58.872C565.453 58.5453 565.505 58.172 565.505 57.752C565.505 57.1173 565.43 56.6227 565.281 56.268C565.131 55.9133 564.907 55.6613 564.609 55.512C564.319 55.3627 563.946 55.288 563.489 55.288C563.181 55.288 562.877 55.3487 562.579 55.47C562.28 55.582 562.009 55.7593 561.767 56.002L561.277 55.358C561.575 55.0593 561.921 54.8353 562.313 54.686C562.705 54.5367 563.12 54.462 563.559 54.462C563.979 54.462 564.361 54.5133 564.707 54.616C565.052 54.7187 565.346 54.8913 565.589 55.134C565.841 55.3673 566.032 55.6847 566.163 56.086C566.303 56.4873 566.373 56.9913 566.373 57.598V61H565.281V60.02C565.159 60.2533 565.01 60.4447 564.833 60.594C564.665 60.7433 564.483 60.86 564.287 60.944C564.091 61.0187 563.89 61.07 563.685 61.098C563.479 61.1353 563.283 61.154 563.097 61.154ZM571.329 61.098C570.918 61.098 570.582 61.028 570.321 60.888C570.059 60.748 569.859 60.5333 569.719 60.244C569.579 59.9453 569.485 59.572 569.439 59.124C569.401 58.676 569.392 58.144 569.411 57.528L569.579 52.964L570.629 52.838L570.769 52.824L570.783 52.922C570.736 52.9873 570.694 53.0527 570.657 53.118C570.629 53.1833 570.605 53.2953 570.587 53.454L570.461 55.036L570.503 55.288L570.405 57.598C570.377 58.3073 570.395 58.858 570.461 59.25C570.526 59.6327 570.643 59.8987 570.811 60.048C570.979 60.188 571.203 60.258 571.483 60.258C571.791 60.258 572.061 60.1973 572.295 60.076C572.537 59.9547 572.789 59.8007 573.051 59.614L573.359 60.412C573.041 60.6453 572.715 60.818 572.379 60.93C572.043 61.042 571.693 61.098 571.329 61.098ZM568.123 54.602H572.729V55.428H568.123V54.602ZM577.097 61.154C576.369 61.154 575.809 60.9907 575.417 60.664C575.025 60.328 574.829 59.9033 574.829 59.39C574.829 59.0447 574.913 58.7367 575.081 58.466C575.249 58.186 575.477 57.9527 575.767 57.766C576.065 57.57 576.411 57.4207 576.803 57.318C577.195 57.2153 577.61 57.164 578.049 57.164C578.207 57.164 578.366 57.1687 578.525 57.178C578.693 57.178 578.865 57.1873 579.043 57.206C579.229 57.2153 579.421 57.234 579.617 57.262L579.645 58.032C579.477 58.004 579.304 57.9853 579.127 57.976C578.959 57.9573 578.791 57.9433 578.623 57.934C578.455 57.9247 578.291 57.92 578.133 57.92C577.797 57.92 577.489 57.948 577.209 58.004C576.929 58.06 576.686 58.144 576.481 58.256C576.275 58.368 576.117 58.5127 576.005 58.69C575.893 58.8673 575.837 59.082 575.837 59.334C575.837 59.53 575.869 59.698 575.935 59.838C576.009 59.9687 576.107 60.076 576.229 60.16C576.35 60.2347 576.49 60.2907 576.649 60.328C576.817 60.3653 576.999 60.384 577.195 60.384C577.559 60.384 577.881 60.328 578.161 60.216C578.45 60.0947 578.693 59.922 578.889 59.698C579.094 59.474 579.248 59.1987 579.351 58.872C579.453 58.5453 579.505 58.172 579.505 57.752C579.505 57.1173 579.43 56.6227 579.281 56.268C579.131 55.9133 578.907 55.6613 578.609 55.512C578.319 55.3627 577.946 55.288 577.489 55.288C577.181 55.288 576.877 55.3487 576.579 55.47C576.28 55.582 576.009 55.7593 575.767 56.002L575.277 55.358C575.575 55.0593 575.921 54.8353 576.313 54.686C576.705 54.5367 577.12 54.462 577.559 54.462C577.979 54.462 578.361 54.5133 578.707 54.616C579.052 54.7187 579.346 54.8913 579.589 55.134C579.841 55.3673 580.032 55.6847 580.163 56.086C580.303 56.4873 580.373 56.9913 580.373 57.598V61H579.281V60.02C579.159 60.2533 579.01 60.4447 578.833 60.594C578.665 60.7433 578.483 60.86 578.287 60.944C578.091 61.0187 577.89 61.07 577.685 61.098C577.479 61.1353 577.283 61.154 577.097 61.154ZM584.867 61.154C584.605 61.154 584.358 61.112 584.125 61.028C583.891 60.9533 583.677 60.8413 583.481 60.692C583.294 60.5427 583.126 60.3653 582.977 60.16L582.627 61H581.983V51.69H582.991H583.131V51.788C583.075 51.844 583.037 51.9047 583.019 51.97C583.009 52.0353 583.005 52.1473 583.005 52.306V55.582C583.107 55.414 583.229 55.26 583.369 55.12C583.509 54.98 583.663 54.8587 583.831 54.756C583.999 54.6533 584.176 54.5787 584.363 54.532C584.549 54.476 584.731 54.448 584.909 54.448C585.301 54.448 585.655 54.518 585.973 54.658C586.299 54.7887 586.579 54.994 586.813 55.274C587.046 55.5447 587.223 55.8853 587.345 56.296C587.475 56.7067 587.541 57.1873 587.541 57.738C587.541 58.3073 587.466 58.8067 587.317 59.236C587.167 59.6653 586.962 60.0247 586.701 60.314C586.449 60.594 586.164 60.804 585.847 60.944C585.529 61.084 585.203 61.154 584.867 61.154ZM584.741 60.258C584.965 60.258 585.179 60.216 585.385 60.132C585.599 60.048 585.791 59.9127 585.959 59.726C586.127 59.53 586.257 59.2733 586.351 58.956C586.453 58.6387 586.505 58.2513 586.505 57.794C586.505 57.374 586.463 57.01 586.379 56.702C586.295 56.3847 586.173 56.1233 586.015 55.918C585.865 55.7127 585.683 55.5633 585.469 55.47C585.254 55.3673 585.021 55.316 584.769 55.316C584.423 55.316 584.115 55.4233 583.845 55.638C583.583 55.8433 583.378 56.1373 583.229 56.52C583.079 56.8933 583.005 57.3273 583.005 57.822C583.005 58.186 583.037 58.5173 583.103 58.816C583.168 59.1147 583.266 59.3713 583.397 59.586C583.537 59.8007 583.714 59.9687 583.929 60.09C584.153 60.202 584.423 60.258 584.741 60.258ZM591.097 61.154C590.369 61.154 589.809 60.9907 589.417 60.664C589.025 60.328 588.829 59.9033 588.829 59.39C588.829 59.0447 588.913 58.7367 589.081 58.466C589.249 58.186 589.477 57.9527 589.767 57.766C590.065 57.57 590.411 57.4207 590.803 57.318C591.195 57.2153 591.61 57.164 592.049 57.164C592.207 57.164 592.366 57.1687 592.525 57.178C592.693 57.178 592.865 57.1873 593.043 57.206C593.229 57.2153 593.421 57.234 593.617 57.262L593.645 58.032C593.477 58.004 593.304 57.9853 593.127 57.976C592.959 57.9573 592.791 57.9433 592.623 57.934C592.455 57.9247 592.291 57.92 592.133 57.92C591.797 57.92 591.489 57.948 591.209 58.004C590.929 58.06 590.686 58.144 590.481 58.256C590.275 58.368 590.117 58.5127 590.005 58.69C589.893 58.8673 589.837 59.082 589.837 59.334C589.837 59.53 589.869 59.698 589.935 59.838C590.009 59.9687 590.107 60.076 590.229 60.16C590.35 60.2347 590.49 60.2907 590.649 60.328C590.817 60.3653 590.999 60.384 591.195 60.384C591.559 60.384 591.881 60.328 592.161 60.216C592.45 60.0947 592.693 59.922 592.889 59.698C593.094 59.474 593.248 59.1987 593.351 58.872C593.453 58.5453 593.505 58.172 593.505 57.752C593.505 57.1173 593.43 56.6227 593.281 56.268C593.131 55.9133 592.907 55.6613 592.609 55.512C592.319 55.3627 591.946 55.288 591.489 55.288C591.181 55.288 590.877 55.3487 590.579 55.47C590.28 55.582 590.009 55.7593 589.767 56.002L589.277 55.358C589.575 55.0593 589.921 54.8353 590.313 54.686C590.705 54.5367 591.12 54.462 591.559 54.462C591.979 54.462 592.361 54.5133 592.707 54.616C593.052 54.7187 593.346 54.8913 593.589 55.134C593.841 55.3673 594.032 55.6847 594.163 56.086C594.303 56.4873 594.373 56.9913 594.373 57.598V61H593.281V60.02C593.159 60.2533 593.01 60.4447 592.833 60.594C592.665 60.7433 592.483 60.86 592.287 60.944C592.091 61.0187 591.89 61.07 591.685 61.098C591.479 61.1353 591.283 61.154 591.097 61.154ZM598.657 61.14C598.302 61.14 597.961 61.1027 597.635 61.028C597.317 60.9533 597.014 60.8413 596.725 60.692C596.445 60.5427 596.183 60.356 595.941 60.132L596.501 59.18L596.585 59.054L596.669 59.11C596.687 59.1847 596.706 59.264 596.725 59.348C596.753 59.4227 596.818 59.516 596.921 59.628C597.117 59.824 597.35 59.9873 597.621 60.118C597.901 60.2393 598.255 60.3 598.685 60.3C599.03 60.3 599.319 60.258 599.553 60.174C599.795 60.09 599.982 59.9733 600.113 59.824C600.243 59.6653 600.309 59.4833 600.309 59.278C600.309 59.138 600.281 59.0167 600.225 58.914C600.169 58.802 600.075 58.6993 599.945 58.606C599.823 58.5127 599.66 58.4193 599.455 58.326C599.249 58.2327 598.997 58.1393 598.699 58.046C598.213 57.906 597.789 57.7427 597.425 57.556C597.061 57.3693 596.781 57.1547 596.585 56.912C596.389 56.66 596.291 56.3753 596.291 56.058C596.291 55.7313 596.379 55.4513 596.557 55.218C596.734 54.9753 596.995 54.7887 597.341 54.658C597.695 54.518 598.129 54.448 598.643 54.448C598.941 54.448 599.212 54.4713 599.455 54.518C599.697 54.5553 599.921 54.616 600.127 54.7C600.332 54.784 600.519 54.8913 600.687 55.022C600.864 55.1433 601.032 55.288 601.191 55.456L600.617 56.156L600.519 56.268L600.449 56.198C600.439 56.1233 600.416 56.0533 600.379 55.988C600.351 55.9133 600.285 55.8247 600.183 55.722C599.968 55.554 599.725 55.428 599.455 55.344C599.184 55.2507 598.923 55.204 598.671 55.204C598.297 55.204 597.975 55.2693 597.705 55.4C597.434 55.5307 597.299 55.7313 597.299 56.002C597.299 56.142 597.345 56.282 597.439 56.422C597.541 56.5527 597.723 56.688 597.985 56.828C598.246 56.9587 598.619 57.094 599.105 57.234C599.637 57.402 600.061 57.5747 600.379 57.752C600.705 57.92 600.939 58.116 601.079 58.34C601.228 58.564 601.303 58.83 601.303 59.138C601.303 59.4927 601.205 59.824 601.009 60.132C600.822 60.44 600.533 60.6873 600.141 60.874C599.749 61.0513 599.254 61.14 598.657 61.14ZM605.951 61.14C605.484 61.14 605.059 61.07 604.677 60.93C604.294 60.7807 603.963 60.566 603.683 60.286C603.412 60.006 603.202 59.6607 603.053 59.25C602.903 58.83 602.829 58.354 602.829 57.822C602.829 57.2807 602.903 56.8 603.053 56.38C603.211 55.96 603.421 55.61 603.683 55.33C603.953 55.0407 604.266 54.8213 604.621 54.672C604.985 54.5227 605.367 54.448 605.769 54.448C606.133 54.448 606.473 54.5087 606.791 54.63C607.108 54.7513 607.383 54.938 607.617 55.19C607.85 55.4327 608.032 55.7453 608.163 56.128C608.303 56.5107 608.373 56.9633 608.373 57.486C608.373 57.5607 608.368 57.64 608.359 57.724C608.359 57.7987 608.354 57.8733 608.345 57.948H603.795C603.813 58.3587 603.883 58.718 604.005 59.026C604.126 59.3247 604.285 59.572 604.481 59.768C604.677 59.9547 604.901 60.0947 605.153 60.188C605.414 60.2813 605.689 60.328 605.979 60.328C606.203 60.328 606.413 60.3047 606.609 60.258C606.805 60.202 606.987 60.1227 607.155 60.02C607.332 59.908 607.491 59.7727 607.631 59.614L608.191 60.16C608.013 60.3747 607.808 60.5567 607.575 60.706C607.351 60.8553 607.103 60.9627 606.833 61.028C606.562 61.1027 606.268 61.14 605.951 61.14ZM603.837 57.164H607.351C607.351 56.8653 607.309 56.5993 607.225 56.366C607.15 56.1233 607.038 55.918 606.889 55.75C606.749 55.5727 606.576 55.442 606.371 55.358C606.175 55.2647 605.951 55.218 605.699 55.218C605.475 55.218 605.26 55.2553 605.055 55.33C604.859 55.4047 604.677 55.526 604.509 55.694C604.341 55.8527 604.196 56.0533 604.075 56.296C603.963 56.5387 603.883 56.828 603.837 57.164Z" fill="black"/>
<rect x="57.5" y="144.5" width="115" height="29" rx="14.5" fill="#B0F2FF" stroke="black"/>
<path d="M98.7 154.278H99.652L103.32 160.746V154.278H104.244H104.384V154.376C104.328 154.432 104.291 154.493 104.272 154.558C104.263 154.623 104.258 154.735 104.258 154.894V163H103.488L99.638 156.14V163H98.7V154.278ZM108.5 163.112C107.921 163.112 107.408 162.972 106.96 162.692C106.521 162.403 106.176 162.011 105.924 161.516C105.672 161.012 105.546 160.438 105.546 159.794C105.546 159.141 105.672 158.567 105.924 158.072C106.176 157.568 106.521 157.176 106.96 156.896C107.408 156.607 107.921 156.462 108.5 156.462C109.079 156.462 109.587 156.607 110.026 156.896C110.474 157.176 110.824 157.568 111.076 158.072C111.328 158.567 111.454 159.141 111.454 159.794C111.454 160.438 111.328 161.012 111.076 161.516C110.824 162.011 110.474 162.403 110.026 162.692C109.587 162.972 109.079 163.112 108.5 163.112ZM108.5 162.272C108.873 162.272 109.2 162.165 109.48 161.95C109.76 161.735 109.979 161.441 110.138 161.068C110.306 160.695 110.39 160.265 110.39 159.78C110.39 159.295 110.306 158.865 110.138 158.492C109.979 158.119 109.76 157.829 109.48 157.624C109.2 157.409 108.873 157.302 108.5 157.302C108.136 157.302 107.809 157.409 107.52 157.624C107.24 157.829 107.016 158.119 106.848 158.492C106.689 158.865 106.61 159.295 106.61 159.78C106.61 160.265 106.689 160.695 106.848 161.068C107.016 161.441 107.24 161.735 107.52 161.95C107.809 162.165 108.136 162.272 108.5 162.272ZM115.458 163.14C114.889 163.14 114.375 163.047 113.918 162.86C113.47 162.673 113.073 162.398 112.728 162.034L113.232 161.152L113.288 161.026L113.386 161.082C113.405 161.147 113.428 161.222 113.456 161.306C113.484 161.381 113.549 161.474 113.652 161.586C113.895 161.791 114.175 161.955 114.492 162.076C114.819 162.197 115.187 162.258 115.598 162.258C115.859 162.258 116.097 162.221 116.312 162.146C116.536 162.062 116.727 161.955 116.886 161.824C117.054 161.684 117.18 161.525 117.264 161.348C117.357 161.161 117.404 160.965 117.404 160.76C117.404 160.601 117.385 160.457 117.348 160.326C117.32 160.195 117.259 160.079 117.166 159.976C117.082 159.864 116.965 159.757 116.816 159.654C116.667 159.542 116.475 159.425 116.242 159.304C116.009 159.183 115.729 159.052 115.402 158.912C114.795 158.679 114.315 158.427 113.96 158.156C113.615 157.876 113.367 157.582 113.218 157.274C113.078 156.966 113.008 156.649 113.008 156.322C113.008 155.893 113.115 155.519 113.33 155.202C113.545 154.875 113.848 154.623 114.24 154.446C114.641 154.259 115.117 154.166 115.668 154.166C115.985 154.166 116.289 154.213 116.578 154.306C116.877 154.39 117.152 154.511 117.404 154.67C117.665 154.829 117.894 155.025 118.09 155.258L117.544 155.986L117.46 156.098L117.376 156.042C117.367 155.967 117.348 155.893 117.32 155.818C117.292 155.743 117.227 155.65 117.124 155.538C116.9 155.323 116.662 155.179 116.41 155.104C116.158 155.02 115.859 154.978 115.514 154.978C115.281 154.978 115.071 155.011 114.884 155.076C114.707 155.141 114.553 155.235 114.422 155.356C114.291 155.477 114.189 155.617 114.114 155.776C114.049 155.925 114.016 156.084 114.016 156.252C114.016 156.411 114.035 156.555 114.072 156.686C114.109 156.817 114.175 156.943 114.268 157.064C114.361 157.185 114.487 157.307 114.646 157.428C114.814 157.549 115.019 157.671 115.262 157.792C115.514 157.913 115.817 158.044 116.172 158.184C116.601 158.361 116.956 158.539 117.236 158.716C117.525 158.884 117.749 159.066 117.908 159.262C118.076 159.449 118.193 159.654 118.258 159.878C118.333 160.102 118.37 160.349 118.37 160.62C118.37 161.021 118.267 161.418 118.062 161.81C117.866 162.193 117.553 162.51 117.124 162.762C116.695 163.014 116.139 163.14 115.458 163.14ZM124.614 165.03C124.157 165.049 123.769 165.025 123.452 164.96C123.144 164.904 122.892 164.797 122.696 164.638C122.509 164.479 122.374 164.274 122.29 164.022C122.206 163.77 122.164 163.462 122.164 163.098C121.697 163.033 121.254 162.832 120.834 162.496C120.414 162.16 120.069 161.675 119.798 161.04C119.537 160.405 119.406 159.621 119.406 158.688C119.406 157.82 119.504 157.097 119.7 156.518C119.896 155.93 120.153 155.468 120.47 155.132C120.787 154.787 121.123 154.544 121.478 154.404C121.842 154.255 122.187 154.18 122.514 154.18C122.906 154.18 123.289 154.269 123.662 154.446C124.045 154.614 124.381 154.88 124.67 155.244C124.969 155.599 125.202 156.061 125.37 156.63C125.538 157.19 125.613 157.862 125.594 158.646C125.594 159.29 125.538 159.869 125.426 160.382C125.323 160.886 125.16 161.325 124.936 161.698C124.721 162.071 124.451 162.375 124.124 162.608C123.807 162.841 123.438 163.005 123.018 163.098C123.037 163.303 123.074 163.485 123.13 163.644C123.195 163.803 123.298 163.924 123.438 164.008C123.587 164.101 123.793 164.148 124.054 164.148L125.188 164.078L125.16 165.03H124.614ZM122.584 162.23C122.827 162.23 123.069 162.174 123.312 162.062C123.555 161.941 123.774 161.749 123.97 161.488C124.175 161.217 124.339 160.872 124.46 160.452C124.591 160.023 124.656 159.5 124.656 158.884C124.656 158.1 124.586 157.461 124.446 156.966C124.315 156.462 124.138 156.07 123.914 155.79C123.699 155.51 123.466 155.314 123.214 155.202C122.971 155.09 122.738 155.034 122.514 155.034C122.15 155.034 121.833 155.132 121.562 155.328C121.291 155.515 121.067 155.771 120.89 156.098C120.713 156.415 120.577 156.779 120.484 157.19C120.4 157.601 120.358 158.03 120.358 158.478C120.358 159.215 120.447 159.869 120.624 160.438C120.801 160.998 121.053 161.437 121.38 161.754C121.716 162.071 122.117 162.23 122.584 162.23ZM126.924 154.278H127.932H128.072V154.376C128.016 154.432 127.979 154.493 127.96 154.558C127.951 154.623 127.946 154.735 127.946 154.894V162.16H132.146V163H126.924V154.278Z" fill="black"/>
<rect x="523.643" y="107.5" width="115" height="29" rx="14.5" fill="#B489E6" stroke="black"/>
<path d="M571.717 126V117.278H572.487L574.643 121.548L576.841 117.264H577.583V126H576.659V119.42L574.769 122.934H574.391L572.627 119.462V126H571.717ZM578.969 126V117.278H581.769C582.422 117.278 582.949 117.39 583.351 117.614C583.752 117.838 584.046 118.137 584.233 118.51C584.429 118.874 584.527 119.285 584.527 119.742C584.527 120.078 584.475 120.391 584.373 120.68C584.27 120.969 584.107 121.226 583.883 121.45C583.668 121.674 583.393 121.847 583.057 121.968C582.721 122.089 582.315 122.15 581.839 122.15H579.977V126H578.969ZM579.977 121.282H581.727C582.156 121.282 582.501 121.221 582.763 121.1C583.024 120.969 583.215 120.792 583.337 120.568C583.458 120.335 583.519 120.069 583.519 119.77C583.519 119.481 583.458 119.219 583.337 118.986C583.215 118.753 583.024 118.566 582.763 118.426C582.501 118.277 582.161 118.202 581.741 118.202H579.977V121.282ZM585.969 126V117.278H588.769C589.422 117.278 589.949 117.39 590.351 117.614C590.752 117.838 591.046 118.137 591.233 118.51C591.429 118.874 591.527 119.285 591.527 119.742C591.527 120.078 591.475 120.391 591.373 120.68C591.27 120.969 591.107 121.226 590.883 121.45C590.668 121.674 590.393 121.847 590.057 121.968C589.721 122.089 589.315 122.15 588.839 122.15H586.977V126H585.969ZM586.977 121.282H588.727C589.156 121.282 589.501 121.221 589.763 121.1C590.024 120.969 590.215 120.792 590.337 120.568C590.458 120.335 590.519 120.069 590.519 119.77C590.519 119.481 590.458 119.219 590.337 118.986C590.215 118.753 590.024 118.566 589.763 118.426C589.501 118.277 589.161 118.202 588.741 118.202H586.977V121.282Z" fill="black"/>
<rect x="57.5" y="213.5" width="115" height="29" rx="14.5" fill="#6F99FF" stroke="black"/>
<path d="M90.458 232.14C89.8887 232.14 89.3753 232.047 88.918 231.86C88.47 231.673 88.0733 231.398 87.728 231.034L88.232 230.152L88.288 230.026L88.386 230.082C88.4047 230.147 88.428 230.222 88.456 230.306C88.484 230.381 88.5493 230.474 88.652 230.586C88.8947 230.791 89.1747 230.955 89.492 231.076C89.8187 231.197 90.1873 231.258 90.598 231.258C90.8593 231.258 91.0973 231.221 91.312 231.146C91.536 231.062 91.7273 230.955 91.886 230.824C92.054 230.684 92.18 230.525 92.264 230.348C92.3573 230.161 92.404 229.965 92.404 229.76C92.404 229.601 92.3853 229.457 92.348 229.326C92.32 229.195 92.2593 229.079 92.166 228.976C92.082 228.864 91.9653 228.757 91.816 228.654C91.6667 228.542 91.4753 228.425 91.242 228.304C91.0087 228.183 90.7287 228.052 90.402 227.912C89.7953 227.679 89.3147 227.427 88.96 227.156C88.6147 226.876 88.3673 226.582 88.218 226.274C88.078 225.966 88.008 225.649 88.008 225.322C88.008 224.893 88.1153 224.519 88.33 224.202C88.5447 223.875 88.848 223.623 89.24 223.446C89.6413 223.259 90.1173 223.166 90.668 223.166C90.9853 223.166 91.2887 223.213 91.578 223.306C91.8767 223.39 92.152 223.511 92.404 223.67C92.6653 223.829 92.894 224.025 93.09 224.258L92.544 224.986L92.46 225.098L92.376 225.042C92.3667 224.967 92.348 224.893 92.32 224.818C92.292 224.743 92.2267 224.65 92.124 224.538C91.9 224.323 91.662 224.179 91.41 224.104C91.158 224.02 90.8593 223.978 90.514 223.978C90.2807 223.978 90.0707 224.011 89.884 224.076C89.7067 224.141 89.5527 224.235 89.422 224.356C89.2913 224.477 89.1887 224.617 89.114 224.776C89.0487 224.925 89.016 225.084 89.016 225.252C89.016 225.411 89.0347 225.555 89.072 225.686C89.1093 225.817 89.1747 225.943 89.268 226.064C89.3613 226.185 89.4873 226.307 89.646 226.428C89.814 226.549 90.0193 226.671 90.262 226.792C90.514 226.913 90.8173 227.044 91.172 227.184C91.6013 227.361 91.956 227.539 92.236 227.716C92.5253 227.884 92.7493 228.066 92.908 228.262C93.076 228.449 93.1927 228.654 93.258 228.878C93.3327 229.102 93.37 229.349 93.37 229.62C93.37 230.021 93.2673 230.418 93.062 230.81C92.866 231.193 92.5533 231.51 92.124 231.762C91.6947 232.014 91.1393 232.14 90.458 232.14ZM96.954 232.154C96.226 232.154 95.666 231.991 95.274 231.664C94.882 231.328 94.686 230.903 94.686 230.39C94.686 230.045 94.77 229.737 94.938 229.466C95.106 229.186 95.3347 228.953 95.624 228.766C95.9227 228.57 96.268 228.421 96.66 228.318C97.052 228.215 97.4673 228.164 97.906 228.164C98.0647 228.164 98.2233 228.169 98.382 228.178C98.55 228.178 98.7227 228.187 98.9 228.206C99.0867 228.215 99.278 228.234 99.474 228.262L99.502 229.032C99.334 229.004 99.1613 228.985 98.984 228.976C98.816 228.957 98.648 228.943 98.48 228.934C98.312 228.925 98.1487 228.92 97.99 228.92C97.654 228.92 97.346 228.948 97.066 229.004C96.786 229.06 96.5433 229.144 96.338 229.256C96.1327 229.368 95.974 229.513 95.862 229.69C95.75 229.867 95.694 230.082 95.694 230.334C95.694 230.53 95.7267 230.698 95.792 230.838C95.8667 230.969 95.9647 231.076 96.086 231.16C96.2073 231.235 96.3473 231.291 96.506 231.328C96.674 231.365 96.856 231.384 97.052 231.384C97.416 231.384 97.738 231.328 98.018 231.216C98.3073 231.095 98.55 230.922 98.746 230.698C98.9513 230.474 99.1053 230.199 99.208 229.872C99.3107 229.545 99.362 229.172 99.362 228.752C99.362 228.117 99.2873 227.623 99.138 227.268C98.9887 226.913 98.7647 226.661 98.466 226.512C98.1767 226.363 97.8033 226.288 97.346 226.288C97.038 226.288 96.7347 226.349 96.436 226.47C96.1373 226.582 95.8667 226.759 95.624 227.002L95.134 226.358C95.4327 226.059 95.778 225.835 96.17 225.686C96.562 225.537 96.9773 225.462 97.416 225.462C97.836 225.462 98.2187 225.513 98.564 225.616C98.9093 225.719 99.2033 225.891 99.446 226.134C99.698 226.367 99.8893 226.685 100.02 227.086C100.16 227.487 100.23 227.991 100.23 228.598V232H99.138V231.02C99.0167 231.253 98.8673 231.445 98.69 231.594C98.522 231.743 98.34 231.86 98.144 231.944C97.948 232.019 97.7473 232.07 97.542 232.098C97.3367 232.135 97.1407 232.154 96.954 232.154ZM103.954 232.154C103.226 232.154 102.666 231.991 102.274 231.664C101.882 231.328 101.686 230.903 101.686 230.39C101.686 230.045 101.77 229.737 101.938 229.466C102.106 229.186 102.335 228.953 102.624 228.766C102.923 228.57 103.268 228.421 103.66 228.318C104.052 228.215 104.467 228.164 104.906 228.164C105.065 228.164 105.223 228.169 105.382 228.178C105.55 228.178 105.723 228.187 105.9 228.206C106.087 228.215 106.278 228.234 106.474 228.262L106.502 229.032C106.334 229.004 106.161 228.985 105.984 228.976C105.816 228.957 105.648 228.943 105.48 228.934C105.312 228.925 105.149 228.92 104.99 228.92C104.654 228.92 104.346 228.948 104.066 229.004C103.786 229.06 103.543 229.144 103.338 229.256C103.133 229.368 102.974 229.513 102.862 229.69C102.75 229.867 102.694 230.082 102.694 230.334C102.694 230.53 102.727 230.698 102.792 230.838C102.867 230.969 102.965 231.076 103.086 231.16C103.207 231.235 103.347 231.291 103.506 231.328C103.674 231.365 103.856 231.384 104.052 231.384C104.416 231.384 104.738 231.328 105.018 231.216C105.307 231.095 105.55 230.922 105.746 230.698C105.951 230.474 106.105 230.199 106.208 229.872C106.311 229.545 106.362 229.172 106.362 228.752C106.362 228.117 106.287 227.623 106.138 227.268C105.989 226.913 105.765 226.661 105.466 226.512C105.177 226.363 104.803 226.288 104.346 226.288C104.038 226.288 103.735 226.349 103.436 226.47C103.137 226.582 102.867 226.759 102.624 227.002L102.134 226.358C102.433 226.059 102.778 225.835 103.17 225.686C103.562 225.537 103.977 225.462 104.416 225.462C104.836 225.462 105.219 225.513 105.564 225.616C105.909 225.719 106.203 225.891 106.446 226.134C106.698 226.367 106.889 226.685 107.02 227.086C107.16 227.487 107.23 227.991 107.23 228.598V232H106.138V231.02C106.017 231.253 105.867 231.445 105.69 231.594C105.522 231.743 105.34 231.86 105.144 231.944C104.948 232.019 104.747 232.07 104.542 232.098C104.337 232.135 104.141 232.154 103.954 232.154ZM111.458 232.14C110.889 232.14 110.375 232.047 109.918 231.86C109.47 231.673 109.073 231.398 108.728 231.034L109.232 230.152L109.288 230.026L109.386 230.082C109.405 230.147 109.428 230.222 109.456 230.306C109.484 230.381 109.549 230.474 109.652 230.586C109.895 230.791 110.175 230.955 110.492 231.076C110.819 231.197 111.187 231.258 111.598 231.258C111.859 231.258 112.097 231.221 112.312 231.146C112.536 231.062 112.727 230.955 112.886 230.824C113.054 230.684 113.18 230.525 113.264 230.348C113.357 230.161 113.404 229.965 113.404 229.76C113.404 229.601 113.385 229.457 113.348 229.326C113.32 229.195 113.259 229.079 113.166 228.976C113.082 228.864 112.965 228.757 112.816 228.654C112.667 228.542 112.475 228.425 112.242 228.304C112.009 228.183 111.729 228.052 111.402 227.912C110.795 227.679 110.315 227.427 109.96 227.156C109.615 226.876 109.367 226.582 109.218 226.274C109.078 225.966 109.008 225.649 109.008 225.322C109.008 224.893 109.115 224.519 109.33 224.202C109.545 223.875 109.848 223.623 110.24 223.446C110.641 223.259 111.117 223.166 111.668 223.166C111.985 223.166 112.289 223.213 112.578 223.306C112.877 223.39 113.152 223.511 113.404 223.67C113.665 223.829 113.894 224.025 114.09 224.258L113.544 224.986L113.46 225.098L113.376 225.042C113.367 224.967 113.348 224.893 113.32 224.818C113.292 224.743 113.227 224.65 113.124 224.538C112.9 224.323 112.662 224.179 112.41 224.104C112.158 224.02 111.859 223.978 111.514 223.978C111.281 223.978 111.071 224.011 110.884 224.076C110.707 224.141 110.553 224.235 110.422 224.356C110.291 224.477 110.189 224.617 110.114 224.776C110.049 224.925 110.016 225.084 110.016 225.252C110.016 225.411 110.035 225.555 110.072 225.686C110.109 225.817 110.175 225.943 110.268 226.064C110.361 226.185 110.487 226.307 110.646 226.428C110.814 226.549 111.019 226.671 111.262 226.792C111.514 226.913 111.817 227.044 112.172 227.184C112.601 227.361 112.956 227.539 113.236 227.716C113.525 227.884 113.749 228.066 113.908 228.262C114.076 228.449 114.193 228.654 114.258 228.878C114.333 229.102 114.37 229.349 114.37 229.62C114.37 230.021 114.267 230.418 114.062 230.81C113.866 231.193 113.553 231.51 113.124 231.762C112.695 232.014 112.139 232.14 111.458 232.14ZM116.722 232.588L115.896 232.182L120.278 222.69L121.118 223.124L116.722 232.588ZM126.998 229.452H123.834L124.03 228.696H126.774L126.998 229.452ZM125.486 225.364L123.19 232H122.224L125.444 223.124H125.556L128.776 232H127.768L125.486 225.364ZM129.826 232V223.278H132.626C133.279 223.278 133.807 223.39 134.208 223.614C134.609 223.838 134.903 224.137 135.09 224.51C135.286 224.874 135.384 225.285 135.384 225.742C135.384 226.078 135.333 226.391 135.23 226.68C135.127 226.969 134.964 227.226 134.74 227.45C134.525 227.674 134.25 227.847 133.914 227.968C133.578 228.089 133.172 228.15 132.696 228.15H130.834V232H129.826ZM130.834 227.282H132.584C133.013 227.282 133.359 227.221 133.62 227.1C133.881 226.969 134.073 226.792 134.194 226.568C134.315 226.335 134.376 226.069 134.376 225.77C134.376 225.481 134.315 225.219 134.194 224.986C134.073 224.753 133.881 224.566 133.62 224.426C133.359 224.277 133.018 224.202 132.598 224.202H130.834V227.282ZM137.134 232V231.174H138.856V224.104H137.232V223.278H141.558V224.104H139.836V231.188H141.642V232H137.134Z" fill="black"/>
<rect x="523.643" y="245.5" width="115" height="29" rx="14.5" fill="#6F99FF" stroke="black"/>
<path d="M556.601 264.14C556.031 264.14 555.518 264.047 555.061 263.86C554.613 263.673 554.216 263.398 553.871 263.034L554.375 262.152L554.431 262.026L554.529 262.082C554.547 262.147 554.571 262.222 554.599 262.306C554.627 262.381 554.692 262.474 554.795 262.586C555.037 262.791 555.317 262.955 555.635 263.076C555.961 263.197 556.33 263.258 556.741 263.258C557.002 263.258 557.24 263.221 557.455 263.146C557.679 263.062 557.87 262.955 558.029 262.824C558.197 262.684 558.323 262.525 558.407 262.348C558.5 262.161 558.547 261.965 558.547 261.76C558.547 261.601 558.528 261.457 558.491 261.326C558.463 261.195 558.402 261.079 558.309 260.976C558.225 260.864 558.108 260.757 557.959 260.654C557.809 260.542 557.618 260.425 557.385 260.304C557.151 260.183 556.871 260.052 556.545 259.912C555.938 259.679 555.457 259.427 555.103 259.156C554.757 258.876 554.51 258.582 554.361 258.274C554.221 257.966 554.151 257.649 554.151 257.322C554.151 256.893 554.258 256.519 554.473 256.202C554.687 255.875 554.991 255.623 555.383 255.446C555.784 255.259 556.26 255.166 556.811 255.166C557.128 255.166 557.431 255.213 557.721 255.306C558.019 255.39 558.295 255.511 558.547 255.67C558.808 255.829 559.037 256.025 559.233 256.258L558.687 256.986L558.603 257.098L558.519 257.042C558.509 256.967 558.491 256.893 558.463 256.818C558.435 256.743 558.369 256.65 558.267 256.538C558.043 256.323 557.805 256.179 557.553 256.104C557.301 256.02 557.002 255.978 556.657 255.978C556.423 255.978 556.213 256.011 556.027 256.076C555.849 256.141 555.695 256.235 555.565 256.356C555.434 256.477 555.331 256.617 555.257 256.776C555.191 256.925 555.159 257.084 555.159 257.252C555.159 257.411 555.177 257.555 555.215 257.686C555.252 257.817 555.317 257.943 555.411 258.064C555.504 258.185 555.63 258.307 555.789 258.428C555.957 258.549 556.162 258.671 556.405 258.792C556.657 258.913 556.96 259.044 557.315 259.184C557.744 259.361 558.099 259.539 558.379 259.716C558.668 259.884 558.892 260.066 559.051 260.262C559.219 260.449 559.335 260.654 559.401 260.878C559.475 261.102 559.513 261.349 559.513 261.62C559.513 262.021 559.41 262.418 559.205 262.81C559.009 263.193 558.696 263.51 558.267 263.762C557.837 264.014 557.282 264.14 556.601 264.14ZM563.097 264.154C562.369 264.154 561.809 263.991 561.417 263.664C561.025 263.328 560.829 262.903 560.829 262.39C560.829 262.045 560.913 261.737 561.081 261.466C561.249 261.186 561.477 260.953 561.767 260.766C562.065 260.57 562.411 260.421 562.803 260.318C563.195 260.215 563.61 260.164 564.049 260.164C564.207 260.164 564.366 260.169 564.525 260.178C564.693 260.178 564.865 260.187 565.043 260.206C565.229 260.215 565.421 260.234 565.617 260.262L565.645 261.032C565.477 261.004 565.304 260.985 565.127 260.976C564.959 260.957 564.791 260.943 564.623 260.934C564.455 260.925 564.291 260.92 564.133 260.92C563.797 260.92 563.489 260.948 563.209 261.004C562.929 261.06 562.686 261.144 562.481 261.256C562.275 261.368 562.117 261.513 562.005 261.69C561.893 261.867 561.837 262.082 561.837 262.334C561.837 262.53 561.869 262.698 561.935 262.838C562.009 262.969 562.107 263.076 562.229 263.16C562.35 263.235 562.49 263.291 562.649 263.328C562.817 263.365 562.999 263.384 563.195 263.384C563.559 263.384 563.881 263.328 564.161 263.216C564.45 263.095 564.693 262.922 564.889 262.698C565.094 262.474 565.248 262.199 565.351 261.872C565.453 261.545 565.505 261.172 565.505 260.752C565.505 260.117 565.43 259.623 565.281 259.268C565.131 258.913 564.907 258.661 564.609 258.512C564.319 258.363 563.946 258.288 563.489 258.288C563.181 258.288 562.877 258.349 562.579 258.47C562.28 258.582 562.009 258.759 561.767 259.002L561.277 258.358C561.575 258.059 561.921 257.835 562.313 257.686C562.705 257.537 563.12 257.462 563.559 257.462C563.979 257.462 564.361 257.513 564.707 257.616C565.052 257.719 565.346 257.891 565.589 258.134C565.841 258.367 566.032 258.685 566.163 259.086C566.303 259.487 566.373 259.991 566.373 260.598V264H565.281V263.02C565.159 263.253 565.01 263.445 564.833 263.594C564.665 263.743 564.483 263.86 564.287 263.944C564.091 264.019 563.89 264.07 563.685 264.098C563.479 264.135 563.283 264.154 563.097 264.154ZM570.097 264.154C569.369 264.154 568.809 263.991 568.417 263.664C568.025 263.328 567.829 262.903 567.829 262.39C567.829 262.045 567.913 261.737 568.081 261.466C568.249 261.186 568.477 260.953 568.767 260.766C569.065 260.57 569.411 260.421 569.803 260.318C570.195 260.215 570.61 260.164 571.049 260.164C571.207 260.164 571.366 260.169 571.525 260.178C571.693 260.178 571.865 260.187 572.043 260.206C572.229 260.215 572.421 260.234 572.617 260.262L572.645 261.032C572.477 261.004 572.304 260.985 572.127 260.976C571.959 260.957 571.791 260.943 571.623 260.934C571.455 260.925 571.291 260.92 571.133 260.92C570.797 260.92 570.489 260.948 570.209 261.004C569.929 261.06 569.686 261.144 569.481 261.256C569.275 261.368 569.117 261.513 569.005 261.69C568.893 261.867 568.837 262.082 568.837 262.334C568.837 262.53 568.869 262.698 568.935 262.838C569.009 262.969 569.107 263.076 569.229 263.16C569.35 263.235 569.49 263.291 569.649 263.328C569.817 263.365 569.999 263.384 570.195 263.384C570.559 263.384 570.881 263.328 571.161 263.216C571.45 263.095 571.693 262.922 571.889 262.698C572.094 262.474 572.248 262.199 572.351 261.872C572.453 261.545 572.505 261.172 572.505 260.752C572.505 260.117 572.43 259.623 572.281 259.268C572.131 258.913 571.907 258.661 571.609 258.512C571.319 258.363 570.946 258.288 570.489 258.288C570.181 258.288 569.877 258.349 569.579 258.47C569.28 258.582 569.009 258.759 568.767 259.002L568.277 258.358C568.575 258.059 568.921 257.835 569.313 257.686C569.705 257.537 570.12 257.462 570.559 257.462C570.979 257.462 571.361 257.513 571.707 257.616C572.052 257.719 572.346 257.891 572.589 258.134C572.841 258.367 573.032 258.685 573.163 259.086C573.303 259.487 573.373 259.991 573.373 260.598V264H572.281V263.02C572.159 263.253 572.01 263.445 571.833 263.594C571.665 263.743 571.483 263.86 571.287 263.944C571.091 264.019 570.89 264.07 570.685 264.098C570.479 264.135 570.283 264.154 570.097 264.154ZM577.601 264.14C577.031 264.14 576.518 264.047 576.061 263.86C575.613 263.673 575.216 263.398 574.871 263.034L575.375 262.152L575.431 262.026L575.529 262.082C575.547 262.147 575.571 262.222 575.599 262.306C575.627 262.381 575.692 262.474 575.795 262.586C576.037 262.791 576.317 262.955 576.635 263.076C576.961 263.197 577.33 263.258 577.741 263.258C578.002 263.258 578.24 263.221 578.455 263.146C578.679 263.062 578.87 262.955 579.029 262.824C579.197 262.684 579.323 262.525 579.407 262.348C579.5 262.161 579.547 261.965 579.547 261.76C579.547 261.601 579.528 261.457 579.491 261.326C579.463 261.195 579.402 261.079 579.309 260.976C579.225 260.864 579.108 260.757 578.959 260.654C578.809 260.542 578.618 260.425 578.385 260.304C578.151 260.183 577.871 260.052 577.545 259.912C576.938 259.679 576.457 259.427 576.103 259.156C575.757 258.876 575.51 258.582 575.361 258.274C575.221 257.966 575.151 257.649 575.151 257.322C575.151 256.893 575.258 256.519 575.473 256.202C575.687 255.875 575.991 255.623 576.383 255.446C576.784 255.259 577.26 255.166 577.811 255.166C578.128 255.166 578.431 255.213 578.721 255.306C579.019 255.39 579.295 255.511 579.547 255.67C579.808 255.829 580.037 256.025 580.233 256.258L579.687 256.986L579.603 257.098L579.519 257.042C579.509 256.967 579.491 256.893 579.463 256.818C579.435 256.743 579.369 256.65 579.267 256.538C579.043 256.323 578.805 256.179 578.553 256.104C578.301 256.02 578.002 255.978 577.657 255.978C577.423 255.978 577.213 256.011 577.027 256.076C576.849 256.141 576.695 256.235 576.565 256.356C576.434 256.477 576.331 256.617 576.257 256.776C576.191 256.925 576.159 257.084 576.159 257.252C576.159 257.411 576.177 257.555 576.215 257.686C576.252 257.817 576.317 257.943 576.411 258.064C576.504 258.185 576.63 258.307 576.789 258.428C576.957 258.549 577.162 258.671 577.405 258.792C577.657 258.913 577.96 259.044 578.315 259.184C578.744 259.361 579.099 259.539 579.379 259.716C579.668 259.884 579.892 260.066 580.051 260.262C580.219 260.449 580.335 260.654 580.401 260.878C580.475 261.102 580.513 261.349 580.513 261.62C580.513 262.021 580.41 262.418 580.205 262.81C580.009 263.193 579.696 263.51 579.267 263.762C578.837 264.014 578.282 264.14 577.601 264.14ZM582.865 264.588L582.039 264.182L586.421 254.69L587.261 255.124L582.865 264.588ZM593.141 261.452H589.977L590.173 260.696H592.917L593.141 261.452ZM591.629 257.364L589.333 264H588.367L591.587 255.124H591.699L594.919 264H593.911L591.629 257.364ZM595.969 264V255.278H598.769C599.422 255.278 599.949 255.39 600.351 255.614C600.752 255.838 601.046 256.137 601.233 256.51C601.429 256.874 601.527 257.285 601.527 257.742C601.527 258.078 601.475 258.391 601.373 258.68C601.27 258.969 601.107 259.226 600.883 259.45C600.668 259.674 600.393 259.847 600.057 259.968C599.721 260.089 599.315 260.15 598.839 260.15H596.977V264H595.969ZM596.977 259.282H598.727C599.156 259.282 599.501 259.221 599.763 259.1C600.024 258.969 600.215 258.792 600.337 258.568C600.458 258.335 600.519 258.069 600.519 257.77C600.519 257.481 600.458 257.219 600.337 256.986C600.215 256.753 600.024 256.566 599.763 256.426C599.501 256.277 599.161 256.202 598.741 256.202H596.977V259.282ZM603.277 264V263.174H604.999V256.104H603.375V255.278H607.701V256.104H605.979V263.188H607.785V264H603.277Z" fill="black"/>
<rect x="523.5" y="177.5" width="115" height="29" rx="14.5" fill="#B0F2FF" stroke="black"/>
<path d="M540.404 196L539.204 188.524H539.984L540.788 193.576L541.988 189.076H542.252L543.464 193.6L544.148 188.524H544.856L543.668 196H543.344L542.06 191.116L540.752 196H540.404ZM547.532 196.132C546.908 196.132 546.428 195.992 546.092 195.712C545.756 195.424 545.588 195.06 545.588 194.62C545.588 194.324 545.66 194.06 545.804 193.828C545.948 193.588 546.144 193.388 546.392 193.228C546.648 193.06 546.944 192.932 547.28 192.844C547.616 192.756 547.972 192.712 548.348 192.712C548.484 192.712 548.62 192.716 548.756 192.724C548.9 192.724 549.048 192.732 549.2 192.748C549.36 192.756 549.524 192.772 549.692 192.796L549.716 193.456C549.572 193.432 549.424 193.416 549.272 193.408C549.128 193.392 548.984 193.38 548.84 193.372C548.696 193.364 548.556 193.36 548.42 193.36C548.132 193.36 547.868 193.384 547.628 193.432C547.388 193.48 547.18 193.552 547.004 193.648C546.828 193.744 546.692 193.868 546.596 194.02C546.5 194.172 546.452 194.356 546.452 194.572C546.452 194.74 546.48 194.884 546.536 195.004C546.6 195.116 546.684 195.208 546.788 195.28C546.892 195.344 547.012 195.392 547.148 195.424C547.292 195.456 547.448 195.472 547.616 195.472C547.928 195.472 548.204 195.424 548.444 195.328C548.692 195.224 548.9 195.076 549.068 194.884C549.244 194.692 549.376 194.456 549.464 194.176C549.552 193.896 549.596 193.576 549.596 193.216C549.596 192.672 549.532 192.248 549.404 191.944C549.276 191.64 549.084 191.424 548.828 191.296C548.58 191.168 548.26 191.104 547.868 191.104C547.604 191.104 547.344 191.156 547.088 191.26C546.832 191.356 546.6 191.508 546.392 191.716L545.972 191.164C546.228 190.908 546.524 190.716 546.86 190.588C547.196 190.46 547.552 190.396 547.928 190.396C548.288 190.396 548.616 190.44 548.912 190.528C549.208 190.616 549.46 190.764 549.668 190.972C549.884 191.172 550.048 191.444 550.16 191.788C550.28 192.132 550.34 192.564 550.34 193.084V196H549.404V195.16C549.3 195.36 549.172 195.524 549.02 195.652C548.876 195.78 548.72 195.88 548.552 195.952C548.384 196.016 548.212 196.06 548.036 196.084C547.86 196.116 547.692 196.132 547.532 196.132ZM552.428 190.516H553.328L553.292 192.112L553.184 191.932C553.232 191.684 553.316 191.464 553.436 191.272C553.556 191.08 553.7 190.92 553.868 190.792C554.036 190.656 554.22 190.556 554.42 190.492C554.62 190.42 554.828 190.384 555.044 190.384C555.332 190.384 555.596 190.436 555.836 190.54C556.084 190.636 556.304 190.784 556.496 190.984L556.112 191.656L556.064 191.764L555.98 191.716C555.964 191.652 555.94 191.592 555.908 191.536C555.876 191.48 555.808 191.412 555.704 191.332C555.576 191.252 555.456 191.2 555.344 191.176C555.24 191.144 555.12 191.128 554.984 191.128C554.784 191.128 554.584 191.168 554.384 191.248C554.184 191.32 554 191.436 553.832 191.596C553.672 191.756 553.544 191.96 553.448 192.208C553.352 192.456 553.304 192.752 553.304 193.096V196.012H552.428V190.516ZM560.264 196.12C559.864 196.12 559.5 196.06 559.172 195.94C558.844 195.812 558.56 195.628 558.32 195.388C558.088 195.148 557.908 194.852 557.78 194.5C557.652 194.14 557.588 193.732 557.588 193.276C557.588 192.812 557.652 192.4 557.78 192.04C557.916 191.68 558.096 191.38 558.32 191.14C558.552 190.892 558.82 190.704 559.124 190.576C559.436 190.448 559.764 190.384 560.108 190.384C560.42 190.384 560.712 190.436 560.984 190.54C561.256 190.644 561.492 190.804 561.692 191.02C561.892 191.228 562.048 191.496 562.16 191.824C562.28 192.152 562.34 192.54 562.34 192.988C562.34 193.052 562.336 193.12 562.328 193.192C562.328 193.256 562.324 193.32 562.316 193.384H558.416C558.432 193.736 558.492 194.044 558.596 194.308C558.7 194.564 558.836 194.776 559.004 194.944C559.172 195.104 559.364 195.224 559.58 195.304C559.804 195.384 560.04 195.424 560.288 195.424C560.48 195.424 560.66 195.404 560.828 195.364C560.996 195.316 561.152 195.248 561.296 195.16C561.448 195.064 561.584 194.948 561.704 194.812L562.184 195.28C562.032 195.464 561.856 195.62 561.656 195.748C561.464 195.876 561.252 195.968 561.02 196.024C560.788 196.088 560.536 196.12 560.264 196.12ZM558.452 192.712H561.464C561.464 192.456 561.428 192.228 561.356 192.028C561.292 191.82 561.196 191.644 561.068 191.5C560.948 191.348 560.8 191.236 560.624 191.164C560.456 191.084 560.264 191.044 560.048 191.044C559.856 191.044 559.672 191.076 559.496 191.14C559.328 191.204 559.172 191.308 559.028 191.452C558.884 191.588 558.76 191.76 558.656 191.968C558.56 192.176 558.492 192.424 558.452 192.712ZM563.876 188.02H564.704H564.824V188.104C564.776 188.152 564.744 188.204 564.728 188.26C564.72 188.316 564.716 188.412 564.716 188.548V191.488C564.86 191.264 565.028 191.072 565.22 190.912C565.42 190.744 565.628 190.616 565.844 190.528C566.068 190.432 566.292 190.384 566.516 190.384C566.844 190.384 567.132 190.46 567.38 190.612C567.636 190.764 567.832 191.008 567.968 191.344C568.112 191.68 568.184 192.124 568.184 192.676V196H567.344V192.7C567.344 192.316 567.3 192.012 567.212 191.788C567.124 191.556 567.004 191.392 566.852 191.296C566.7 191.192 566.528 191.14 566.336 191.14C566.192 191.14 566.044 191.164 565.892 191.212C565.74 191.26 565.592 191.332 565.448 191.428C565.312 191.524 565.188 191.644 565.076 191.788C564.964 191.924 564.876 192.08 564.812 192.256C564.748 192.432 564.716 192.628 564.716 192.844V196H563.876V188.02ZM572 196.096C571.504 196.096 571.064 195.976 570.68 195.736C570.304 195.488 570.008 195.152 569.792 194.728C569.576 194.296 569.468 193.804 569.468 193.252C569.468 192.692 569.576 192.2 569.792 191.776C570.008 191.344 570.304 191.008 570.68 190.768C571.064 190.52 571.504 190.396 572 190.396C572.496 190.396 572.932 190.52 573.308 190.768C573.692 191.008 573.992 191.344 574.208 191.776C574.424 192.2 574.532 192.692 574.532 193.252C574.532 193.804 574.424 194.296 574.208 194.728C573.992 195.152 573.692 195.488 573.308 195.736C572.932 195.976 572.496 196.096 572 196.096ZM572 195.376C572.32 195.376 572.6 195.284 572.84 195.1C573.08 194.916 573.268 194.664 573.404 194.344C573.548 194.024 573.62 193.656 573.62 193.24C573.62 192.824 573.548 192.456 573.404 192.136C573.268 191.816 573.08 191.568 572.84 191.392C572.6 191.208 572.32 191.116 572 191.116C571.688 191.116 571.408 191.208 571.16 191.392C570.92 191.568 570.728 191.816 570.584 192.136C570.448 192.456 570.38 192.824 570.38 193.24C570.38 193.656 570.448 194.024 570.584 194.344C570.728 194.664 570.92 194.916 571.16 195.1C571.408 195.284 571.688 195.376 572 195.376ZM577.652 196.132C577.436 196.132 577.232 196.1 577.04 196.036C576.848 195.972 576.672 195.876 576.512 195.748C576.36 195.612 576.228 195.444 576.116 195.244C576.004 195.044 575.916 194.804 575.852 194.524C575.796 194.244 575.768 193.928 575.768 193.576L575.78 190.516H576.62V193.576C576.62 193.92 576.652 194.212 576.716 194.452C576.78 194.692 576.868 194.884 576.98 195.028C577.1 195.172 577.236 195.276 577.388 195.34C577.54 195.404 577.7 195.436 577.868 195.436C578.06 195.436 578.244 195.4 578.42 195.328C578.596 195.248 578.752 195.132 578.888 194.98C579.032 194.828 579.144 194.632 579.224 194.392C579.304 194.152 579.344 193.868 579.344 193.54V190.516H580.184V195.148C580.184 195.292 580.188 195.436 580.196 195.58C580.212 195.716 580.248 195.856 580.304 196H579.476C579.436 195.904 579.408 195.812 579.392 195.724C579.376 195.628 579.364 195.532 579.356 195.436C579.356 195.34 579.356 195.248 579.356 195.16C579.268 195.312 579.164 195.448 579.044 195.568C578.924 195.688 578.788 195.792 578.636 195.88C578.492 195.96 578.336 196.02 578.168 196.06C578.008 196.108 577.836 196.132 577.652 196.132ZM584.012 196.12C583.708 196.12 583.416 196.088 583.136 196.024C582.864 195.96 582.604 195.864 582.356 195.736C582.116 195.608 581.892 195.448 581.684 195.256L582.164 194.44L582.236 194.332L582.308 194.38C582.324 194.444 582.34 194.512 582.356 194.584C582.38 194.648 582.436 194.728 582.524 194.824C582.692 194.992 582.892 195.132 583.124 195.244C583.364 195.348 583.668 195.4 584.036 195.4C584.332 195.4 584.58 195.364 584.78 195.292C584.988 195.22 585.148 195.12 585.26 194.992C585.372 194.856 585.428 194.7 585.428 194.524C585.428 194.404 585.404 194.3 585.356 194.212C585.308 194.116 585.228 194.028 585.116 193.948C585.012 193.868 584.872 193.788 584.696 193.708C584.52 193.628 584.304 193.548 584.048 193.468C583.632 193.348 583.268 193.208 582.956 193.048C582.644 192.888 582.404 192.704 582.236 192.496C582.068 192.28 581.984 192.036 581.984 191.764C581.984 191.484 582.06 191.244 582.212 191.044C582.364 190.836 582.588 190.676 582.884 190.564C583.188 190.444 583.56 190.384 584 190.384C584.256 190.384 584.488 190.404 584.696 190.444C584.904 190.476 585.096 190.528 585.272 190.6C585.448 190.672 585.608 190.764 585.752 190.876C585.904 190.98 586.048 191.104 586.184 191.248L585.692 191.848L585.608 191.944L585.548 191.884C585.54 191.82 585.52 191.76 585.488 191.704C585.464 191.64 585.408 191.564 585.32 191.476C585.136 191.332 584.928 191.224 584.696 191.152C584.464 191.072 584.24 191.032 584.024 191.032C583.704 191.032 583.428 191.088 583.196 191.2C582.964 191.312 582.848 191.484 582.848 191.716C582.848 191.836 582.888 191.956 582.968 192.076C583.056 192.188 583.212 192.304 583.436 192.424C583.66 192.536 583.98 192.652 584.396 192.772C584.852 192.916 585.216 193.064 585.488 193.216C585.768 193.36 585.968 193.528 586.088 193.72C586.216 193.912 586.28 194.14 586.28 194.404C586.28 194.708 586.196 194.992 586.028 195.256C585.868 195.52 585.62 195.732 585.284 195.892C584.948 196.044 584.524 196.12 584.012 196.12ZM590.264 196.12C589.864 196.12 589.5 196.06 589.172 195.94C588.844 195.812 588.56 195.628 588.32 195.388C588.088 195.148 587.908 194.852 587.78 194.5C587.652 194.14 587.588 193.732 587.588 193.276C587.588 192.812 587.652 192.4 587.78 192.04C587.916 191.68 588.096 191.38 588.32 191.14C588.552 190.892 588.82 190.704 589.124 190.576C589.436 190.448 589.764 190.384 590.108 190.384C590.42 190.384 590.712 190.436 590.984 190.54C591.256 190.644 591.492 190.804 591.692 191.02C591.892 191.228 592.048 191.496 592.16 191.824C592.28 192.152 592.34 192.54 592.34 192.988C592.34 193.052 592.336 193.12 592.328 193.192C592.328 193.256 592.324 193.32 592.316 193.384H588.416C588.432 193.736 588.492 194.044 588.596 194.308C588.7 194.564 588.836 194.776 589.004 194.944C589.172 195.104 589.364 195.224 589.58 195.304C589.804 195.384 590.04 195.424 590.288 195.424C590.48 195.424 590.66 195.404 590.828 195.364C590.996 195.316 591.152 195.248 591.296 195.16C591.448 195.064 591.584 194.948 591.704 194.812L592.184 195.28C592.032 195.464 591.856 195.62 591.656 195.748C591.464 195.876 591.252 195.968 591.02 196.024C590.788 196.088 590.536 196.12 590.264 196.12ZM588.452 192.712H591.464C591.464 192.456 591.428 192.228 591.356 192.028C591.292 191.82 591.196 191.644 591.068 191.5C590.948 191.348 590.8 191.236 590.624 191.164C590.456 191.084 590.264 191.044 590.048 191.044C589.856 191.044 589.672 191.076 589.496 191.14C589.328 191.204 589.172 191.308 589.028 191.452C588.884 191.588 588.76 191.76 588.656 191.968C588.56 192.176 588.492 192.424 588.452 192.712ZM594.476 196.504L593.768 196.156L597.524 188.02L598.244 188.392L594.476 196.504ZM599.792 188.524H600.656H600.776V188.608C600.728 188.656 600.696 188.708 600.68 188.764C600.672 188.82 600.668 188.916 600.668 189.052V195.28H604.268V196H599.792V188.524ZM607.532 196.132C606.908 196.132 606.428 195.992 606.092 195.712C605.756 195.424 605.588 195.06 605.588 194.62C605.588 194.324 605.66 194.06 605.804 193.828C605.948 193.588 606.144 193.388 606.392 193.228C606.648 193.06 606.944 192.932 607.28 192.844C607.616 192.756 607.972 192.712 608.348 192.712C608.484 192.712 608.62 192.716 608.756 192.724C608.9 192.724 609.048 192.732 609.2 192.748C609.36 192.756 609.524 192.772 609.692 192.796L609.716 193.456C609.572 193.432 609.424 193.416 609.272 193.408C609.128 193.392 608.984 193.38 608.84 193.372C608.696 193.364 608.556 193.36 608.42 193.36C608.132 193.36 607.868 193.384 607.628 193.432C607.388 193.48 607.18 193.552 607.004 193.648C606.828 193.744 606.692 193.868 606.596 194.02C606.5 194.172 606.452 194.356 606.452 194.572C606.452 194.74 606.48 194.884 606.536 195.004C606.6 195.116 606.684 195.208 606.788 195.28C606.892 195.344 607.012 195.392 607.148 195.424C607.292 195.456 607.448 195.472 607.616 195.472C607.928 195.472 608.204 195.424 608.444 195.328C608.692 195.224 608.9 195.076 609.068 194.884C609.244 194.692 609.376 194.456 609.464 194.176C609.552 193.896 609.596 193.576 609.596 193.216C609.596 192.672 609.532 192.248 609.404 191.944C609.276 191.64 609.084 191.424 608.828 191.296C608.58 191.168 608.26 191.104 607.868 191.104C607.604 191.104 607.344 191.156 607.088 191.26C606.832 191.356 606.6 191.508 606.392 191.716L605.972 191.164C606.228 190.908 606.524 190.716 606.86 190.588C607.196 190.46 607.552 190.396 607.928 190.396C608.288 190.396 608.616 190.44 608.912 190.528C609.208 190.616 609.46 190.764 609.668 190.972C609.884 191.172 610.048 191.444 610.16 191.788C610.28 192.132 610.34 192.564 610.34 193.084V196H609.404V195.16C609.3 195.36 609.172 195.524 609.02 195.652C608.876 195.78 608.72 195.88 608.552 195.952C608.384 196.016 608.212 196.06 608.036 196.084C607.86 196.116 607.692 196.132 607.532 196.132ZM613.388 193.252L612.668 193.924V196H611.792V188.02H612.656H612.776V188.104C612.728 188.152 612.696 188.204 612.68 188.26C612.672 188.316 612.668 188.412 612.668 188.548V193.036L615.416 190.492C615.464 190.5 615.512 190.508 615.56 190.516C615.608 190.524 615.656 190.532 615.704 190.54C615.76 190.54 615.816 190.544 615.872 190.552C615.936 190.552 615.996 190.552 616.052 190.552H616.364L614.06 192.724L616.748 196L615.632 196.048L613.388 193.252ZM620.264 196.12C619.864 196.12 619.5 196.06 619.172 195.94C618.844 195.812 618.56 195.628 618.32 195.388C618.088 195.148 617.908 194.852 617.78 194.5C617.652 194.14 617.588 193.732 617.588 193.276C617.588 192.812 617.652 192.4 617.78 192.04C617.916 191.68 618.096 191.38 618.32 191.14C618.552 190.892 618.82 190.704 619.124 190.576C619.436 190.448 619.764 190.384 620.108 190.384C620.42 190.384 620.712 190.436 620.984 190.54C621.256 190.644 621.492 190.804 621.692 191.02C621.892 191.228 622.048 191.496 622.16 191.824C622.28 192.152 622.34 192.54 622.34 192.988C622.34 193.052 622.336 193.12 622.328 193.192C622.328 193.256 622.324 193.32 622.316 193.384H618.416C618.432 193.736 618.492 194.044 618.596 194.308C618.7 194.564 618.836 194.776 619.004 194.944C619.172 195.104 619.364 195.224 619.58 195.304C619.804 195.384 620.04 195.424 620.288 195.424C620.48 195.424 620.66 195.404 620.828 195.364C620.996 195.316 621.152 195.248 621.296 195.16C621.448 195.064 621.584 194.948 621.704 194.812L622.184 195.28C622.032 195.464 621.856 195.62 621.656 195.748C621.464 195.876 621.252 195.968 621.02 196.024C620.788 196.088 620.536 196.12 620.264 196.12ZM618.452 192.712H621.464C621.464 192.456 621.428 192.228 621.356 192.028C621.292 191.82 621.196 191.644 621.068 191.5C620.948 191.348 620.8 191.236 620.624 191.164C620.456 191.084 620.264 191.044 620.048 191.044C619.856 191.044 619.672 191.076 619.496 191.14C619.328 191.204 619.172 191.308 619.028 191.452C618.884 191.588 618.76 191.76 618.656 191.968C618.56 192.176 618.492 192.424 618.452 192.712Z" fill="black"/>
<rect x="57.5" y="281.5" width="115" height="29" rx="14.5" fill="#B0F2FF" stroke="black"/>
<path d="M103.614 302.03C103.157 302.049 102.769 302.025 102.452 301.96C102.144 301.904 101.892 301.797 101.696 301.638C101.509 301.479 101.374 301.274 101.29 301.022C101.206 300.77 101.164 300.462 101.164 300.098C100.697 300.033 100.254 299.832 99.834 299.496C99.414 299.16 99.0687 298.675 98.798 298.04C98.5367 297.405 98.406 296.621 98.406 295.688C98.406 294.82 98.504 294.097 98.7 293.518C98.896 292.93 99.1527 292.468 99.47 292.132C99.7873 291.787 100.123 291.544 100.478 291.404C100.842 291.255 101.187 291.18 101.514 291.18C101.906 291.18 102.289 291.269 102.662 291.446C103.045 291.614 103.381 291.88 103.67 292.244C103.969 292.599 104.202 293.061 104.37 293.63C104.538 294.19 104.613 294.862 104.594 295.646C104.594 296.29 104.538 296.869 104.426 297.382C104.323 297.886 104.16 298.325 103.936 298.698C103.721 299.071 103.451 299.375 103.124 299.608C102.807 299.841 102.438 300.005 102.018 300.098C102.037 300.303 102.074 300.485 102.13 300.644C102.195 300.803 102.298 300.924 102.438 301.008C102.587 301.101 102.793 301.148 103.054 301.148L104.188 301.078L104.16 302.03H103.614ZM101.584 299.23C101.827 299.23 102.069 299.174 102.312 299.062C102.555 298.941 102.774 298.749 102.97 298.488C103.175 298.217 103.339 297.872 103.46 297.452C103.591 297.023 103.656 296.5 103.656 295.884C103.656 295.1 103.586 294.461 103.446 293.966C103.315 293.462 103.138 293.07 102.914 292.79C102.699 292.51 102.466 292.314 102.214 292.202C101.971 292.09 101.738 292.034 101.514 292.034C101.15 292.034 100.833 292.132 100.562 292.328C100.291 292.515 100.067 292.771 99.89 293.098C99.7127 293.415 99.5773 293.779 99.484 294.19C99.4 294.601 99.358 295.03 99.358 295.478C99.358 296.215 99.4467 296.869 99.624 297.438C99.8013 297.998 100.053 298.437 100.38 298.754C100.716 299.071 101.117 299.23 101.584 299.23ZM108.094 300.154C107.842 300.154 107.604 300.117 107.38 300.042C107.156 299.967 106.951 299.855 106.764 299.706C106.587 299.547 106.433 299.351 106.302 299.118C106.171 298.885 106.069 298.605 105.994 298.278C105.929 297.951 105.896 297.583 105.896 297.172L105.91 293.602H106.89V297.172C106.89 297.573 106.927 297.914 107.002 298.194C107.077 298.474 107.179 298.698 107.31 298.866C107.45 299.034 107.609 299.155 107.786 299.23C107.963 299.305 108.15 299.342 108.346 299.342C108.57 299.342 108.785 299.3 108.99 299.216C109.195 299.123 109.377 298.987 109.536 298.81C109.704 298.633 109.835 298.404 109.928 298.124C110.021 297.844 110.068 297.513 110.068 297.13V293.602H111.048V299.006C111.048 299.174 111.053 299.342 111.062 299.51C111.081 299.669 111.123 299.832 111.188 300H110.222C110.175 299.888 110.143 299.781 110.124 299.678C110.105 299.566 110.091 299.454 110.082 299.342C110.082 299.23 110.082 299.123 110.082 299.02C109.979 299.197 109.858 299.356 109.718 299.496C109.578 299.636 109.419 299.757 109.242 299.86C109.074 299.953 108.892 300.023 108.696 300.07C108.509 300.126 108.309 300.154 108.094 300.154ZM115.808 300.14C115.341 300.14 114.917 300.07 114.534 299.93C114.151 299.781 113.82 299.566 113.54 299.286C113.269 299.006 113.059 298.661 112.91 298.25C112.761 297.83 112.686 297.354 112.686 296.822C112.686 296.281 112.761 295.8 112.91 295.38C113.069 294.96 113.279 294.61 113.54 294.33C113.811 294.041 114.123 293.821 114.478 293.672C114.842 293.523 115.225 293.448 115.626 293.448C115.99 293.448 116.331 293.509 116.648 293.63C116.965 293.751 117.241 293.938 117.474 294.19C117.707 294.433 117.889 294.745 118.02 295.128C118.16 295.511 118.23 295.963 118.23 296.486C118.23 296.561 118.225 296.64 118.216 296.724C118.216 296.799 118.211 296.873 118.202 296.948H113.652C113.671 297.359 113.741 297.718 113.862 298.026C113.983 298.325 114.142 298.572 114.338 298.768C114.534 298.955 114.758 299.095 115.01 299.188C115.271 299.281 115.547 299.328 115.836 299.328C116.06 299.328 116.27 299.305 116.466 299.258C116.662 299.202 116.844 299.123 117.012 299.02C117.189 298.908 117.348 298.773 117.488 298.614L118.048 299.16C117.871 299.375 117.665 299.557 117.432 299.706C117.208 299.855 116.961 299.963 116.69 300.028C116.419 300.103 116.125 300.14 115.808 300.14ZM113.694 296.164H117.208C117.208 295.865 117.166 295.599 117.082 295.366C117.007 295.123 116.895 294.918 116.746 294.75C116.606 294.573 116.433 294.442 116.228 294.358C116.032 294.265 115.808 294.218 115.556 294.218C115.332 294.218 115.117 294.255 114.912 294.33C114.716 294.405 114.534 294.526 114.366 294.694C114.198 294.853 114.053 295.053 113.932 295.296C113.82 295.539 113.741 295.828 113.694 296.164ZM122.094 300.154C121.842 300.154 121.604 300.117 121.38 300.042C121.156 299.967 120.951 299.855 120.764 299.706C120.587 299.547 120.433 299.351 120.302 299.118C120.171 298.885 120.069 298.605 119.994 298.278C119.929 297.951 119.896 297.583 119.896 297.172L119.91 293.602H120.89V297.172C120.89 297.573 120.927 297.914 121.002 298.194C121.077 298.474 121.179 298.698 121.31 298.866C121.45 299.034 121.609 299.155 121.786 299.23C121.963 299.305 122.15 299.342 122.346 299.342C122.57 299.342 122.785 299.3 122.99 299.216C123.195 299.123 123.377 298.987 123.536 298.81C123.704 298.633 123.835 298.404 123.928 298.124C124.021 297.844 124.068 297.513 124.068 297.13V293.602H125.048V299.006C125.048 299.174 125.053 299.342 125.062 299.51C125.081 299.669 125.123 299.832 125.188 300H124.222C124.175 299.888 124.143 299.781 124.124 299.678C124.105 299.566 124.091 299.454 124.082 299.342C124.082 299.23 124.082 299.123 124.082 299.02C123.979 299.197 123.858 299.356 123.718 299.496C123.578 299.636 123.419 299.757 123.242 299.86C123.074 299.953 122.892 300.023 122.696 300.07C122.509 300.126 122.309 300.154 122.094 300.154ZM129.808 300.14C129.341 300.14 128.917 300.07 128.534 299.93C128.151 299.781 127.82 299.566 127.54 299.286C127.269 299.006 127.059 298.661 126.91 298.25C126.761 297.83 126.686 297.354 126.686 296.822C126.686 296.281 126.761 295.8 126.91 295.38C127.069 294.96 127.279 294.61 127.54 294.33C127.811 294.041 128.123 293.821 128.478 293.672C128.842 293.523 129.225 293.448 129.626 293.448C129.99 293.448 130.331 293.509 130.648 293.63C130.965 293.751 131.241 293.938 131.474 294.19C131.707 294.433 131.889 294.745 132.02 295.128C132.16 295.511 132.23 295.963 132.23 296.486C132.23 296.561 132.225 296.64 132.216 296.724C132.216 296.799 132.211 296.873 132.202 296.948H127.652C127.671 297.359 127.741 297.718 127.862 298.026C127.983 298.325 128.142 298.572 128.338 298.768C128.534 298.955 128.758 299.095 129.01 299.188C129.271 299.281 129.547 299.328 129.836 299.328C130.06 299.328 130.27 299.305 130.466 299.258C130.662 299.202 130.844 299.123 131.012 299.02C131.189 298.908 131.348 298.773 131.488 298.614L132.048 299.16C131.871 299.375 131.665 299.557 131.432 299.706C131.208 299.855 130.961 299.963 130.69 300.028C130.419 300.103 130.125 300.14 129.808 300.14ZM127.694 296.164H131.208C131.208 295.865 131.166 295.599 131.082 295.366C131.007 295.123 130.895 294.918 130.746 294.75C130.606 294.573 130.433 294.442 130.228 294.358C130.032 294.265 129.808 294.218 129.556 294.218C129.332 294.218 129.117 294.255 128.912 294.33C128.716 294.405 128.534 294.526 128.366 294.694C128.198 294.853 128.053 295.053 127.932 295.296C127.82 295.539 127.741 295.828 127.694 296.164Z" fill="black"/>
<rect x="523.643" y="313.5" width="115" height="29" rx="14.5" fill="#B0F2FF" stroke="black"/>
<path d="M569.757 334.03C569.299 334.049 568.912 334.025 568.595 333.96C568.287 333.904 568.035 333.797 567.839 333.638C567.652 333.479 567.517 333.274 567.433 333.022C567.349 332.77 567.307 332.462 567.307 332.098C566.84 332.033 566.397 331.832 565.977 331.496C565.557 331.16 565.211 330.675 564.941 330.04C564.679 329.405 564.549 328.621 564.549 327.688C564.549 326.82 564.647 326.097 564.843 325.518C565.039 324.93 565.295 324.468 565.613 324.132C565.93 323.787 566.266 323.544 566.621 323.404C566.985 323.255 567.33 323.18 567.657 323.18C568.049 323.18 568.431 323.269 568.805 323.446C569.187 323.614 569.523 323.88 569.813 324.244C570.111 324.599 570.345 325.061 570.513 325.63C570.681 326.19 570.755 326.862 570.737 327.646C570.737 328.29 570.681 328.869 570.569 329.382C570.466 329.886 570.303 330.325 570.079 330.698C569.864 331.071 569.593 331.375 569.267 331.608C568.949 331.841 568.581 332.005 568.161 332.098C568.179 332.303 568.217 332.485 568.273 332.644C568.338 332.803 568.441 332.924 568.581 333.008C568.73 333.101 568.935 333.148 569.197 333.148L570.331 333.078L570.303 334.03H569.757ZM567.727 331.23C567.969 331.23 568.212 331.174 568.455 331.062C568.697 330.941 568.917 330.749 569.113 330.488C569.318 330.217 569.481 329.872 569.603 329.452C569.733 329.023 569.799 328.5 569.799 327.884C569.799 327.1 569.729 326.461 569.589 325.966C569.458 325.462 569.281 325.07 569.057 324.79C568.842 324.51 568.609 324.314 568.357 324.202C568.114 324.09 567.881 324.034 567.657 324.034C567.293 324.034 566.975 324.132 566.705 324.328C566.434 324.515 566.21 324.771 566.033 325.098C565.855 325.415 565.72 325.779 565.627 326.19C565.543 326.601 565.501 327.03 565.501 327.478C565.501 328.215 565.589 328.869 565.767 329.438C565.944 329.998 566.196 330.437 566.523 330.754C566.859 331.071 567.26 331.23 567.727 331.23ZM574.237 332.154C573.985 332.154 573.747 332.117 573.523 332.042C573.299 331.967 573.093 331.855 572.907 331.706C572.729 331.547 572.575 331.351 572.445 331.118C572.314 330.885 572.211 330.605 572.137 330.278C572.071 329.951 572.039 329.583 572.039 329.172L572.053 325.602H573.033V329.172C573.033 329.573 573.07 329.914 573.145 330.194C573.219 330.474 573.322 330.698 573.453 330.866C573.593 331.034 573.751 331.155 573.929 331.23C574.106 331.305 574.293 331.342 574.489 331.342C574.713 331.342 574.927 331.3 575.133 331.216C575.338 331.123 575.52 330.987 575.679 330.81C575.847 330.633 575.977 330.404 576.071 330.124C576.164 329.844 576.211 329.513 576.211 329.13V325.602H577.191V331.006C577.191 331.174 577.195 331.342 577.205 331.51C577.223 331.669 577.265 331.832 577.331 332H576.365C576.318 331.888 576.285 331.781 576.267 331.678C576.248 331.566 576.234 331.454 576.225 331.342C576.225 331.23 576.225 331.123 576.225 331.02C576.122 331.197 576.001 331.356 575.861 331.496C575.721 331.636 575.562 331.757 575.385 331.86C575.217 331.953 575.035 332.023 574.839 332.07C574.652 332.126 574.451 332.154 574.237 332.154ZM581.951 332.14C581.484 332.14 581.059 332.07 580.677 331.93C580.294 331.781 579.963 331.566 579.683 331.286C579.412 331.006 579.202 330.661 579.053 330.25C578.903 329.83 578.829 329.354 578.829 328.822C578.829 328.281 578.903 327.8 579.053 327.38C579.211 326.96 579.421 326.61 579.683 326.33C579.953 326.041 580.266 325.821 580.621 325.672C580.985 325.523 581.367 325.448 581.769 325.448C582.133 325.448 582.473 325.509 582.791 325.63C583.108 325.751 583.383 325.938 583.617 326.19C583.85 326.433 584.032 326.745 584.163 327.128C584.303 327.511 584.373 327.963 584.373 328.486C584.373 328.561 584.368 328.64 584.359 328.724C584.359 328.799 584.354 328.873 584.345 328.948H579.795C579.813 329.359 579.883 329.718 580.005 330.026C580.126 330.325 580.285 330.572 580.481 330.768C580.677 330.955 580.901 331.095 581.153 331.188C581.414 331.281 581.689 331.328 581.979 331.328C582.203 331.328 582.413 331.305 582.609 331.258C582.805 331.202 582.987 331.123 583.155 331.02C583.332 330.908 583.491 330.773 583.631 330.614L584.191 331.16C584.013 331.375 583.808 331.557 583.575 331.706C583.351 331.855 583.103 331.963 582.833 332.028C582.562 332.103 582.268 332.14 581.951 332.14ZM579.837 328.164H583.351C583.351 327.865 583.309 327.599 583.225 327.366C583.15 327.123 583.038 326.918 582.889 326.75C582.749 326.573 582.576 326.442 582.371 326.358C582.175 326.265 581.951 326.218 581.699 326.218C581.475 326.218 581.26 326.255 581.055 326.33C580.859 326.405 580.677 326.526 580.509 326.694C580.341 326.853 580.196 327.053 580.075 327.296C579.963 327.539 579.883 327.828 579.837 328.164ZM588.237 332.154C587.985 332.154 587.747 332.117 587.523 332.042C587.299 331.967 587.093 331.855 586.907 331.706C586.729 331.547 586.575 331.351 586.445 331.118C586.314 330.885 586.211 330.605 586.137 330.278C586.071 329.951 586.039 329.583 586.039 329.172L586.053 325.602H587.033V329.172C587.033 329.573 587.07 329.914 587.145 330.194C587.219 330.474 587.322 330.698 587.453 330.866C587.593 331.034 587.751 331.155 587.929 331.23C588.106 331.305 588.293 331.342 588.489 331.342C588.713 331.342 588.927 331.3 589.133 331.216C589.338 331.123 589.52 330.987 589.679 330.81C589.847 330.633 589.977 330.404 590.071 330.124C590.164 329.844 590.211 329.513 590.211 329.13V325.602H591.191V331.006C591.191 331.174 591.195 331.342 591.205 331.51C591.223 331.669 591.265 331.832 591.331 332H590.365C590.318 331.888 590.285 331.781 590.267 331.678C590.248 331.566 590.234 331.454 590.225 331.342C590.225 331.23 590.225 331.123 590.225 331.02C590.122 331.197 590.001 331.356 589.861 331.496C589.721 331.636 589.562 331.757 589.385 331.86C589.217 331.953 589.035 332.023 588.839 332.07C588.652 332.126 588.451 332.154 588.237 332.154ZM595.951 332.14C595.484 332.14 595.059 332.07 594.677 331.93C594.294 331.781 593.963 331.566 593.683 331.286C593.412 331.006 593.202 330.661 593.053 330.25C592.903 329.83 592.829 329.354 592.829 328.822C592.829 328.281 592.903 327.8 593.053 327.38C593.211 326.96 593.421 326.61 593.683 326.33C593.953 326.041 594.266 325.821 594.621 325.672C594.985 325.523 595.367 325.448 595.769 325.448C596.133 325.448 596.473 325.509 596.791 325.63C597.108 325.751 597.383 325.938 597.617 326.19C597.85 326.433 598.032 326.745 598.163 327.128C598.303 327.511 598.373 327.963 598.373 328.486C598.373 328.561 598.368 328.64 598.359 328.724C598.359 328.799 598.354 328.873 598.345 328.948H593.795C593.813 329.359 593.883 329.718 594.005 330.026C594.126 330.325 594.285 330.572 594.481 330.768C594.677 330.955 594.901 331.095 595.153 331.188C595.414 331.281 595.689 331.328 595.979 331.328C596.203 331.328 596.413 331.305 596.609 331.258C596.805 331.202 596.987 331.123 597.155 331.02C597.332 330.908 597.491 330.773 597.631 330.614L598.191 331.16C598.013 331.375 597.808 331.557 597.575 331.706C597.351 331.855 597.103 331.963 596.833 332.028C596.562 332.103 596.268 332.14 595.951 332.14ZM593.837 328.164H597.351C597.351 327.865 597.309 327.599 597.225 327.366C597.15 327.123 597.038 326.918 596.889 326.75C596.749 326.573 596.576 326.442 596.371 326.358C596.175 326.265 595.951 326.218 595.699 326.218C595.475 326.218 595.26 326.255 595.055 326.33C594.859 326.405 594.677 326.526 594.509 326.694C594.341 326.853 594.196 327.053 594.075 327.296C593.963 327.539 593.883 327.828 593.837 328.164Z" fill="black"/>
<g opacity="0.2">
<path d="M184.365 90.677C184.365 92.1498 185.559 93.3437 187.032 93.3437C188.504 93.3437 189.698 92.1498 189.698 90.677C189.698 89.2042 188.504 88.0103 187.032 88.0103C185.559 88.0103 184.365 89.2042 184.365 90.677ZM187.032 91.177C219.685 91.177 237.085 116.28 250.115 141.654C253.369 147.99 256.341 154.324 259.211 160.277C262.078 166.224 264.844 171.792 267.675 176.57C270.504 181.345 273.415 185.361 276.585 188.186C279.762 191.018 283.222 192.674 287.128 192.674V191.674C283.533 191.674 280.301 190.159 277.251 187.44C274.194 184.715 271.344 180.801 268.535 176.061C265.728 171.323 262.979 165.79 260.111 159.843C257.247 153.902 254.266 147.548 251.004 141.197C237.973 115.822 220.325 90.177 187.032 90.177V91.177Z" fill="#001586"/>
<path d="M302.294 192.507C302.294 193.98 303.488 195.174 304.961 195.174C306.434 195.174 307.628 193.98 307.628 192.507C307.628 191.034 306.434 189.84 304.961 189.84C303.488 189.84 302.294 191.034 302.294 192.507ZM286.552 193.007H304.961V192.007H286.552V193.007Z" fill="#001586"/>
<path d="M184.365 156.935C184.365 158.408 185.559 159.602 187.032 159.602C188.504 159.602 189.698 158.408 189.698 156.935C189.698 155.463 188.504 154.269 187.032 154.269C185.559 154.269 184.365 155.463 184.365 156.935ZM187.032 157.435C219.892 157.435 237.319 166.301 250.277 175.155C253.527 177.375 256.493 179.593 259.367 181.684C262.236 183.772 265.009 185.732 267.85 187.414C273.543 190.785 279.515 193.048 287.128 193.048V192.048C279.74 192.048 273.943 189.86 268.36 186.554C265.562 184.897 262.821 182.961 259.955 180.876C257.095 178.794 254.107 176.56 250.842 174.329C237.739 165.377 220.119 156.435 187.032 156.435V157.435Z" fill="#001586"/>
<path d="M184.365 294.449C184.365 292.976 185.559 291.782 187.032 291.782C188.504 291.782 189.698 292.976 189.698 294.449C189.698 295.921 188.504 297.115 187.032 297.115C185.559 297.115 184.365 295.921 184.365 294.449ZM187.032 293.949C219.685 293.949 237.085 268.845 250.115 243.472C253.369 237.135 256.341 230.802 259.211 224.849C262.078 218.901 264.844 213.333 267.675 208.555C270.504 203.781 273.415 199.765 276.585 196.939C279.762 194.107 283.222 192.451 287.128 192.451V193.451C283.533 193.451 280.301 194.967 277.251 197.686C274.194 200.411 271.344 204.325 268.535 209.065C265.728 213.803 262.979 219.336 260.111 225.283C257.247 231.224 254.266 237.577 251.004 243.928C237.973 269.303 220.325 294.949 187.032 294.949V293.949Z" fill="#001586"/>
<path d="M184.365 226.896C184.365 225.423 185.559 224.229 187.032 224.229C188.504 224.229 189.698 225.423 189.698 226.896C189.698 228.368 188.504 229.562 187.032 229.562C185.559 229.562 184.365 228.368 184.365 226.896ZM187.032 226.396C219.895 226.396 237.324 217.751 250.282 209.118C253.532 206.953 256.498 204.791 259.372 202.751C262.241 200.716 265.014 198.805 267.855 197.165C273.547 193.879 279.518 191.673 287.128 191.673V192.673C279.737 192.673 273.939 194.807 268.355 198.031C265.557 199.646 262.816 201.534 259.95 203.567C257.09 205.597 254.102 207.775 250.837 209.95C237.734 218.679 220.116 227.396 187.032 227.396V226.396Z" fill="#001586"/>
</g>
<g opacity="0.2">
<path d="M511.171 56.1611C511.171 57.6339 509.977 58.8278 508.504 58.8278C507.032 58.8278 505.838 57.6339 505.838 56.1611C505.838 54.6884 507.032 53.4945 508.504 53.4945C509.977 53.4945 511.171 54.6884 511.171 56.1611ZM508.504 56.6611C492.218 56.6611 479.725 65.0329 469.653 77.6854C459.572 90.3495 451.956 107.259 445.443 124.222C438.946 141.145 433.531 158.175 427.888 170.913C425.064 177.289 422.161 182.644 419.001 186.411C415.842 190.178 412.369 192.423 408.408 192.423V191.423C411.949 191.423 415.168 189.426 418.235 185.769C421.303 182.111 424.161 176.859 426.974 170.508C432.608 157.791 437.977 140.88 444.51 123.863C451.028 106.885 458.689 89.8539 468.871 77.0626C479.062 64.2597 491.817 55.6611 508.504 55.6611V56.6611Z" fill="#001586"/>
<path d="M387.333 191.924C387.333 190.451 388.527 189.257 390 189.257C391.473 189.257 392.667 190.451 392.667 191.924C392.667 193.396 391.473 194.59 390 194.59C388.527 194.59 387.333 193.396 387.333 191.924ZM505.838 191.924C505.838 190.451 507.032 189.257 508.504 189.257C509.977 189.257 511.171 190.451 511.171 191.924C511.171 193.396 509.977 194.59 508.504 194.59C507.032 194.59 505.838 193.396 505.838 191.924ZM390 191.424L508.504 191.424V192.424L390 192.424V191.424Z" fill="#001586"/>
<path d="M511.171 121.741C511.171 123.214 509.977 124.408 508.504 124.408C507.032 124.408 505.838 123.214 505.838 121.741C505.838 120.268 507.032 119.075 508.504 119.075C509.977 119.075 511.171 120.268 511.171 121.741ZM508.504 122.241C475.762 122.241 458.368 139.639 445.378 157.13C442.126 161.509 439.157 165.884 436.285 170.003C433.418 174.116 430.648 177.972 427.811 181.283C422.143 187.897 416.132 192.423 408.408 192.423V191.423C415.686 191.423 421.443 187.177 427.052 180.632C429.853 177.363 432.598 173.543 435.465 169.431C438.327 165.326 441.312 160.929 444.575 156.534C457.646 138.935 475.3 121.241 508.504 121.241V122.241Z" fill="#001586"/>
<path d="M511.171 328.836C511.171 327.364 509.977 326.17 508.504 326.17C507.032 326.17 505.838 327.364 505.838 328.836C505.838 330.309 507.032 331.503 508.504 331.503C509.977 331.503 511.171 330.309 511.171 328.836ZM508.504 328.336C492.22 328.336 479.727 319.895 469.654 307.134C459.573 294.362 451.956 277.309 445.444 260.202C438.946 243.134 433.532 225.961 427.889 213.115C425.065 206.685 422.162 201.285 419.003 197.487C415.844 193.689 412.37 191.424 408.408 191.424V192.424C411.947 192.424 415.166 194.437 418.234 198.126C421.302 201.815 424.16 207.112 426.974 213.517C432.607 226.343 437.976 243.397 444.509 260.558C451.027 277.679 458.688 294.854 468.869 307.754C479.06 320.664 491.815 329.336 508.504 329.336V328.336Z" fill="#001586"/>
<path d="M511.171 260.955C511.171 259.482 509.977 258.288 508.504 258.288C507.032 258.288 505.838 259.482 505.838 260.955C505.838 262.428 507.032 263.622 508.504 263.622C509.977 263.622 511.171 262.428 511.171 260.955ZM508.504 260.455C475.758 260.455 458.364 243.341 445.376 226.138C442.124 221.831 439.155 217.528 436.283 213.476C433.415 209.431 430.645 205.638 427.808 202.381C422.139 195.874 416.128 191.423 408.408 191.423V192.423C415.689 192.423 421.447 196.602 427.054 203.038C429.855 206.253 432.601 210.01 435.467 214.055C438.33 218.093 441.314 222.418 444.578 226.741C457.65 244.054 475.303 261.455 508.504 261.455V260.455Z" fill="#001586"/>
</g>
<circle cx="347.661" cy="191.661" r="63.161" fill="#0165FF" stroke="black"/>
<path d="M349 243.205C378.271 243.205 402 219.476 402 190.205C402 160.934 378.271 137.205 349 137.205C319.729 137.205 296 160.934 296 190.205C296 219.476 319.729 243.205 349 243.205Z" fill="#0165FF"/>
<path d="M365.92 194.868L355.137 210.267H371.283L350.386 217.055L324.26 225.538L334.955 210.267H334.963L345.738 194.868H325.557L332.09 185.541L342.873 170.151H326.727L347.624 163.355L373.742 154.871L363.047 170.151L352.272 185.541H372.445L365.92 194.868Z" fill="white"/>
</svg>
