<svg width="104" height="24" viewBox="0 0 104 24" fill="none" xmlns="http://www.w3.org/2000/svg">
<path d="M12 24C18.6274 24 24 18.6274 24 12C24 5.37258 18.6274 0 12 0C5.37258 0 0 5.37258 0 12C0 18.6274 5.37258 24 12 24Z" fill="#0165FF"/>
<path d="M15.8309 13.0559L13.3894 16.5423H17.0453L12.3138 18.0793L6.39844 20L8.82006 16.5423H8.82186L11.2615 13.0559H6.69213L8.17141 10.9441L10.6129 7.45946H6.957L11.6885 5.92072L17.602 4L15.1804 7.45946L12.7408 10.9441H17.3083L15.8309 13.0559Z" fill="white"/>
<path d="M39.648 13.96C39.648 17 38.048 17 36.24 17H31.12V6.12H36.112C37.792 6.12 39.584 6.12 39.584 9.24C39.584 11.432 38.544 11.432 38.544 11.432V11.464C38.544 11.464 39.648 11.464 39.648 13.96ZM37.312 9.336C37.312 7.688 36.864 7.688 35.6 7.688H33.328V10.712H35.648C36.992 10.712 37.312 10.712 37.312 9.336ZM37.376 13.784C37.376 12.168 37.04 12.168 35.664 12.168H33.328V15.432H35.712C36.944 15.432 37.376 15.432 37.376 13.784ZM43.428 17H41.396V5.384H43.428V17ZM52.4245 16.856C52.4245 16.856 51.0485 17.192 48.8085 17.192C46.0725 17.192 45.2085 16.936 45.2085 14.344V9.016H47.2405V14.344C47.2405 15.848 47.6085 15.848 48.8085 15.848C49.8005 15.848 50.3925 15.752 50.3925 15.752V9.016H52.4245V16.856ZM61.5689 13.544H56.1289C56.1289 15.88 56.1609 15.912 57.9049 15.928C59.9209 15.96 61.3289 15.752 61.3289 15.752V16.856C61.3289 16.856 59.9049 17.192 57.6649 17.192C54.3529 17.192 54.0169 16.648 54.0169 13.08C54.0169 9.368 54.4969 8.824 57.7929 8.824C61.0889 8.824 61.5689 9.368 61.5689 13.08V13.544ZM59.4729 12.376C59.4729 10.088 59.3289 10.088 57.7929 10.088C56.2729 10.088 56.1289 10.088 56.1289 12.376H59.4729ZM70.5533 13.08C70.5533 16.648 70.2493 17.192 66.8573 17.192C65.9453 17.192 65.2093 17.112 65.2093 17.112V20.632H63.1773V9.16C63.1773 9.16 64.5853 8.824 66.8573 8.824C70.0413 8.824 70.5533 9.368 70.5533 13.08ZM68.4573 13.144V13C68.4573 10.184 68.3453 10.184 66.7773 10.184C65.8013 10.184 65.2093 10.264 65.2093 10.264V15.768C65.2093 15.768 65.8013 15.848 66.7773 15.848C68.4253 15.848 68.4573 15.848 68.4573 13.144ZM74.1936 17H72.1616V9.016H74.1936V17ZM74.1936 7.576H72.1616V5.384H74.1936V7.576ZM83.3501 13.08C83.3501 16.648 83.0461 17.192 79.6541 17.192C78.7421 17.192 78.0061 17.112 78.0061 17.112V20.632H75.9741V9.16C75.9741 9.16 77.3821 8.824 79.6541 8.824C82.8381 8.824 83.3501 9.368 83.3501 13.08ZM81.2541 13.144V13C81.2541 10.184 81.1421 10.184 79.5741 10.184C78.5981 10.184 78.0061 10.264 78.0061 10.264V15.768C78.0061 15.768 78.5981 15.848 79.5741 15.848C81.2221 15.848 81.2541 15.848 81.2541 13.144ZM92.3345 13.544H86.8945C86.8945 15.88 86.9265 15.912 88.6705 15.928C90.6865 15.96 92.0945 15.752 92.0945 15.752V16.856C92.0945 16.856 90.6705 17.192 88.4305 17.192C85.1185 17.192 84.7825 16.648 84.7825 13.08C84.7825 9.368 85.2625 8.824 88.5585 8.824C91.8545 8.824 92.3345 9.368 92.3345 13.08V13.544ZM90.2385 12.376C90.2385 10.088 90.0945 10.088 88.5585 10.088C87.0385 10.088 86.8945 10.088 86.8945 12.376H90.2385Z" fill="black"/>
</svg>
