<svg width="125" height="29" viewBox="0 0 125 29" fill="none" xmlns="http://www.w3.org/2000/svg">
<g clip-path="url(#clip0_462_52)">
<path d="M14.4 28.8C22.3529 28.8 28.8 22.3529 28.8 14.4C28.8 6.4471 22.3529 0 14.4 0C6.4471 0 0 6.4471 0 14.4C0 22.3529 6.4471 28.8 14.4 28.8Z" fill="#0165FF"/>
<path d="M18.9971 15.6671L16.0674 19.8509H20.4544L14.7766 21.6952L7.67822 24L10.5842 19.8509H10.5863L13.5139 15.6671H8.03066L9.80579 13.133L12.7355 8.9514H8.34849L14.0263 7.10491L21.1225 4.80005L18.2166 8.9514L15.289 13.133H20.7701L18.9971 15.6671Z" fill="white"/>
<path d="M47.5776 15.9519C47.5776 19.5999 45.6576 19.5999 43.488 19.5999H37.344V6.54385H43.3344C45.3504 6.54385 47.5008 6.54385 47.5008 10.2879C47.5008 12.9183 46.2528 12.9183 46.2528 12.9183V12.9567C46.2528 12.9567 47.5776 12.9567 47.5776 15.9519ZM44.7744 10.4031C44.7744 8.42545 44.2368 8.42545 42.72 8.42545H39.9936V12.0543H42.7776C44.3904 12.0543 44.7744 12.0543 44.7744 10.4031ZM44.8512 15.7407C44.8512 13.8015 44.448 13.8015 42.7968 13.8015H39.9936V17.7183H42.8544C44.3328 17.7183 44.8512 17.7183 44.8512 15.7407ZM52.1136 19.5999H49.6752V5.66065H52.1136V19.5999ZM62.9094 19.4271C62.9094 19.4271 61.2582 19.8303 58.5702 19.8303C55.287 19.8303 54.2502 19.5231 54.2502 16.4127V10.0191H56.6886V16.4127C56.6886 18.2175 57.1302 18.2175 58.5702 18.2175C59.7606 18.2175 60.471 18.1023 60.471 18.1023V10.0191H62.9094V19.4271ZM73.8827 15.4527H67.3547C67.3547 18.2559 67.3931 18.2943 69.4859 18.3135C71.9051 18.3519 73.5947 18.1023 73.5947 18.1023V19.4271C73.5947 19.4271 71.8859 19.8303 69.1979 19.8303C65.2235 19.8303 64.8203 19.1775 64.8203 14.8959C64.8203 10.4415 65.3963 9.78865 69.3515 9.78865C73.3067 9.78865 73.8827 10.4415 73.8827 14.8959V15.4527ZM71.3675 14.0511C71.3675 11.3055 71.1947 11.3055 69.3515 11.3055C67.5275 11.3055 67.3547 11.3055 67.3547 14.0511H71.3675ZM84.6639 14.8959C84.6639 19.1775 84.2991 19.8303 80.2287 19.8303C79.1343 19.8303 78.2511 19.7343 78.2511 19.7343V23.9583H75.8127V10.1919C75.8127 10.1919 77.5023 9.78865 80.2287 9.78865C84.0495 9.78865 84.6639 10.4415 84.6639 14.8959ZM82.1487 14.9727V14.7999C82.1487 11.4207 82.0143 11.4207 80.1327 11.4207C78.9615 11.4207 78.2511 11.5167 78.2511 11.5167V18.1215C78.2511 18.1215 78.9615 18.2175 80.1327 18.2175C82.1103 18.2175 82.1487 18.2175 82.1487 14.9727ZM89.0323 19.5999H86.5939V10.0191H89.0323V19.5999ZM89.0323 8.29105H86.5939V5.66065H89.0323V8.29105ZM100.02 14.8959C100.02 19.1775 99.6554 19.8303 95.585 19.8303C94.4906 19.8303 93.6074 19.7343 93.6074 19.7343V23.9583H91.169V10.1919C91.169 10.1919 92.8586 9.78865 95.585 9.78865C99.4058 9.78865 100.02 10.4415 100.02 14.8959ZM97.505 14.9727V14.7999C97.505 11.4207 97.3706 11.4207 95.489 11.4207C94.3178 11.4207 93.6074 11.5167 93.6074 11.5167V18.1215C93.6074 18.1215 94.3178 18.2175 95.489 18.2175C97.4666 18.2175 97.505 18.2175 97.505 14.9727ZM110.801 15.4527H104.273C104.273 18.2559 104.312 18.2943 106.405 18.3135C108.824 18.3519 110.513 18.1023 110.513 18.1023V19.4271C110.513 19.4271 108.805 19.8303 106.117 19.8303C102.142 19.8303 101.739 19.1775 101.739 14.8959C101.739 10.4415 102.315 9.78865 106.27 9.78865C110.225 9.78865 110.801 10.4415 110.801 14.8959V15.4527ZM108.286 14.0511C108.286 11.3055 108.113 11.3055 106.27 11.3055C104.446 11.3055 104.273 11.3055 104.273 14.0511H108.286Z" fill="white"/>
</g>
<defs>
<clipPath id="clip0_462_52">
<rect width="124.015" height="28.8" fill="white"/>
</clipPath>
</defs>
</svg>
