<svg width="115" height="14" viewBox="0 0 115 14" fill="none" xmlns="http://www.w3.org/2000/svg">
<path d="M4.20117 10.2295C3.51758 9.55046 2.90234 8.83496 2.35547 8.08301C1.81315 7.33105 1.38249 6.58366 1.06348 5.84082C0.749023 5.09342 0.591797 4.38021 0.591797 3.70117C0.591797 3.25456 0.671549 2.83301 0.831055 2.43652C0.99056 2.04004 1.24349 1.68001 1.58984 1.35645C2.00456 0.959961 2.45117 0.761719 2.92969 0.761719C3.13021 0.761719 3.31934 0.802734 3.49707 0.884766C3.67936 0.966797 3.83431 1.09896 3.96191 1.28125L5.44531 3.36621C5.56836 3.53483 5.65723 3.69206 5.71191 3.83789C5.77116 3.97917 5.80078 4.11133 5.80078 4.23438C5.80078 4.39844 5.75521 4.55566 5.66406 4.70605C5.57747 4.85645 5.45671 5.01139 5.30176 5.1709L4.80273 5.67676C4.73438 5.74967 4.7002 5.83626 4.7002 5.93652C4.7002 5.99121 4.70703 6.04362 4.7207 6.09375C4.73893 6.14388 4.75716 6.18717 4.77539 6.22363C4.89388 6.44238 5.09896 6.72266 5.39062 7.06445C5.68229 7.40169 5.99902 7.74349 6.34082 8.08984C6.68262 8.4362 7.02441 8.75521 7.36621 9.04688C7.70801 9.33398 7.98828 9.53678 8.20703 9.65527C8.24349 9.6735 8.28678 9.69173 8.33691 9.70996C8.38704 9.72819 8.43945 9.7373 8.49414 9.7373C8.60352 9.7373 8.69238 9.70085 8.76074 9.62793L9.25977 9.12891C9.41927 8.9694 9.57422 8.84635 9.72461 8.75977C9.875 8.67318 10.0299 8.62988 10.1895 8.62988C10.3171 8.62988 10.4515 8.65951 10.5928 8.71875C10.734 8.77344 10.889 8.86003 11.0576 8.97852L13.1699 10.4756C13.3477 10.6032 13.4753 10.7536 13.5527 10.9268C13.6348 11.0999 13.6758 11.2845 13.6758 11.4805C13.6758 11.7129 13.6234 11.9453 13.5186 12.1777C13.4137 12.4102 13.2679 12.6289 13.0811 12.834C12.762 13.1895 12.4066 13.4469 12.0146 13.6064C11.6227 13.7705 11.1989 13.8525 10.7432 13.8525C10.0732 13.8525 9.3623 13.693 8.61035 13.374C7.8584 13.055 7.10417 12.6221 6.34766 12.0752C5.5957 11.5283 4.88021 10.9131 4.20117 10.2295ZM23.8925 12V9.584H19.7005V8.64L24.1805 2.016H25.2685V8.48H26.5485V9.6H25.2685V12H23.8925ZM21.1725 8.48H23.9085V4.32L21.1725 8.48ZM28.6925 9.36L32.9645 4.032L33.3165 4.928L29.0445 10.208L28.6925 9.36ZM30.9805 12.176C30.3085 12.176 29.7325 11.9787 29.2525 11.584C28.7831 11.1893 28.4205 10.6133 28.1645 9.856C27.9085 9.088 27.7805 8.16 27.7805 7.072C27.7805 6.00533 27.9085 5.09333 28.1645 4.336C28.4205 3.568 28.7831 2.976 29.2525 2.56C29.7325 2.144 30.3085 1.936 30.9805 1.936C31.6525 1.936 32.2231 2.144 32.6925 2.56C33.1725 2.976 33.5405 3.568 33.7965 4.336C34.0525 5.09333 34.1805 6.00533 34.1805 7.072C34.1805 8.16 34.0525 9.088 33.7965 9.856C33.5405 10.6133 33.1725 11.1893 32.6925 11.584C32.2231 11.9787 31.6525 12.176 30.9805 12.176ZM30.9805 11.072C31.3751 11.072 31.7111 10.9173 31.9885 10.608C32.2658 10.2987 32.4791 9.84533 32.6285 9.248C32.7778 8.65067 32.8525 7.92533 32.8525 7.072C32.8525 6.25067 32.7778 5.54667 32.6285 4.96C32.4791 4.36267 32.2658 3.89867 31.9885 3.568C31.7111 3.23733 31.3751 3.072 30.9805 3.072C30.5858 3.072 30.2498 3.23733 29.9725 3.568C29.6951 3.89867 29.4818 4.36267 29.3325 4.96C29.1831 5.54667 29.1085 6.25067 29.1085 7.072C29.1085 7.92533 29.1831 8.65067 29.3325 9.248C29.4818 9.84533 29.6951 10.2987 29.9725 10.608C30.2498 10.9173 30.5858 11.072 30.9805 11.072ZM36.6925 9.36L40.9645 4.032L41.3165 4.928L37.0445 10.208L36.6925 9.36ZM38.9805 12.176C38.3085 12.176 37.7325 11.9787 37.2525 11.584C36.7831 11.1893 36.4205 10.6133 36.1645 9.856C35.9085 9.088 35.7805 8.16 35.7805 7.072C35.7805 6.00533 35.9085 5.09333 36.1645 4.336C36.4205 3.568 36.7831 2.976 37.2525 2.56C37.7325 2.144 38.3085 1.936 38.9805 1.936C39.6525 1.936 40.2231 2.144 40.6925 2.56C41.1725 2.976 41.5405 3.568 41.7965 4.336C42.0525 5.09333 42.1805 6.00533 42.1805 7.072C42.1805 8.16 42.0525 9.088 41.7965 9.856C41.5405 10.6133 41.1725 11.1893 40.6925 11.584C40.2231 11.9787 39.6525 12.176 38.9805 12.176ZM38.9805 11.072C39.3751 11.072 39.7111 10.9173 39.9885 10.608C40.2658 10.2987 40.4791 9.84533 40.6285 9.248C40.7778 8.65067 40.8525 7.92533 40.8525 7.072C40.8525 6.25067 40.7778 5.54667 40.6285 4.96C40.4791 4.36267 40.2658 3.89867 39.9885 3.568C39.7111 3.23733 39.3751 3.072 38.9805 3.072C38.5858 3.072 38.2498 3.23733 37.9725 3.568C37.6951 3.89867 37.4818 4.36267 37.3325 4.96C37.1831 5.54667 37.1085 6.25067 37.1085 7.072C37.1085 7.92533 37.1831 8.65067 37.3325 9.248C37.4818 9.84533 37.6951 10.2987 37.9725 10.608C38.2498 10.9173 38.5858 11.072 38.9805 11.072ZM44.7245 7.552V6.336H49.2685V7.552H44.7245ZM54.5485 12V3.6L52.5965 4.208L52.2925 3.392L54.9165 2.016H55.8925V12H54.5485ZM60.0685 10.96C60.6551 10.3627 61.1885 9.82933 61.6685 9.36C62.1485 8.88 62.5751 8.44267 62.9485 8.048C63.3218 7.64267 63.6365 7.264 63.8925 6.912C64.1485 6.56 64.3405 6.21333 64.4685 5.872C64.6071 5.52 64.6765 5.15733 64.6765 4.784C64.6765 4.47467 64.6338 4.21333 64.5485 4C64.4738 3.78667 64.3618 3.616 64.2125 3.488C64.0738 3.34933 63.9031 3.248 63.7005 3.184C63.5085 3.12 63.3005 3.088 63.0765 3.088C62.8311 3.088 62.5965 3.12533 62.3725 3.2C62.1485 3.264 61.9351 3.36533 61.7325 3.504C61.5298 3.632 61.3431 3.80267 61.1725 4.016C61.0765 4.16533 61.0178 4.28267 60.9965 4.368C60.9751 4.44267 60.9698 4.52267 60.9805 4.608L60.9005 4.688L60.7885 4.608L59.8285 3.872C60.0525 3.456 60.3245 3.104 60.6445 2.816C60.9751 2.528 61.3431 2.30933 61.7485 2.16C62.1645 2.01067 62.6018 1.936 63.0605 1.936C63.6365 1.936 64.1431 2.05333 64.5805 2.288C65.0178 2.52267 65.3645 2.85333 65.6205 3.28C65.8765 3.70667 66.0045 4.21333 66.0045 4.8C66.0045 5.22667 65.9298 5.64267 65.7805 6.048C65.6418 6.44267 65.4391 6.832 65.1725 7.216C64.9165 7.58933 64.6125 7.968 64.2605 8.352C63.9085 8.736 63.5245 9.136 63.1085 9.552C62.6925 9.95733 62.2605 10.3947 61.8125 10.864H65.3325C65.5138 10.864 65.6418 10.8533 65.7165 10.832C65.7911 10.8107 65.8605 10.768 65.9245 10.704H66.0525V10.864V12H60.0685V10.96ZM70.7885 12.176C70.2445 12.176 69.7218 12.08 69.2205 11.888C68.7191 11.696 68.2978 11.408 67.9565 11.024L68.7405 10L68.8525 9.872L68.9485 9.952C68.9591 10.0373 68.9805 10.1227 69.0125 10.208C69.0445 10.2827 69.1191 10.384 69.2365 10.512C69.4285 10.672 69.6418 10.8053 69.8765 10.912C70.1218 11.008 70.4098 11.056 70.7405 11.056C71.1351 11.056 71.4605 10.9813 71.7165 10.832C71.9831 10.672 72.1805 10.4533 72.3085 10.176C72.4471 9.888 72.5165 9.56267 72.5165 9.2C72.5165 8.83733 72.4525 8.528 72.3245 8.272C72.2071 8.016 72.0258 7.81867 71.7805 7.68C71.5458 7.53067 71.2578 7.42933 70.9165 7.376C70.5858 7.32267 70.2071 7.31733 69.7805 7.36V6.288C70.2818 6.29867 70.6925 6.256 71.0125 6.16C71.3325 6.064 71.5778 5.93067 71.7485 5.76C71.9298 5.58933 72.0525 5.39733 72.1165 5.184C72.1911 4.96 72.2285 4.72533 72.2285 4.48C72.2285 4.26667 72.1911 4.07467 72.1165 3.904C72.0525 3.73333 71.9618 3.58933 71.8445 3.472C71.7271 3.344 71.5778 3.248 71.3965 3.184C71.2258 3.10933 71.0391 3.072 70.8365 3.072C70.6231 3.072 70.4098 3.09867 70.1965 3.152C69.9938 3.20533 69.7911 3.28533 69.5885 3.392C69.3965 3.49867 69.2098 3.64267 69.0285 3.824L68.2445 3.024C68.6071 2.62933 69.0178 2.352 69.4765 2.192C69.9351 2.02133 70.3885 1.936 70.8365 1.936C71.4018 1.936 71.8871 2.04267 72.2925 2.256C72.6978 2.46933 73.0125 2.768 73.2365 3.152C73.4605 3.52533 73.5725 3.95733 73.5725 4.448C73.5725 4.8 73.5085 5.13067 73.3805 5.44C73.2631 5.73867 73.0871 6 72.8525 6.224C72.6178 6.43733 72.3351 6.60267 72.0045 6.72C72.3565 6.82667 72.6765 6.992 72.9645 7.216C73.2525 7.44 73.4765 7.72267 73.6365 8.064C73.8071 8.39467 73.8925 8.78933 73.8925 9.248C73.8925 9.78133 73.7698 10.272 73.5245 10.72C73.2898 11.1573 72.9431 11.5093 72.4845 11.776C72.0258 12.0427 71.4605 12.176 70.7885 12.176ZM79.8925 12V9.584H75.7005V8.64L80.1805 2.016H81.2685V8.48H82.5485V9.6H81.2685V12H79.8925ZM77.1725 8.48H79.9085V4.32L77.1725 8.48ZM84.7245 7.552V6.336H89.2685V7.552H84.7245ZM94.9805 12.16C94.3405 12.16 93.7858 12.0427 93.3165 11.808C92.8471 11.5627 92.4845 11.2373 92.2285 10.832C91.9725 10.4267 91.8445 9.97333 91.8445 9.472C91.8445 9.07733 91.9245 8.704 92.0845 8.352C92.2551 8 92.4845 7.68533 92.7725 7.408C93.0711 7.12 93.4178 6.88533 93.8125 6.704C93.5245 6.53333 93.2685 6.33067 93.0445 6.096C92.8205 5.86133 92.6445 5.6 92.5165 5.312C92.3885 5.01333 92.3245 4.704 92.3245 4.384C92.3245 3.92533 92.4311 3.50933 92.6445 3.136C92.8578 2.76267 93.1671 2.464 93.5725 2.24C93.9778 2.00533 94.4738 1.888 95.0605 1.888C95.6791 1.888 96.1858 2 96.5805 2.224C96.9858 2.43733 97.2898 2.72533 97.4925 3.088C97.6951 3.45067 97.7965 3.85067 97.7965 4.288C97.7965 4.53333 97.7591 4.77333 97.6845 5.008C97.6098 5.24267 97.5085 5.46667 97.3805 5.68C97.2525 5.88267 97.0925 6.06933 96.9005 6.24C96.7191 6.41067 96.5111 6.56 96.2765 6.688C96.5645 6.82667 96.8205 6.992 97.0445 7.184C97.2685 7.376 97.4605 7.58933 97.6205 7.824C97.7911 8.05867 97.9191 8.30933 98.0045 8.576C98.0898 8.84267 98.1325 9.12 98.1325 9.408C98.1325 9.94133 97.9991 10.416 97.7325 10.832C97.4765 11.2373 97.1138 11.5627 96.6445 11.808C96.1751 12.0427 95.6205 12.16 94.9805 12.16ZM95.0125 10.992C95.3965 10.992 95.7165 10.9227 95.9725 10.784C96.2391 10.6347 96.4365 10.4373 96.5645 10.192C96.7031 9.94667 96.7725 9.67467 96.7725 9.376C96.7725 9.14133 96.7245 8.91733 96.6285 8.704C96.5325 8.48 96.3938 8.27733 96.2125 8.096C96.0418 7.91467 95.8285 7.74933 95.5725 7.6C95.3271 7.44 95.0498 7.31733 94.7405 7.232C94.5271 7.328 94.3245 7.45067 94.1325 7.6C93.9405 7.73867 93.7751 7.904 93.6365 8.096C93.5085 8.27733 93.4071 8.46933 93.3325 8.672C93.2578 8.87467 93.2205 9.09333 93.2205 9.328C93.2205 9.63733 93.2898 9.92 93.4285 10.176C93.5671 10.4213 93.7698 10.6187 94.0365 10.768C94.3138 10.9173 94.6391 10.992 95.0125 10.992ZM95.2685 6.24C95.4498 6.13333 95.6151 6.01067 95.7645 5.872C95.9138 5.72267 96.0418 5.568 96.1485 5.408C96.2551 5.248 96.3405 5.07733 96.4045 4.896C96.4685 4.71467 96.5005 4.53333 96.5005 4.352C96.5005 4.11733 96.4418 3.89867 96.3245 3.696C96.2178 3.49333 96.0525 3.328 95.8285 3.2C95.6151 3.072 95.3485 3.008 95.0285 3.008C94.7085 3.008 94.4418 3.072 94.2285 3.2C94.0258 3.31733 93.8711 3.47733 93.7645 3.68C93.6578 3.872 93.6045 4.08533 93.6045 4.32C93.6045 4.544 93.6471 4.752 93.7325 4.944C93.8178 5.12533 93.9351 5.29067 94.0845 5.44C94.2445 5.58933 94.4258 5.73333 94.6285 5.872C94.8311 6 95.0445 6.12267 95.2685 6.24ZM102.98 12.16C102.34 12.16 101.786 12.0427 101.316 11.808C100.847 11.5627 100.484 11.2373 100.228 10.832C99.9725 10.4267 99.8445 9.97333 99.8445 9.472C99.8445 9.07733 99.9245 8.704 100.084 8.352C100.255 8 100.484 7.68533 100.772 7.408C101.071 7.12 101.418 6.88533 101.812 6.704C101.524 6.53333 101.268 6.33067 101.044 6.096C100.82 5.86133 100.644 5.6 100.516 5.312C100.388 5.01333 100.324 4.704 100.324 4.384C100.324 3.92533 100.431 3.50933 100.644 3.136C100.858 2.76267 101.167 2.464 101.572 2.24C101.978 2.00533 102.474 1.888 103.06 1.888C103.679 1.888 104.186 2 104.58 2.224C104.986 2.43733 105.29 2.72533 105.492 3.088C105.695 3.45067 105.796 3.85067 105.796 4.288C105.796 4.53333 105.759 4.77333 105.684 5.008C105.61 5.24267 105.508 5.46667 105.38 5.68C105.252 5.88267 105.092 6.06933 104.9 6.24C104.719 6.41067 104.511 6.56 104.276 6.688C104.564 6.82667 104.82 6.992 105.044 7.184C105.268 7.376 105.46 7.58933 105.62 7.824C105.791 8.05867 105.919 8.30933 106.004 8.576C106.09 8.84267 106.132 9.12 106.132 9.408C106.132 9.94133 105.999 10.416 105.732 10.832C105.476 11.2373 105.114 11.5627 104.644 11.808C104.175 12.0427 103.62 12.16 102.98 12.16ZM103.012 10.992C103.396 10.992 103.716 10.9227 103.972 10.784C104.239 10.6347 104.436 10.4373 104.564 10.192C104.703 9.94667 104.772 9.67467 104.772 9.376C104.772 9.14133 104.724 8.91733 104.628 8.704C104.532 8.48 104.394 8.27733 104.212 8.096C104.042 7.91467 103.828 7.74933 103.572 7.6C103.327 7.44 103.05 7.31733 102.74 7.232C102.527 7.328 102.324 7.45067 102.132 7.6C101.94 7.73867 101.775 7.904 101.636 8.096C101.508 8.27733 101.407 8.46933 101.332 8.672C101.258 8.87467 101.22 9.09333 101.22 9.328C101.22 9.63733 101.29 9.92 101.428 10.176C101.567 10.4213 101.77 10.6187 102.036 10.768C102.314 10.9173 102.639 10.992 103.012 10.992ZM103.268 6.24C103.45 6.13333 103.615 6.01067 103.764 5.872C103.914 5.72267 104.042 5.568 104.148 5.408C104.255 5.248 104.34 5.07733 104.404 4.896C104.468 4.71467 104.5 4.53333 104.5 4.352C104.5 4.11733 104.442 3.89867 104.324 3.696C104.218 3.49333 104.052 3.328 103.828 3.2C103.615 3.072 103.348 3.008 103.028 3.008C102.708 3.008 102.442 3.072 102.228 3.2C102.026 3.31733 101.871 3.47733 101.764 3.68C101.658 3.872 101.604 4.08533 101.604 4.32C101.604 4.544 101.647 4.752 101.732 4.944C101.818 5.12533 101.935 5.29067 102.084 5.44C102.244 5.58933 102.426 5.73333 102.628 5.872C102.831 6 103.044 6.12267 103.268 6.24ZM110.98 12.16C110.34 12.16 109.786 12.0427 109.316 11.808C108.847 11.5627 108.484 11.2373 108.228 10.832C107.972 10.4267 107.844 9.97333 107.844 9.472C107.844 9.07733 107.924 8.704 108.084 8.352C108.255 8 108.484 7.68533 108.772 7.408C109.071 7.12 109.418 6.88533 109.812 6.704C109.524 6.53333 109.268 6.33067 109.044 6.096C108.82 5.86133 108.644 5.6 108.516 5.312C108.388 5.01333 108.324 4.704 108.324 4.384C108.324 3.92533 108.431 3.50933 108.644 3.136C108.858 2.76267 109.167 2.464 109.572 2.24C109.978 2.00533 110.474 1.888 111.06 1.888C111.679 1.888 112.186 2 112.58 2.224C112.986 2.43733 113.29 2.72533 113.492 3.088C113.695 3.45067 113.796 3.85067 113.796 4.288C113.796 4.53333 113.759 4.77333 113.684 5.008C113.61 5.24267 113.508 5.46667 113.38 5.68C113.252 5.88267 113.092 6.06933 112.9 6.24C112.719 6.41067 112.511 6.56 112.276 6.688C112.564 6.82667 112.82 6.992 113.044 7.184C113.268 7.376 113.46 7.58933 113.62 7.824C113.791 8.05867 113.919 8.30933 114.004 8.576C114.09 8.84267 114.132 9.12 114.132 9.408C114.132 9.94133 113.999 10.416 113.732 10.832C113.476 11.2373 113.114 11.5627 112.644 11.808C112.175 12.0427 111.62 12.16 110.98 12.16ZM111.012 10.992C111.396 10.992 111.716 10.9227 111.972 10.784C112.239 10.6347 112.436 10.4373 112.564 10.192C112.703 9.94667 112.772 9.67467 112.772 9.376C112.772 9.14133 112.724 8.91733 112.628 8.704C112.532 8.48 112.394 8.27733 112.212 8.096C112.042 7.91467 111.828 7.74933 111.572 7.6C111.327 7.44 111.05 7.31733 110.74 7.232C110.527 7.328 110.324 7.45067 110.132 7.6C109.94 7.73867 109.775 7.904 109.636 8.096C109.508 8.27733 109.407 8.46933 109.332 8.672C109.258 8.87467 109.22 9.09333 109.22 9.328C109.22 9.63733 109.29 9.92 109.428 10.176C109.567 10.4213 109.77 10.6187 110.036 10.768C110.314 10.9173 110.639 10.992 111.012 10.992ZM111.268 6.24C111.45 6.13333 111.615 6.01067 111.764 5.872C111.914 5.72267 112.042 5.568 112.148 5.408C112.255 5.248 112.34 5.07733 112.404 4.896C112.468 4.71467 112.5 4.53333 112.5 4.352C112.5 4.11733 112.442 3.89867 112.324 3.696C112.218 3.49333 112.052 3.328 111.828 3.2C111.615 3.072 111.348 3.008 111.028 3.008C110.708 3.008 110.442 3.072 110.228 3.2C110.026 3.31733 109.871 3.47733 109.764 3.68C109.658 3.872 109.604 4.08533 109.604 4.32C109.604 4.544 109.647 4.752 109.732 4.944C109.818 5.12533 109.935 5.29067 110.084 5.44C110.244 5.58933 110.426 5.73333 110.628 5.872C110.831 6 111.044 6.12267 111.268 6.24Z" fill="black"/>
</svg>
