<svg width="81" height="81" viewBox="0 0 81 81" fill="none" xmlns="http://www.w3.org/2000/svg">
<g clip-path="url(#clip0_114_5897)">
<path d="M33.7352 58.9009H17.8715C15.8099 58.9009 14.1387 57.2297 14.1387 55.1681V18.4159C14.1387 16.3544 15.8099 14.6831 17.8715 14.6831H62.6633C64.7249 14.6831 66.3961 16.3544 66.3961 18.4159V32.129" stroke="black" stroke-width="4.0198" stroke-linecap="square"/>
<path d="M16.1484 28.7524L66.396 28.7524" stroke="black" stroke-width="4.0198" stroke-linecap="square"/>
<mask id="path-4-outside-1_114_5897" maskUnits="userSpaceOnUse" x="38.2871" y="35.8118" width="39" height="38" fill="black">
<rect fill="white" x="38.2871" y="35.8118" width="39" height="38"/>
<path fill-rule="evenodd" clip-rule="evenodd" d="M60.5788 40.8118H55.4473L54.9525 44.2033C53.0806 44.6951 51.4007 45.6463 50.0466 46.9259L46.8529 45.6706L44.2871 50.0222L46.9622 52.0783C46.7233 52.9734 46.5961 53.9127 46.5961 54.8811C46.5961 55.8495 46.7233 56.7888 46.9621 57.6838L44.2871 59.7399L46.8529 64.0915L50.0466 62.8362C51.4007 64.1158 53.0806 65.067 54.9525 65.5588L55.4473 68.9504H60.5788L61.0843 65.4855C62.8836 64.9658 64.4959 64.0191 65.7988 62.7651L69.1736 64.0915L71.7393 59.7399L68.851 57.5199C69.0625 56.6743 69.1747 55.7905 69.1747 54.8811C69.1747 53.9716 69.0625 53.0878 68.851 52.2422L71.7393 50.0222L69.1736 45.6706L65.7988 46.997C64.4959 45.743 62.8836 44.7963 61.0843 44.2767L60.5788 40.8118Z"/>
</mask>
<path d="M55.4473 40.8118V36.792H51.9714L51.4696 40.2315L55.4473 40.8118ZM60.5788 40.8118L64.5565 40.2315L64.0547 36.792H60.5788V40.8118ZM54.9525 44.2033L55.9739 48.0912L58.5463 47.4154L58.9302 44.7836L54.9525 44.2033ZM50.0466 46.9259L48.5762 50.6671L50.9522 51.6009L52.8076 49.8475L50.0466 46.9259ZM46.8529 45.6706L48.3233 41.9294L45.1318 40.675L43.3902 43.6289L46.8529 45.6706ZM44.2871 50.0222L40.8244 47.9805L39.0188 51.0429L41.8374 53.2093L44.2871 50.0222ZM46.9622 52.0783L50.846 53.1148L51.5372 50.5247L49.4118 48.8911L46.9622 52.0783ZM46.9621 57.6838L49.4118 60.871L51.5372 59.2374L50.846 56.6474L46.9621 57.6838ZM44.2871 59.7399L41.8374 56.5528L39.0188 58.7192L40.8244 61.7816L44.2871 59.7399ZM46.8529 64.0915L43.3901 66.1332L45.1318 69.0871L48.3233 67.8327L46.8529 64.0915ZM50.0466 62.8362L52.8076 59.9146L50.9521 58.1612L48.5762 59.095L50.0466 62.8362ZM54.9525 65.5588L58.9302 64.9785L58.5463 62.3467L55.9739 61.6709L54.9525 65.5588ZM55.4473 68.9504L51.4696 69.5307L51.9714 72.9702H55.4473V68.9504ZM60.5788 68.9504V72.9702H64.0547L64.5565 69.5307L60.5788 68.9504ZM61.0843 65.4855L59.969 61.6235L57.4806 62.3421L57.1066 64.9052L61.0843 65.4855ZM65.7988 62.7651L67.2692 59.0239L64.8692 58.0806L63.0112 59.8689L65.7988 62.7651ZM69.1736 64.0915L67.7031 67.8327L70.8946 69.0871L72.6363 66.1332L69.1736 64.0915ZM71.7393 59.7399L75.202 61.7816L77.0076 58.7192L74.189 56.5528L71.7393 59.7399ZM68.851 57.5199L64.9514 56.5445L64.3119 59.1011L66.4013 60.7071L68.851 57.5199ZM68.851 52.2422L66.4013 49.055L64.3119 50.661L64.9514 53.2176L68.851 52.2422ZM71.7393 50.0222L74.189 53.2093L77.0076 51.0429L75.202 47.9805L71.7393 50.0222ZM69.1736 45.6706L72.6363 43.6289L70.8946 40.675L67.7031 41.9294L69.1736 45.6706ZM65.7988 46.997L63.0112 49.8933L64.8691 51.6816L67.2692 50.7382L65.7988 46.997ZM61.0843 44.2767L57.1066 44.857L57.4806 47.42L59.969 48.1387L61.0843 44.2767ZM55.4473 44.8316H60.5788V36.792H55.4473V44.8316ZM58.9302 44.7836L59.425 41.3921L51.4696 40.2315L50.9748 43.623L58.9302 44.7836ZM52.8076 49.8475C53.6793 49.0238 54.7633 48.4092 55.9739 48.0912L53.9312 40.3155C51.3979 40.981 49.1221 42.2688 47.2857 44.0043L52.8076 49.8475ZM45.3824 49.4118L48.5762 50.6671L51.5171 43.1847L48.3233 41.9294L45.3824 49.4118ZM47.7498 52.0639L50.3156 47.7123L43.3902 43.6289L40.8244 47.9805L47.7498 52.0639ZM49.4118 48.8911L46.7368 46.8351L41.8374 53.2093L44.5125 55.2654L49.4118 48.8911ZM50.6159 54.8811C50.6159 54.2661 50.6965 53.6751 50.846 53.1148L43.0783 51.0418C42.7501 52.2716 42.5763 53.5592 42.5763 54.8811H50.6159ZM50.846 56.6474C50.6965 56.087 50.6159 55.496 50.6159 54.8811H42.5763C42.5763 56.2029 42.7501 57.4905 43.0783 58.7203L50.846 56.6474ZM46.7368 62.9271L49.4118 60.871L44.5124 54.4967L41.8374 56.5528L46.7368 62.9271ZM50.3156 62.0498L47.7498 57.6983L40.8244 61.7816L43.3901 66.1332L50.3156 62.0498ZM48.5762 59.095L45.3824 60.3503L48.3233 67.8327L51.517 66.5774L48.5762 59.095ZM55.9739 61.6709C54.7633 61.3529 53.6793 60.7384 52.8076 59.9146L47.2856 65.7578C49.1221 67.4933 51.3978 68.7812 53.9312 69.4467L55.9739 61.6709ZM59.425 68.3701L58.9302 64.9785L50.9748 66.1391L51.4696 69.5307L59.425 68.3701ZM60.5788 64.9306H55.4473V72.9702H60.5788V64.9306ZM57.1066 64.9052L56.6011 68.3701L64.5565 69.5307L65.062 66.0658L57.1066 64.9052ZM63.0112 59.8689C62.1727 60.6759 61.1323 61.2875 59.969 61.6235L62.1996 69.3475C64.6349 68.6442 66.8192 67.3622 68.5864 65.6613L63.0112 59.8689ZM70.644 60.3503L67.2692 59.0239L64.3284 66.5063L67.7031 67.8327L70.644 60.3503ZM68.2766 57.6983L65.7109 62.0498L72.6363 66.1332L75.202 61.7816L68.2766 57.6983ZM66.4013 60.7071L69.2896 62.9271L74.189 56.5528L71.3007 54.3328L66.4013 60.7071ZM65.1549 54.8811C65.1549 55.4588 65.0838 56.015 64.9514 56.5445L72.7507 58.4953C73.0413 57.3336 73.1945 56.1223 73.1945 54.8811H65.1549ZM64.9514 53.2176C65.0838 53.7471 65.1549 54.3034 65.1549 54.8811H73.1945C73.1945 53.6398 73.0413 52.4285 72.7507 51.2668L64.9514 53.2176ZM69.2896 46.8351L66.4013 49.055L71.3007 55.4293L74.189 53.2093L69.2896 46.8351ZM65.7108 47.7123L68.2766 52.0639L75.202 47.9805L72.6363 43.6289L65.7108 47.7123ZM67.2692 50.7382L70.644 49.4118L67.7031 41.9294L64.3283 43.2558L67.2692 50.7382ZM59.969 48.1387C61.1323 48.4746 62.1727 49.0862 63.0112 49.8933L68.5864 44.1008C66.8192 42.3999 64.6349 41.118 62.1996 40.4147L59.969 48.1387ZM56.6011 41.3921L57.1066 44.857L65.062 43.6964L64.5565 40.2315L56.6011 41.3921Z" fill="black" mask="url(#path-4-outside-1_114_5897)"/>
<ellipse cx="58.0133" cy="54.881" rx="6.1578" ry="6.0297" stroke="black" stroke-width="4.0198" stroke-linecap="round"/>
</g>
<defs>
<clipPath id="clip0_114_5897">
<rect x="0.0693359" y="0.61377" width="80.396" height="80.396" rx="16.0792" fill="white"/>
</clipPath>
</defs>
</svg>
