<svg width="576" height="376" viewBox="0 0 576 376" fill="none" xmlns="http://www.w3.org/2000/svg">
<rect width="576" height="376" rx="16" fill="url(#paint0_linear_914_1040)"/>
<mask id="mask0_914_1040" style="mask-type:alpha" maskUnits="userSpaceOnUse" x="0" y="0" width="576" height="376">
<rect width="576" height="376" rx="16" fill="url(#paint1_radial_914_1040)"/>
</mask>
<g mask="url(#mask0_914_1040)">
<g opacity="0.1">
<path d="M53.5886 -149V572" stroke="black" stroke-width="1.1629" stroke-dasharray="4.65 4.65"/>
<path d="M111.734 -149V572" stroke="black" stroke-width="1.1629" stroke-dasharray="4.65 4.65"/>
<path d="M169.879 -149V572" stroke="black" stroke-width="1.1629" stroke-dasharray="4.65 4.65"/>
<path d="M228.024 -149V572" stroke="black" stroke-width="1.1629" stroke-dasharray="4.65 4.65"/>
<path d="M286.169 -149V572" stroke="black" stroke-width="1.1629" stroke-dasharray="4.65 4.65"/>
<path d="M344.314 -149V572" stroke="black" stroke-width="1.1629" stroke-dasharray="4.65 4.65"/>
<path d="M402.46 -149V572" stroke="black" stroke-width="1.1629" stroke-dasharray="4.65 4.65"/>
<path d="M460.605 -149V572" stroke="black" stroke-width="1.1629" stroke-dasharray="4.65 4.65"/>
<path d="M518.75 -149V572" stroke="black" stroke-width="1.1629" stroke-dasharray="4.65 4.65"/>
<path d="M-22 328.953L699 328.953" stroke="black" stroke-width="1.1629" stroke-dasharray="4.65 4.65"/>
<path d="M-22 270.808L699 270.808" stroke="black" stroke-width="1.1629" stroke-dasharray="4.65 4.65"/>
<path d="M-22 212.663L699 212.663" stroke="black" stroke-width="1.1629" stroke-dasharray="4.65 4.65"/>
<path d="M-22 154.518L699 154.518" stroke="black" stroke-width="1.1629" stroke-dasharray="4.65 4.65"/>
<path d="M-22 96.3726L699 96.3725" stroke="black" stroke-width="1.1629" stroke-dasharray="4.65 4.65"/>
<path d="M-22 38.2274L699 38.2274" stroke="black" stroke-width="1.1629" stroke-dasharray="4.65 4.65"/>
</g>
</g>
<rect x="181.5" y="178.5" width="79" height="63" rx="3.5" fill="#E1EAF9" stroke="black"/>
<g clip-path="url(#clip0_914_1040)">
<rect x="209" y="198" width="8" height="8" rx="1.85722" stroke="black" stroke-width="2" stroke-linecap="round"/>
<rect x="226" y="214" width="8" height="8" rx="1.85722" stroke="black" stroke-width="2" stroke-linecap="round"/>
<rect x="208.5" y="213.5" width="9" height="9" rx="4.5" stroke="black" stroke-width="2" stroke-linecap="round"/>
<rect x="225.5" y="197.5" width="9" height="9" rx="4.5" stroke="black" stroke-width="2" stroke-linecap="round"/>
<path d="M213 206V213" stroke="black" stroke-width="2" stroke-linecap="square"/>
<path d="M230 207L230 213" stroke="black" stroke-width="2" stroke-linecap="square"/>
<path d="M218 218L224 218" stroke="black" stroke-width="2" stroke-linecap="square"/>
</g>
<rect x="0.5" y="-0.5" width="79" height="19" rx="1.5" transform="matrix(1 0 0 -1 181 269)" fill="black" stroke="black"/>
<path d="M208.448 262.484C208.364 263.732 208.232 264.536 208.04 264.908C207.848 265.268 207.476 265.46 206.9 265.46H204.524C203.948 265.46 203.66 265.076 203.66 264.32V259.232H206.936V256.028H203.456V255.212H207.776V260.072H204.5V264.008C204.5 264.416 204.62 264.632 204.872 264.644H206.756C207.092 264.644 207.308 264.476 207.404 264.14C207.5 263.816 207.56 263.168 207.596 262.208L208.448 262.484ZM197.6 255.2H203.06V256.016H201.5V257.408H202.868V265.652H202.1V265.004H198.68V265.652H197.912V257.408H199.22V256.016H197.6V255.2ZM198.68 264.188H202.1V263.024H198.68V264.188ZM199.388 258.2H198.68V262.232H202.1V261.188H201.488C200.984 261.188 200.732 260.912 200.732 260.36V258.2H199.976V258.98C199.952 260.264 199.688 261.2 199.184 261.8L198.728 261.38C199.16 260.876 199.376 260.084 199.388 258.98V258.2ZM199.964 257.408H200.756V256.016H199.964V257.408ZM202.1 260.516V258.2H201.332V260.204C201.332 260.408 201.428 260.516 201.632 260.516H202.1ZM209.852 258.092H214.52L214.592 257.396H210.656V255.152H219.344V257.396H215.456L215.384 258.092H220.16V258.752H215.288C215.24 258.992 215.204 259.22 215.156 259.436H218.636V264.728H220.376V265.424H209.636V264.728H211.376V259.436H214.292C214.34 259.208 214.376 258.98 214.424 258.752H209.852V258.092ZM212.216 264.728H217.784V263.936H212.216V264.728ZM212.216 263.396H217.784V262.64H212.216V263.396ZM212.216 262.088H217.784V261.332H212.216V262.088ZM212.216 260.792H217.784V260.036H212.216V260.792ZM218.528 256.784V255.788H216.74V256.784H218.528ZM215.948 256.784V255.788H214.052V256.784H215.948ZM213.272 256.784V255.788H211.484V256.784H213.272ZM222.536 254.888C223.34 255.512 224.024 256.124 224.576 256.748L223.952 257.36C223.472 256.772 222.8 256.136 221.948 255.452L222.536 254.888ZM229.508 265.484C228.86 265.484 228.152 265.472 227.396 265.46C226.628 265.448 226.016 265.376 225.536 265.244C225.068 265.1 224.648 264.8 224.276 264.368C224.12 264.164 223.964 264.068 223.82 264.068C223.532 264.068 223.064 264.62 222.404 265.724L221.756 265.136C222.392 264.128 222.956 263.516 223.448 263.3V259.652H221.732V258.86H224.252V263.348C224.348 263.42 224.444 263.516 224.54 263.624C224.828 263.972 225.128 264.224 225.464 264.38C225.824 264.548 226.364 264.644 227.06 264.668C227.684 264.68 228.464 264.692 229.388 264.692C229.952 264.692 230.528 264.68 231.116 264.668C231.692 264.656 232.148 264.644 232.46 264.62L232.256 265.484H229.508ZM225.08 255.932H227.012C227.18 255.512 227.348 255.068 227.492 254.612L228.32 254.804C228.188 255.2 228.056 255.572 227.912 255.932H232.124V256.736H227.576C227.216 257.54 226.808 258.26 226.376 258.884H228.308V257.456H229.136V258.884H231.752V259.676H229.136V261.104H232.28V261.92H229.136V264.152H228.308V261.92H224.984V261.104H228.308V259.676H225.536L225.344 258.884C225.824 258.308 226.268 257.588 226.664 256.736H225.08V255.932ZM239.348 256.724C239.66 257.264 239.936 257.852 240.2 258.5H241.376C241.712 257.9 241.988 257.264 242.228 256.592L243.044 256.88C242.816 257.48 242.564 258.02 242.288 258.5H244.232V259.328H237.536V258.5H239.372C239.132 257.972 238.892 257.492 238.64 257.06L239.348 256.724ZM240.932 254.624C241.064 254.96 241.196 255.344 241.328 255.764H244.016V256.556H237.812V255.764H240.452C240.32 255.404 240.176 255.068 240.032 254.768L240.932 254.624ZM234.944 265.592H233.9L233.72 264.752C234.044 264.776 234.356 264.8 234.644 264.8C234.956 264.8 235.124 264.644 235.124 264.332V261.38C234.644 261.572 234.152 261.752 233.66 261.908L233.444 261.044C234.008 260.9 234.572 260.72 235.124 260.504V257.828H233.66V257H235.124V254.732H236.012V257H237.008V257.828H236.012V260.132C236.348 259.964 236.684 259.796 237.02 259.616V260.492C236.684 260.672 236.348 260.84 236.012 260.996V264.548C236.012 265.244 235.652 265.592 234.944 265.592ZM239.876 259.664L240.704 259.76C240.584 260.084 240.452 260.396 240.308 260.696H244.424V261.536H243.104C242.924 262.424 242.552 263.18 241.988 263.792C242.804 264.176 243.596 264.584 244.352 265.016L243.884 265.712C243.164 265.268 242.336 264.824 241.376 264.368C240.584 264.944 239.324 265.412 237.596 265.748L237.26 264.968C238.652 264.716 239.732 264.38 240.476 263.948C239.744 263.612 238.964 263.288 238.124 262.952C238.448 262.46 238.736 261.992 238.988 261.536H237.38V260.696H239.432C239.6 260.336 239.744 260 239.876 259.664ZM242.288 261.536H239.864C239.648 261.908 239.42 262.268 239.18 262.604C239.876 262.868 240.548 263.144 241.196 263.432C241.736 262.928 242.096 262.304 242.288 261.536Z" fill="white"/>
<rect x="277.5" y="134.5" width="232" height="178" rx="7.5" fill="white" stroke="black" stroke-dasharray="2 4"/>
<rect x="349" y="302" width="90" height="22" rx="11" fill="#E1EAF9"/>
<path d="M390.032 308.624V318.188H389.156V317.444H382.844V318.188H381.968V308.624H384.536C384.8 308.144 385.004 307.664 385.124 307.16L386 307.28C385.868 307.76 385.676 308.216 385.436 308.624H390.032ZM382.844 316.616H389.156V314.66H382.844V316.616ZM382.844 313.868H389.156V312.032H382.844V313.868ZM382.844 311.24H389.156V309.452H382.844V311.24ZM393.08 308.036H397.424V308.864H393.08V308.036ZM392.612 311.276H397.88V312.116H395.108C394.628 313.94 394.208 315.236 393.848 316.028C394.796 315.836 395.744 315.56 396.68 315.212C396.368 314.564 396.068 313.976 395.756 313.424L396.488 313.064C397.064 314.096 397.604 315.212 398.108 316.424L397.364 316.808C397.244 316.496 397.124 316.208 397.004 315.932C395.732 316.388 394.34 316.748 392.852 317.012L392.648 316.196C392.732 316.172 392.792 316.148 392.84 316.124C393.2 315.632 393.68 314.3 394.28 312.116H392.612V311.276ZM399.68 307.232H400.544V309.656H403.16C403.16 313.412 403.1 315.728 402.992 316.616C402.872 317.588 402.284 318.08 401.252 318.08C401.048 318.08 400.7 318.068 400.196 318.044L400.004 317.276C400.436 317.3 400.82 317.324 401.144 317.324C401.732 317.324 402.08 316.976 402.176 316.292C402.248 315.656 402.296 313.724 402.32 310.496H400.544V310.64C400.508 314.096 399.668 316.628 398.036 318.224L397.388 317.66C398.888 316.208 399.656 313.868 399.68 310.64V310.496H398.06V309.656H399.68V307.232ZM410 309.872H411.38V308.924H412.196V309.872H413.588V310.58H412.196V311.708H413.792V312.428H409.808V311.708H411.38V310.58H410V309.872ZM410.192 313.28H413.384V316.34H410.192V313.28ZM412.64 315.632V314H410.936V315.632H412.64ZM415.052 307.676V317.072C415.052 317.78 414.692 318.14 413.972 318.14H412.82L412.616 317.348C413.012 317.372 413.384 317.384 413.72 317.384C414.056 317.384 414.236 317.18 414.236 316.784V308.456H409.376V314.252C409.352 315.872 409.004 317.192 408.308 318.2L407.672 317.612C408.248 316.736 408.536 315.632 408.56 314.3V307.676H415.052ZM405.968 307.34C406.724 307.94 407.36 308.54 407.876 309.14L407.288 309.74C406.808 309.164 406.172 308.564 405.368 307.928L405.968 307.34ZM404.504 310.868H407.012V315.872C407.3 315.608 407.6 315.332 407.912 315.02L408.128 315.872C407.54 316.472 406.916 317.012 406.244 317.492L405.908 316.724C406.076 316.58 406.172 316.424 406.172 316.232V311.696H404.504V310.868ZM418.076 311.384C417.656 311.96 417.188 312.512 416.684 313.028L416.432 312.164C417.728 310.724 418.664 309.08 419.252 307.232L420.032 307.592C419.744 308.456 419.372 309.284 418.94 310.064V318.2H418.076V311.384ZM419.804 310.124H422.276C422.288 309.884 422.3 309.644 422.3 309.404V307.232H423.128V309.404C423.128 309.644 423.116 309.884 423.104 310.124H427.136V310.964H424.64V316.856C424.64 317.096 424.748 317.216 424.988 317.216H426.032C426.164 317.216 426.272 317.144 426.368 317.012C426.476 316.832 426.548 316.196 426.584 315.092L427.364 315.344C427.28 316.616 427.148 317.396 426.98 317.66C426.812 317.876 426.56 317.996 426.248 318.008H424.76C424.124 318.008 423.812 317.672 423.812 317.012V310.964H423.056C422.792 314.168 421.784 316.568 420.056 318.164L419.42 317.612C421.028 316.148 421.964 313.94 422.228 310.964H419.804V310.124ZM424.7 307.448C425.444 307.964 426.08 308.492 426.584 309.02L425.996 309.608C425.54 309.092 424.928 308.552 424.136 307.988L424.7 307.448Z" fill="black"/>
<path d="M367.5 313.59L366.205 312.295L365.5 313L367.5 315L371 311.5L370.295 310.795L367.5 313.59Z" fill="black"/>
<path d="M375 312.5H373.975C373.855 311.088 373.24 309.764 372.238 308.762C371.236 307.76 369.912 307.145 368.5 307.025V306H367.5V307.025C366.088 307.145 364.764 307.76 363.762 308.762C362.76 309.764 362.145 311.088 362.025 312.5H361V313.5H362.025C362.145 314.912 362.76 316.236 363.762 317.238C364.764 318.24 366.088 318.855 367.5 318.975V320H368.5V318.975C369.912 318.855 371.236 318.24 372.238 317.238C373.24 316.236 373.855 314.912 373.975 313.5H375V312.5ZM368.5 317.975V316.5H367.5V317.975C366.353 317.858 365.281 317.349 364.466 316.534C363.651 315.719 363.142 314.647 363.025 313.5H364.5V312.5H363.025C363.142 311.353 363.651 310.281 364.466 309.466C365.281 308.651 366.353 308.142 367.5 308.025V309.5H368.5V308.025C369.647 308.142 370.719 308.651 371.534 309.466C372.349 310.281 372.858 311.353 372.975 312.5H371.5V313.5H372.974C372.858 314.647 372.349 315.718 371.534 316.534C370.718 317.349 369.647 317.858 368.5 317.975Z" fill="black"/>
<rect x="296.5" y="178.5" width="79" height="63" rx="3.5" fill="#A1BCFD" stroke="black"/>
<g clip-path="url(#clip1_914_1040)">
<path d="M332.75 219H324.857C323.832 219 323 218.168 323 217.143V198.857C323 197.832 323.832 197 324.857 197H347.143C348.168 197 349 197.832 349 198.857V205.68" stroke="black" stroke-width="2" stroke-linecap="square"/>
<path d="M324 204L349 204" stroke="black" stroke-width="2" stroke-linecap="square"/>
<mask id="path-38-outside-1_914_1040" maskUnits="userSpaceOnUse" x="335" y="208" width="20" height="18" fill="black">
<rect fill="white" x="335" y="208" width="20" height="18"/>
<path fill-rule="evenodd" clip-rule="evenodd" d="M346.106 210H343.553L343.306 211.687C342.375 211.932 341.539 212.405 340.866 213.042L339.277 212.417L338 214.583L339.331 215.605C339.212 216.051 339.149 216.518 339.149 217C339.149 217.482 339.212 217.949 339.331 218.395L338 219.417L339.277 221.583L340.866 220.958C341.539 221.595 342.375 222.068 343.306 222.313L343.553 224H346.106L346.357 222.276C347.252 222.018 348.055 221.546 348.703 220.923L350.382 221.583L351.658 219.417L350.221 218.313C350.327 217.892 350.382 217.452 350.382 217C350.382 216.548 350.327 216.108 350.221 215.687L351.658 214.583L350.382 212.417L348.703 213.077C348.055 212.454 347.252 211.982 346.357 211.724L346.106 210Z"/>
</mask>
<path d="M343.553 210V208H341.823L341.574 209.711L343.553 210ZM346.106 210L348.085 209.711L347.835 208H346.106V210ZM343.306 211.687L343.815 213.622L345.094 213.286L345.286 211.976L343.306 211.687ZM340.866 213.042L340.134 214.903L341.316 215.368L342.239 214.496L340.866 213.042ZM339.277 212.417L340.008 210.556L338.42 209.932L337.554 211.402L339.277 212.417ZM338 214.583L336.277 213.567L335.379 215.09L336.781 216.168L338 214.583ZM339.331 215.605L341.263 216.121L341.607 214.833L340.55 214.02L339.331 215.605ZM339.331 218.395L340.55 219.98L341.607 219.167L341.263 217.879L339.331 218.395ZM338 219.417L336.781 217.832L335.379 218.91L336.277 220.433L338 219.417ZM339.277 221.583L337.554 222.598L338.42 224.068L340.008 223.444L339.277 221.583ZM340.866 220.958L342.239 219.504L341.316 218.632L340.134 219.097L340.866 220.958ZM343.306 222.313L345.286 222.024L345.094 220.714L343.815 220.378L343.306 222.313ZM343.553 224L341.574 224.289L341.823 226H343.553V224ZM346.106 224V226H347.835L348.085 224.289L346.106 224ZM346.357 222.276L345.802 220.355L344.564 220.712L344.378 221.987L346.357 222.276ZM348.703 220.923L349.434 219.061L348.24 218.592L347.316 219.482L348.703 220.923ZM350.382 221.583L349.65 223.444L351.238 224.068L352.105 222.598L350.382 221.583ZM351.658 219.417L353.381 220.433L354.28 218.91L352.877 217.832L351.658 219.417ZM350.221 218.313L348.281 217.828L347.963 219.1L349.003 219.899L350.221 218.313ZM350.221 215.687L349.003 214.101L347.963 214.9L348.281 216.172L350.221 215.687ZM351.658 214.583L352.877 216.168L354.28 215.09L353.381 213.567L351.658 214.583ZM350.382 212.417L352.105 211.402L351.238 209.932L349.65 210.556L350.382 212.417ZM348.703 213.077L347.316 214.518L348.24 215.408L349.434 214.939L348.703 213.077ZM346.357 211.724L344.378 212.013L344.564 213.288L345.802 213.645L346.357 211.724ZM343.553 212H346.106V208H343.553V212ZM345.286 211.976L345.532 210.289L341.574 209.711L341.327 211.399L345.286 211.976ZM342.239 214.496C342.673 214.086 343.212 213.78 343.815 213.622L342.798 209.753C341.538 210.084 340.406 210.725 339.492 211.588L342.239 214.496ZM338.545 214.279L340.134 214.903L341.597 211.181L340.008 210.556L338.545 214.279ZM339.723 215.598L340.999 213.433L337.554 211.402L336.277 213.567L339.723 215.598ZM340.55 214.02L339.219 212.997L336.781 216.168L338.112 217.191L340.55 214.02ZM341.149 217C341.149 216.694 341.189 216.4 341.263 216.121L337.399 215.09C337.235 215.702 337.149 216.342 337.149 217H341.149ZM341.263 217.879C341.189 217.6 341.149 217.306 341.149 217H337.149C337.149 217.658 337.235 218.298 337.399 218.91L341.263 217.879ZM339.219 221.003L340.55 219.98L338.112 216.809L336.781 217.832L339.219 221.003ZM340.999 220.567L339.723 218.402L336.277 220.433L337.554 222.598L340.999 220.567ZM340.134 219.097L338.545 219.721L340.008 223.444L341.597 222.819L340.134 219.097ZM343.815 220.378C343.212 220.22 342.673 219.914 342.239 219.504L339.492 222.412C340.406 223.275 341.538 223.916 342.798 224.247L343.815 220.378ZM345.532 223.711L345.286 222.024L341.327 222.601L341.574 224.289L345.532 223.711ZM346.106 222H343.553V226H346.106V222ZM344.378 221.987L344.127 223.711L348.085 224.289L348.336 222.565L344.378 221.987ZM347.316 219.482C346.899 219.883 346.381 220.187 345.802 220.355L346.912 224.198C348.124 223.848 349.211 223.21 350.09 222.364L347.316 219.482ZM351.114 219.721L349.434 219.061L347.971 222.784L349.65 223.444L351.114 219.721ZM349.936 218.402L348.659 220.567L352.105 222.598L353.381 220.433L349.936 218.402ZM349.003 219.899L350.44 221.003L352.877 217.832L351.44 216.727L349.003 219.899ZM348.382 217C348.382 217.287 348.347 217.564 348.281 217.828L352.162 218.798C352.306 218.22 352.382 217.618 352.382 217H348.382ZM348.281 216.172C348.347 216.436 348.382 216.713 348.382 217H352.382C352.382 216.382 352.306 215.78 352.162 215.202L348.281 216.172ZM350.44 212.997L349.003 214.101L351.44 217.273L352.877 216.168L350.44 212.997ZM348.659 213.433L349.936 215.598L353.381 213.567L352.105 211.402L348.659 213.433ZM349.434 214.939L351.114 214.279L349.65 210.556L347.971 211.216L349.434 214.939ZM345.802 213.645C346.381 213.813 346.899 214.117 347.316 214.518L350.09 211.636C349.211 210.79 348.124 210.152 346.912 209.802L345.802 213.645ZM344.127 210.289L344.378 212.013L348.336 211.435L348.085 209.711L344.127 210.289Z" fill="black" mask="url(#path-38-outside-1_914_1040)"/>
<ellipse cx="344.829" cy="217" rx="3.06373" ry="3" stroke="black" stroke-width="2" stroke-linecap="round"/>
</g>
<rect x="0.5" y="-0.5" width="79" height="19" rx="1.5" transform="matrix(1 0 0 -1 296 269)" fill="black" stroke="black"/>
<path d="M323.448 262.484C323.364 263.732 323.232 264.536 323.04 264.908C322.848 265.268 322.476 265.46 321.9 265.46H319.524C318.948 265.46 318.66 265.076 318.66 264.32V259.232H321.936V256.028H318.456V255.212H322.776V260.072H319.5V264.008C319.5 264.416 319.62 264.632 319.872 264.644H321.756C322.092 264.644 322.308 264.476 322.404 264.14C322.5 263.816 322.56 263.168 322.596 262.208L323.448 262.484ZM312.6 255.2H318.06V256.016H316.5V257.408H317.868V265.652H317.1V265.004H313.68V265.652H312.912V257.408H314.22V256.016H312.6V255.2ZM313.68 264.188H317.1V263.024H313.68V264.188ZM314.388 258.2H313.68V262.232H317.1V261.188H316.488C315.984 261.188 315.732 260.912 315.732 260.36V258.2H314.976V258.98C314.952 260.264 314.688 261.2 314.184 261.8L313.728 261.38C314.16 260.876 314.376 260.084 314.388 258.98V258.2ZM314.964 257.408H315.756V256.016H314.964V257.408ZM317.1 260.516V258.2H316.332V260.204C316.332 260.408 316.428 260.516 316.632 260.516H317.1ZM324.852 258.092H329.52L329.592 257.396H325.656V255.152H334.344V257.396H330.456L330.384 258.092H335.16V258.752H330.288C330.24 258.992 330.204 259.22 330.156 259.436H333.636V264.728H335.376V265.424H324.636V264.728H326.376V259.436H329.292C329.34 259.208 329.376 258.98 329.424 258.752H324.852V258.092ZM327.216 264.728H332.784V263.936H327.216V264.728ZM327.216 263.396H332.784V262.64H327.216V263.396ZM327.216 262.088H332.784V261.332H327.216V262.088ZM327.216 260.792H332.784V260.036H327.216V260.792ZM333.528 256.784V255.788H331.74V256.784H333.528ZM330.948 256.784V255.788H329.052V256.784H330.948ZM328.272 256.784V255.788H326.484V256.784H328.272ZM341.808 257.24C341.256 258.404 340.62 259.412 339.9 260.276L339.288 259.544C340.344 258.296 341.22 256.652 341.892 254.624L342.756 254.816C342.564 255.368 342.372 255.896 342.18 256.388H347.364V257.24H343.332V259.22H346.836V260.06H343.332V262.088H346.908V262.916H343.332V265.712H342.456V257.24H341.808ZM337.968 258.968C337.584 259.472 337.164 259.952 336.708 260.408L336.42 259.496C337.716 258.092 338.664 256.484 339.252 254.66L340.068 255.044C339.744 255.98 339.336 256.856 338.856 257.672V265.712H337.968V258.968ZM352.26 254.816H353.136V264.356H354.84V254.816H355.716V264.356H359.316V265.196H348.684V264.356H352.26V254.816ZM358.224 257L358.992 257.216C358.512 259.304 357.912 261.128 357.18 262.7L356.4 262.424C357.096 261.008 357.708 259.196 358.224 257ZM349.716 256.976C350.34 258.596 350.904 260.456 351.396 262.556L350.604 262.76C350.172 260.84 349.632 258.992 348.984 257.216L349.716 256.976Z" fill="white"/>
<rect x="66.5" y="178.5" width="79" height="63" rx="3.5" fill="#B0F2FF" stroke="black"/>
<g clip-path="url(#clip2_914_1040)">
<rect x="93" y="197" width="26" height="19" rx="1.85722" stroke="black" stroke-width="2" stroke-linecap="round"/>
<path d="M98 223H114" stroke="black" stroke-width="2" stroke-linecap="square"/>
<path d="M100 203L97 206L100 209" stroke="black" stroke-width="2" stroke-linecap="square"/>
<path d="M112 203L115 206L112 209" stroke="black" stroke-width="2" stroke-linecap="square"/>
<path d="M102 216V222" stroke="black" stroke-width="2" stroke-linecap="square"/>
<path d="M110 216V222" stroke="black" stroke-width="2" stroke-linecap="square"/>
<path d="M108 202L104 210" stroke="black" stroke-width="2" stroke-linecap="square"/>
</g>
<rect x="0.5" y="-0.5" width="79" height="19" rx="1.5" transform="matrix(1 0 0 -1 66 269)" fill="black" stroke="black"/>
<path d="M82.66 255.332H93.328V256.184H88.12V257.996C89.608 258.74 91.12 259.604 92.656 260.588L92.14 261.356C90.544 260.3 89.2 259.484 88.12 258.908V265.724H87.244V256.184H82.66V255.332ZM95.344 255.668H97.684V254.66H98.524V255.668H100.696V256.46H98.524V257.564H101.404C101.356 256.664 101.332 255.692 101.332 254.636H102.172C102.172 255.728 102.196 256.7 102.244 257.564H105.268V258.344H102.292C102.364 259.412 102.46 260.288 102.592 260.96C102.664 261.308 102.736 261.632 102.808 261.944C103.24 261.08 103.588 260.072 103.852 258.944L104.62 259.292C104.236 260.792 103.744 262.052 103.144 263.06C103.24 263.336 103.348 263.576 103.456 263.792C103.768 264.38 104.02 264.68 104.212 264.68C104.404 264.668 104.572 264.032 104.716 262.76L105.46 263.156C105.196 264.752 104.824 265.556 104.32 265.556C103.912 265.556 103.468 265.184 103 264.464C102.868 264.26 102.748 264.044 102.652 263.816C102.028 264.632 101.32 265.244 100.528 265.676L100.06 264.98C100.924 264.5 101.668 263.804 102.28 262.88C102.112 262.352 101.956 261.776 101.824 261.14C101.656 260.348 101.524 259.424 101.452 258.344H94.72V257.564H97.684V256.46H95.344V255.668ZM103.408 254.792C104.008 255.464 104.476 256.052 104.8 256.556L104.152 257.012C103.816 256.472 103.348 255.872 102.748 255.212L103.408 254.792ZM100.696 263.252V264.02C100.096 264.092 99.472 264.176 98.824 264.248V265.664H97.972V264.332C97.108 264.416 96.196 264.488 95.236 264.56L95.128 263.756C96.136 263.696 97.084 263.624 97.972 263.552V262.484H95.632L95.464 261.776C95.8 261.368 96.112 260.876 96.4 260.276H95.08V259.508H96.736C96.856 259.22 96.964 258.908 97.072 258.596L97.9 258.752C97.804 259.016 97.708 259.268 97.612 259.508H100.756V260.276H97.276C97.012 260.828 96.724 261.32 96.424 261.752H97.972V260.816H98.824V261.752H100.648V262.484H98.824V263.468C99.484 263.396 100.108 263.324 100.696 263.252ZM108.256 257.144C108.544 257.696 108.82 258.368 109.06 259.16H110.32C110.668 258.5 110.968 257.792 111.208 257.048L112.012 257.324C111.76 258.008 111.484 258.62 111.172 259.16H112.624V260H106.612V259.16H108.232C108.016 258.536 107.764 257.96 107.464 257.432L108.256 257.144ZM113.176 255.2H117.112V255.848C116.74 257.108 116.344 258.284 115.912 259.364C116.812 260.492 117.268 261.428 117.28 262.148C117.28 262.892 117.124 263.408 116.812 263.696C116.476 263.984 115.816 264.14 114.832 264.14L114.556 263.228C114.892 263.252 115.168 263.276 115.396 263.276C115.828 263.252 116.104 263.168 116.224 263.024C116.344 262.868 116.404 262.58 116.416 262.148C116.404 261.44 115.924 260.516 114.988 259.364C115.384 258.416 115.78 257.288 116.164 255.992H114.016V265.676H113.176V255.2ZM106.84 255.86H109.252C109.108 255.464 108.964 255.104 108.808 254.78L109.696 254.624C109.828 254.984 109.96 255.404 110.092 255.86H112.54V256.7H106.84V255.86ZM112.072 261.092V265.616H111.22V264.944H108.148V265.616H107.296V261.092H112.072ZM108.148 264.128H111.22V261.908H108.148V264.128ZM119.728 255.14H128.224V257.42H124.036V258.2H126.592V258.896H124.036V259.76H125.572C126.508 259.184 127.324 258.512 128.008 257.744L128.716 258.116C128.152 258.716 127.504 259.268 126.784 259.76H129.316V260.504H125.548C124.924 260.828 124.276 261.116 123.58 261.38H127.804V265.784H126.952V265.244H121.852V265.784H121V262.16C120.4 262.304 119.776 262.424 119.14 262.544L118.672 261.824C120.76 261.608 122.572 261.164 124.12 260.504H118.744V259.76H123.196V258.896H120.052V258.2H123.196V257.42H119.728V255.14ZM127.396 256.784V255.788H125.632V256.784H127.396ZM124.852 256.784V255.788H123.124V256.784H124.852ZM122.344 256.784V255.788H120.556V256.784H122.344ZM121.852 263.636V264.536H126.952V263.636H121.852ZM126.952 262.976V262.052H121.852V262.976H126.952Z" fill="white"/>
<path d="M176.354 211.354C176.549 211.158 176.549 210.842 176.354 210.646L173.172 207.464C172.976 207.269 172.66 207.269 172.464 207.464C172.269 207.66 172.269 207.976 172.464 208.172L175.293 211L172.464 213.828C172.269 214.024 172.269 214.34 172.464 214.536C172.66 214.731 172.976 214.731 173.172 214.536L176.354 211.354ZM150 211.5L176 211.5L176 210.5L150 210.5L150 211.5Z" fill="black"/>
<path d="M292.354 211.354C292.549 211.158 292.549 210.842 292.354 210.646L289.172 207.464C288.976 207.269 288.66 207.269 288.464 207.464C288.269 207.66 288.269 207.976 288.464 208.172L291.293 211L288.464 213.828C288.269 214.024 288.269 214.34 288.464 214.536C288.66 214.731 288.976 214.731 289.172 214.536L292.354 211.354ZM266 211.5L292 211.5L292 210.5L266 210.5L266 211.5Z" fill="black"/>
<path d="M408.354 211.354C408.549 211.158 408.549 210.842 408.354 210.646L405.172 207.464C404.976 207.269 404.66 207.269 404.464 207.464C404.269 207.66 404.269 207.976 404.464 208.172L407.293 211L404.464 213.828C404.269 214.024 404.269 214.34 404.464 214.536C404.66 214.731 404.976 214.731 405.172 214.536L408.354 211.354ZM382 211.5L408 211.5L408 210.5L382 210.5L382 211.5Z" fill="black"/>
<rect x="411.5" y="178.5" width="79" height="63" rx="3.5" fill="#A2D8FF" stroke="black"/>
<g clip-path="url(#clip3_914_1040)">
<rect x="439" y="195" width="21" height="8" rx="1.85722" stroke="black" stroke-width="2" stroke-linecap="round"/>
<path d="M450 198V200" stroke="black" stroke-width="2" stroke-linecap="square"/>
<path d="M454 198V200" stroke="black" stroke-width="2" stroke-linecap="square"/>
<rect x="445" y="217" width="21" height="8" rx="1.85722" stroke="black" stroke-width="2" stroke-linecap="round"/>
<path d="M456 220V222" stroke="black" stroke-width="2" stroke-linecap="square"/>
<path d="M460 220V222" stroke="black" stroke-width="2" stroke-linecap="square"/>
<path d="M450 204V207C450 207.552 450.448 208 451 208H457C457.552 208 458 208.448 458 209V214" stroke="black" stroke-width="2" stroke-linecap="square"/>
<path d="M455 213L457.293 215.293C457.683 215.683 458.317 215.683 458.707 215.293L461 213" stroke="black" stroke-width="2" stroke-linecap="square"/>
</g>
<rect x="0.5" y="-0.5" width="79" height="19" rx="1.5" transform="matrix(1 0 0 -1 411 269)" fill="black" stroke="black"/>
<path d="M428.344 255.416H437.692V256.256H435.688V259.436H438.316V260.264H435.688V265.58H434.812V260.264H431.344C431.236 261.5 431.008 262.52 430.648 263.336C430.192 264.344 429.436 265.124 428.38 265.676L427.912 264.932C428.884 264.38 429.568 263.648 429.952 262.736C430.204 262.04 430.372 261.224 430.468 260.264H427.696V259.436H430.516C430.516 259.28 430.528 259.136 430.528 259.016V256.256H428.344V255.416ZM431.416 256.256V259.016C431.416 259.16 431.404 259.304 431.404 259.436H434.812V256.256H431.416ZM440.968 254.648L441.82 254.72C441.712 255.536 441.604 256.292 441.496 256.988H443.272V257.492C443.176 259.436 442.84 261.104 442.264 262.52C442.828 263.108 443.296 263.636 443.656 264.116L443.08 264.788C442.744 264.344 442.348 263.864 441.88 263.36C441.4 264.272 440.812 265.064 440.092 265.736L439.552 265.052C440.26 264.404 440.836 263.636 441.292 262.724C440.812 262.232 440.296 261.728 439.744 261.2C440.032 260.156 440.284 259.028 440.5 257.816H439.54V256.988H440.644C440.764 256.232 440.872 255.452 440.968 254.648ZM441.652 261.896C442.108 260.696 442.372 259.34 442.456 257.816H441.364C441.136 259.076 440.908 260.12 440.668 260.948C441.016 261.272 441.34 261.584 441.652 261.896ZM449.608 260.6V265.712H448.78V264.992H445.108V265.712H444.28V260.6H449.608ZM445.108 264.176H448.78V261.392H445.108V264.176ZM443.812 259.52L443.68 258.74C444.376 258.38 445.24 257.036 446.272 254.684L447.088 254.96C446.368 256.52 445.66 257.756 444.94 258.68C446.284 258.596 447.568 258.452 448.78 258.26C448.444 257.6 448.108 256.988 447.76 256.436L448.504 256.076C449.164 257.132 449.788 258.284 450.364 259.544L449.56 259.928C449.416 259.604 449.284 259.292 449.14 258.992C447.544 259.22 445.768 259.4 443.812 259.52ZM452.476 254.816C453.292 255.452 453.988 256.076 454.552 256.7L453.94 257.312C453.436 256.712 452.752 256.076 451.876 255.38L452.476 254.816ZM459.484 265.484C458.836 265.484 458.14 265.472 457.384 265.46C456.628 265.448 456.004 265.376 455.524 265.244C455.068 265.1 454.648 264.8 454.276 264.368C454.12 264.164 453.964 264.068 453.82 264.068C453.532 264.068 453.052 264.62 452.38 265.724L451.732 265.136C452.38 264.128 452.944 263.516 453.448 263.3V259.652H451.732V258.86H454.252V263.36C454.348 263.432 454.432 263.516 454.528 263.624C454.816 263.972 455.116 264.224 455.452 264.38C455.812 264.548 456.352 264.644 457.048 264.668C457.672 264.68 458.44 264.692 459.364 264.692C459.94 264.692 460.528 264.68 461.128 264.668C461.704 264.656 462.16 264.644 462.484 264.62L462.268 265.484H459.484ZM455.896 255.38H461.404V256.172H455.896V255.38ZM455.164 258.104H462.28V258.932H458.536C457.876 260.636 457.288 261.848 456.76 262.568C458.32 262.4 459.604 262.184 460.624 261.944C460.336 261.272 460.012 260.624 459.664 260L460.372 259.772C461.02 260.876 461.596 262.136 462.1 263.552L461.332 263.756C461.212 263.384 461.08 263.024 460.936 262.688C459.616 263 457.888 263.252 455.752 263.456L455.536 262.7C456.04 262.556 456.748 261.296 457.684 258.932H455.164V258.104ZM468.1 255.464H473.848V256.316H468.1V255.464ZM467.776 258.512H474.376V259.364H472.432V264.608C472.432 265.304 472.036 265.652 471.268 265.652H469.504L469.324 264.8C469.9 264.836 470.44 264.86 470.968 264.86C471.352 264.86 471.556 264.704 471.556 264.392V259.364H467.776V258.512ZM466.204 254.804L466.984 255.164C466.312 256.496 465.232 257.672 463.744 258.692L463.492 257.828C464.74 256.94 465.64 255.932 466.204 254.804ZM466.768 257.54L467.548 257.9C467.2 258.572 466.768 259.22 466.24 259.82V265.7H465.388V260.696C464.908 261.128 464.392 261.548 463.816 261.944L463.564 261.08C465.028 260.048 466.096 258.872 466.768 257.54Z" fill="white"/>
<path d="M66 106V84C66 79.5817 69.5817 76 74 76H501C505.418 76 509 79.5817 509 84V106" stroke="black"/>
<rect x="180.5" y="61.5" width="215" height="29" rx="14.5" fill="#0165FF" stroke="black"/>
<path d="M232.719 70.352C233.759 70.352 234.607 70.624 235.247 71.2C235.887 71.76 236.207 72.528 236.207 73.504C236.207 74.304 235.999 74.96 235.615 75.472C235.471 75.632 235.007 76.064 234.239 76.736C233.951 76.96 233.743 77.232 233.599 77.52C233.439 77.84 233.359 78.192 233.359 78.576V78.8H231.519V78.576C231.519 77.968 231.615 77.44 231.839 77.008C232.047 76.576 232.671 75.904 233.711 74.976L233.903 74.752C234.191 74.4 234.335 74.016 234.335 73.616C234.335 73.088 234.175 72.672 233.887 72.368C233.583 72.064 233.151 71.92 232.607 71.92C231.919 71.92 231.423 72.128 231.103 72.56C230.831 72.928 230.703 73.456 230.703 74.144H228.879C228.879 72.96 229.215 72.032 229.919 71.36C230.607 70.688 231.535 70.352 232.719 70.352ZM232.431 79.584C232.783 79.584 233.087 79.696 233.327 79.92C233.551 80.144 233.679 80.432 233.679 80.784C233.679 81.136 233.551 81.44 233.327 81.664C233.071 81.888 232.783 82 232.431 82C232.079 82 231.791 81.872 231.567 81.648C231.311 81.424 231.199 81.136 231.199 80.784C231.199 80.432 231.311 80.144 231.567 79.92C231.791 79.696 232.079 79.584 232.431 79.584ZM242.521 69.136L243.961 70.016C243.225 71.328 242.473 72.416 241.721 73.248C240.985 74.08 239.929 74.992 238.521 76L237.609 74.512C238.601 73.968 239.561 73.2 240.457 72.192C241.177 71.36 241.865 70.352 242.521 69.136ZM242.953 76.656H240.073V75.04H249.801C249.737 77.12 249.641 78.784 249.481 80.064C249.321 81.344 249.065 82.224 248.681 82.736C248.313 83.216 247.721 83.488 246.905 83.536H243.833L243.385 81.888C244.329 81.92 245.225 81.952 246.057 81.952C246.841 81.952 247.353 81.616 247.609 80.976C247.865 80.304 248.041 78.864 248.105 76.656H244.649C244.281 78.288 243.785 79.584 243.145 80.56C242.313 81.728 241.081 82.784 239.449 83.712L238.361 82.32C239.801 81.552 240.889 80.704 241.625 79.776C242.185 78.976 242.633 77.936 242.953 76.656ZM247.529 68.944C248.393 71.328 250.009 73.216 252.377 74.592L251.241 75.92C248.777 74.336 247.049 72.288 246.073 69.76L247.529 68.944ZM255.609 68.896L257.177 69.232C257.049 69.696 256.937 70.128 256.809 70.528H259.449V72.048H256.265C256.009 72.64 255.753 73.2 255.481 73.728H259.257V75.232H257.721V76.736H259.561V78.272H257.721V81.36C258.409 81.12 259.097 80.816 259.785 80.432L260.057 81.888C258.921 82.464 257.609 82.928 256.121 83.312L255.465 81.92C255.881 81.776 256.089 81.568 256.089 81.28V78.272H254.057V76.736H256.089V75.232H255.321V74.016C255.129 74.336 254.953 74.64 254.777 74.928L253.449 74.08C254.473 72.448 255.193 70.72 255.609 68.896ZM263.177 68.912H264.825V71.584H267.945V79.12H266.377V78.368H264.825V83.712H263.177V78.368H261.689V79.12H260.153V71.584H263.177V68.912ZM261.689 76.864H263.177V73.12H261.689V76.864ZM264.825 76.864H266.377V73.12H264.825V76.864ZM271.593 83.52H270.121L269.753 81.936C270.201 82 270.617 82.032 271.017 82.032C271.305 82.032 271.449 81.84 271.449 81.456V78.256C270.953 78.448 270.457 78.624 269.977 78.784L269.561 77.184C270.201 77.024 270.841 76.848 271.449 76.624V73.344H269.833V71.76H271.449V68.928H273.113V71.76H274.457V73.344H273.113V75.92C273.529 75.712 273.945 75.488 274.361 75.264V76.896C273.945 77.12 273.529 77.328 273.113 77.536V81.872C273.113 82.96 272.601 83.52 271.593 83.52ZM275.833 72.272H282.857V75.552H275.833V72.272ZM281.305 74.336V73.488H277.385V74.336H281.305ZM277.321 78.352H281.321V81.712H277.321V78.352ZM280.041 80.512V79.536H278.585V80.512H280.041ZM279.481 68.768C279.673 69.168 279.865 69.616 280.057 70.112H284.137V71.616H274.505V70.112H278.425C278.265 69.728 278.073 69.36 277.865 69.024L279.481 68.768ZM282.361 83.616H281.129L280.713 82.144L281.881 82.192C282.217 82.192 282.393 82.016 282.393 81.68V77.648H276.329V83.664H274.761V76.208H283.961V82.016C283.961 83.072 283.417 83.616 282.361 83.616ZM288.249 73.44H297.785V75.008H293.913V77.248H298.457V78.816H293.913V81.632C295.001 81.792 296.329 81.872 297.897 81.888C298.697 81.888 299.513 81.84 300.361 81.76L300.025 83.408H298.633C295.209 83.408 292.777 83.104 291.305 82.496C290.313 82.032 289.481 81.344 288.825 80.448C288.217 81.712 287.481 82.768 286.601 83.632L285.529 82.288C287.017 80.752 288.025 78.688 288.537 76.096L290.153 76.384C289.961 77.296 289.737 78.144 289.449 78.944C290.185 80.144 291.113 80.912 292.233 81.264H292.249V75.008H288.249V73.44ZM299.769 70.32V74.032H298.137V71.856H287.865V74.112H286.233V70.32H292.201C291.977 69.84 291.753 69.392 291.497 68.992L293.289 68.704C293.513 69.184 293.721 69.728 293.929 70.32H299.769ZM305.977 70.352C307.081 70.352 307.993 70.672 308.713 71.312C309.417 71.952 309.769 72.768 309.769 73.792C309.769 74.784 309.385 75.68 308.649 76.496C308.201 76.976 307.401 77.584 306.281 78.336C305.113 79.104 304.409 79.776 304.153 80.352H309.785V82H301.817C301.817 80.832 302.185 79.824 302.953 78.96C303.369 78.48 304.249 77.776 305.577 76.864C306.313 76.352 306.825 75.92 307.145 75.584C307.641 75.024 307.897 74.416 307.897 73.776C307.897 73.152 307.721 72.688 307.401 72.384C307.065 72.08 306.569 71.936 305.913 71.936C305.209 71.936 304.681 72.176 304.329 72.656C303.977 73.104 303.785 73.792 303.753 74.688H301.881C301.897 73.408 302.265 72.384 303.001 71.6C303.753 70.768 304.745 70.352 305.977 70.352ZM315.394 70.352C316.722 70.352 317.762 70.896 318.514 72.016C319.218 73.072 319.57 74.496 319.57 76.288C319.57 78.08 319.218 79.504 318.514 80.56C317.762 81.664 316.722 82.224 315.394 82.224C314.05 82.224 313.01 81.664 312.274 80.56C311.57 79.504 311.218 78.08 311.218 76.288C311.218 74.496 311.57 73.072 312.274 72.016C313.01 70.896 314.05 70.352 315.394 70.352ZM315.394 71.936C314.482 71.936 313.842 72.432 313.474 73.456C313.218 74.144 313.09 75.088 313.09 76.288C313.09 77.472 313.218 78.416 313.474 79.12C313.842 80.128 314.482 80.64 315.394 80.64C316.29 80.64 316.93 80.128 317.314 79.12C317.57 78.416 317.698 77.472 317.698 76.288C317.698 75.088 317.57 74.144 317.314 73.456C316.93 72.432 316.29 71.936 315.394 71.936ZM324.988 70.352C326.316 70.352 327.356 70.896 328.108 72.016C328.812 73.072 329.164 74.496 329.164 76.288C329.164 78.08 328.812 79.504 328.108 80.56C327.356 81.664 326.316 82.224 324.988 82.224C323.644 82.224 322.604 81.664 321.868 80.56C321.164 79.504 320.812 78.08 320.812 76.288C320.812 74.496 321.164 73.072 321.868 72.016C322.604 70.896 323.644 70.352 324.988 70.352ZM324.988 71.936C324.076 71.936 323.436 72.432 323.068 73.456C322.812 74.144 322.684 75.088 322.684 76.288C322.684 77.472 322.812 78.416 323.068 79.12C323.436 80.128 324.076 80.64 324.988 80.64C325.884 80.64 326.524 80.128 326.908 79.12C327.164 78.416 327.292 77.472 327.292 76.288C327.292 75.088 327.164 74.144 326.908 73.456C326.524 72.432 325.884 71.936 324.988 71.936ZM334.582 70.352C335.91 70.352 336.95 70.896 337.702 72.016C338.406 73.072 338.758 74.496 338.758 76.288C338.758 78.08 338.406 79.504 337.702 80.56C336.95 81.664 335.91 82.224 334.582 82.224C333.238 82.224 332.198 81.664 331.462 80.56C330.758 79.504 330.406 78.08 330.406 76.288C330.406 74.496 330.758 73.072 331.462 72.016C332.198 70.896 333.238 70.352 334.582 70.352ZM334.582 71.936C333.67 71.936 333.03 72.432 332.662 73.456C332.406 74.144 332.278 75.088 332.278 76.288C332.278 77.472 332.406 78.416 332.662 79.12C333.03 80.128 333.67 80.64 334.582 80.64C335.478 80.64 336.118 80.128 336.502 79.12C336.758 78.416 336.886 77.472 336.886 76.288C336.886 75.088 336.758 74.144 336.502 73.456C336.118 72.432 335.478 71.936 334.582 71.936ZM346.752 68.88H348.368V75.296H354.608V76.928H351.264C352.128 79.2 353.344 80.944 354.896 82.176L353.744 83.472C352 81.968 350.672 79.792 349.76 76.928H348.368V81.664C349.136 81.376 349.904 81.008 350.688 80.544L351.008 82.128C349.792 82.8 348.416 83.344 346.848 83.776L346.128 82.24C346.544 82.08 346.752 81.824 346.752 81.472V76.928H345.648V75.296H346.752V68.88ZM352.928 69.568L354.08 70.768C353.12 72.16 351.696 73.424 349.776 74.56L348.8 73.248C350.656 72.16 352.032 70.944 352.928 69.568ZM342.112 74.448L341.856 76.544H345.248C345.248 79.28 345.152 81.104 344.976 82.032C344.784 82.96 343.92 83.472 342.4 83.568C341.952 83.568 341.504 83.536 341.04 83.504L340.624 81.984C341.072 82.016 341.552 82.048 342.032 82.048C342.848 82.048 343.312 81.792 343.44 81.28C343.552 80.784 343.616 79.712 343.616 78.048H340.112L340.64 72.928H343.424V70.896H340.208V69.36H345.008V74.448H342.112ZM356.944 70.08H362.528V68.896H364.224V70.08H369.808V71.616H364.224V72.656H368.88V74.192H364.224V75.232H370.368V76.752H364.784C365.152 77.568 365.6 78.304 366.128 78.976C366.928 78.56 367.696 77.936 368.416 77.136L369.568 78.256C368.816 78.992 367.984 79.584 367.088 80.016C368.064 80.944 369.216 81.648 370.56 82.144L369.648 83.616C366.752 82.416 364.624 80.128 363.264 76.752H362.928C362.4 77.488 361.744 78.16 360.96 78.8V81.648C362.032 81.312 363.104 80.928 364.16 80.512L364.496 82.048C362.752 82.72 360.992 83.264 359.2 83.696L358.656 82.272C359.104 82.08 359.328 81.808 359.328 81.44V79.92C358.56 80.368 357.728 80.768 356.832 81.152L355.936 79.696C358.272 78.912 360 77.936 361.136 76.752H356.384V75.232H362.528V74.192H357.872V72.656H362.528V71.616H356.944V70.08Z" fill="white"/>
<g clip-path="url(#clip4_914_1040)">
<path d="M212.332 84.7757C212.204 84.7217 212.098 84.6266 212.03 84.5055C211.962 84.3845 211.936 84.2442 211.957 84.1069L213.094 76.7007H210.076C209.98 76.7032 209.885 76.6838 209.798 76.6438C209.711 76.6039 209.634 76.5444 209.574 76.4702C209.513 76.3959 209.471 76.3087 209.45 76.2154C209.428 76.1221 209.429 76.0251 209.451 75.9319L211.326 67.8069C211.359 67.6671 211.439 67.5429 211.553 67.4552C211.666 67.3676 211.807 67.3218 211.951 67.3257H218.201C218.294 67.3253 218.386 67.346 218.471 67.386C218.555 67.426 218.629 67.4844 218.688 67.5569C218.748 67.6302 218.79 67.7162 218.812 67.8082C218.833 67.9002 218.834 67.9959 218.813 68.0882L217.732 72.9507H220.701C220.818 72.9504 220.933 72.9831 221.032 73.045C221.132 73.1069 221.212 73.1955 221.263 73.3007C221.308 73.4016 221.325 73.5127 221.313 73.6224C221.301 73.7322 221.26 73.8369 221.194 73.9257L213.069 84.5507C213.014 84.6321 212.941 84.6994 212.855 84.7472C212.77 84.7949 212.674 84.8218 212.576 84.8257C212.492 84.8241 212.409 84.8072 212.332 84.7757ZM216.169 74.2007L217.419 68.5757H212.451L210.863 75.4507H214.557L213.563 81.8757L219.451 74.2007H216.169Z" fill="white"/>
</g>
<defs>
<linearGradient id="paint0_linear_914_1040" x1="288" y1="0" x2="429.769" y2="493.705" gradientUnits="userSpaceOnUse">
<stop stop-color="#E8EEFF"/>
<stop offset="1" stop-color="#EFFDFF"/>
</linearGradient>
<radialGradient id="paint1_radial_914_1040" cx="0" cy="0" r="1" gradientUnits="userSpaceOnUse" gradientTransform="translate(106.479 18.5526) rotate(71.6774) scale(467.74 391.198)">
<stop stop-color="#AEDEF5"/>
<stop offset="1" stop-color="#66828F" stop-opacity="0"/>
</radialGradient>
<clipPath id="clip0_914_1040">
<rect x="201" y="190" width="40" height="40" rx="8" fill="white"/>
</clipPath>
<clipPath id="clip1_914_1040">
<rect x="316" y="190" width="40" height="40" rx="8" fill="white"/>
</clipPath>
<clipPath id="clip2_914_1040">
<rect x="86" y="190" width="40" height="40" rx="8" fill="white"/>
</clipPath>
<clipPath id="clip3_914_1040">
<rect x="431" y="190" width="40" height="40" rx="8" fill="white"/>
</clipPath>
<clipPath id="clip4_914_1040">
<rect width="20" height="20" fill="white" transform="translate(205 66)"/>
</clipPath>
</defs>
</svg>
