<svg width="201" height="201" viewBox="0 0 201 201" fill="none" xmlns="http://www.w3.org/2000/svg">
<path d="M100.774 16.656C54.3819 16.656 16.7739 54.264 16.7739 100.656C16.7739 147.048 54.3819 184.656 100.774 184.656C147.166 184.656 184.774 147.048 184.774 100.656C184.774 54.264 147.166 16.656 100.774 16.656ZM137.93 93.266L127.584 108.041L110.498 132.442H136.082L102.962 143.204L61.5629 156.656V156.652L78.5129 132.443H78.517L95.5989 108.042H63.619L73.9689 93.267L91.0549 68.866H65.4709L98.5909 58.105L139.986 44.657L123.036 68.866H123.032L105.95 93.267H137.931L137.93 93.266Z" fill="url(#paint0_linear_22_656)"/>
<defs>
<linearGradient id="paint0_linear_22_656" x1="16.7739" y1="100.656" x2="184.774" y2="100.656" gradientUnits="userSpaceOnUse">
<stop stop-color="#19DEF8"/>
<stop offset="0.142" stop-color="#14C0F5"/>
<stop offset="0.431" stop-color="#0B8AF1"/>
<stop offset="0.681" stop-color="#0562EE"/>
<stop offset="0.879" stop-color="#0149EC"/>
<stop offset="1" stop-color="#0041EC"/>
</linearGradient>
</defs>
</svg>
