<svg width="1120" height="320" viewBox="0 0 1120 320" fill="none" xmlns="http://www.w3.org/2000/svg">
<mask id="mask0_262_5781" style="mask-type:alpha" maskUnits="userSpaceOnUse" x="0" y="0" width="1120" height="320">
<rect width="1120" height="320" rx="16" fill="#F2F7FE"/>
</mask>
<g mask="url(#mask0_262_5781)">
<rect width="1120" height="320" rx="16" fill="#F2F7FE"/>
<g opacity="0.1">
<rect x="-65" y="-98.8794" width="173.715" height="176.517" rx="22.4149" fill="#84A1ED"/>
<rect opacity="0.3" x="-65" y="83.2417" width="173.715" height="176.517" rx="22.4149" fill="#84A1ED"/>
<rect opacity="0.5" x="-65" y="265.362" width="173.715" height="176.517" rx="22.4149" fill="#84A1ED"/>
<rect opacity="0.1" x="114.319" y="-98.8794" width="173.715" height="176.517" rx="22.4149" fill="#84A1ED"/>
<rect x="114.319" y="83.2417" width="173.715" height="176.517" rx="22.4149" fill="#84A1ED"/>
<rect x="114.319" y="265.362" width="173.715" height="176.517" rx="22.4149" fill="#84A1ED"/>
<rect x="293.638" y="-98.8794" width="173.715" height="176.517" rx="22.4149" fill="#84A1ED"/>
<rect opacity="0.2" x="293.638" y="83.2417" width="173.715" height="176.517" rx="22.4149" fill="#84A1ED"/>
<rect x="293.638" y="265.362" width="173.715" height="176.517" rx="22.4149" fill="#84A1ED"/>
<rect opacity="0.4" x="472.957" y="-98.8794" width="173.715" height="176.517" rx="22.4149" fill="#84A1ED"/>
<rect opacity="0.2" x="472.957" y="83.2417" width="173.715" height="176.517" rx="22.4149" fill="#84A1ED"/>
<rect opacity="0.2" x="472.957" y="265.362" width="173.715" height="176.517" rx="22.4149" fill="#84A1ED"/>
<rect opacity="0.4" x="652.276" y="-98.8794" width="173.715" height="176.517" rx="22.4149" fill="#84A1ED"/>
<rect x="652.276" y="83.2417" width="173.715" height="176.517" rx="22.4149" fill="#84A1ED"/>
<rect opacity="0.6" x="652.276" y="265.362" width="173.715" height="176.517" rx="22.4149" fill="#84A1ED"/>
<rect x="831.594" y="-98.8794" width="173.715" height="176.517" rx="22.4149" fill="#84A1ED"/>
<rect opacity="0.4" x="831.594" y="83.2417" width="173.715" height="176.517" rx="22.4149" fill="#84A1ED"/>
<rect opacity="0.3" x="831.594" y="265.362" width="173.715" height="176.517" rx="22.4149" fill="#84A1ED"/>
<rect opacity="0.3" x="1010.91" y="-98.8794" width="173.715" height="176.517" rx="22.4149" fill="#84A1ED"/>
<rect x="1010.91" y="83.2417" width="173.715" height="176.517" rx="22.4149" fill="#84A1ED"/>
<rect opacity="0.2" x="1010.91" y="265.362" width="173.715" height="176.517" rx="22.4149" fill="#84A1ED"/>
</g>
</g>
</svg>
