<svg width="1680" height="830" viewBox="0 0 1680 830" fill="none" xmlns="http://www.w3.org/2000/svg">
<mask id="mask0_262_5707" style="mask-type:alpha" maskUnits="userSpaceOnUse" x="0" y="0" width="1680" height="830">
<rect width="1680" height="830" fill="url(#paint0_linear_262_5707)"/>
</mask>
<g mask="url(#mask0_262_5707)">
<g opacity="0.5">
<mask id="mask1_262_5707" style="mask-type:alpha" maskUnits="userSpaceOnUse" x="122" y="-56" width="994" height="600">
<rect x="122" y="-56" width="993.559" height="600" fill="url(#paint1_radial_262_5707)"/>
</mask>
<g mask="url(#mask1_262_5707)">
<g opacity="0.6">
<path d="M199.663 -102.779V840.95" stroke="#B5C6E8"/>
<path d="M275.77 -102.779V840.95" stroke="#B5C6E8"/>
<path d="M351.877 -102.779V840.95" stroke="#B5C6E8"/>
<path d="M427.984 -102.779V840.95" stroke="#B5C6E8"/>
<path d="M504.091 -102.779V840.95" stroke="#B5C6E8"/>
<path d="M580.199 -102.779V840.95" stroke="#B5C6E8"/>
<path d="M656.306 -102.779V840.95" stroke="#B5C6E8"/>
<path d="M732.413 -102.779V840.95" stroke="#B5C6E8"/>
<path d="M960.734 -102.779V840.95" stroke="#B5C6E8"/>
<path d="M808.52 -102.779V840.95" stroke="#B5C6E8"/>
<path d="M1036.84 -102.779V840.95" stroke="#B5C6E8"/>
<path d="M884.627 -102.779V840.95" stroke="#B5C6E8"/>
<path d="M1112.95 -102.779V840.95" stroke="#B5C6E8"/>
<path d="M176.831 522.822L1120.56 522.822" stroke="#B5C6E8"/>
<path d="M176.831 446.714L1120.56 446.714" stroke="#B5C6E8"/>
<path d="M176.831 370.607L1120.56 370.607" stroke="#B5C6E8"/>
<path d="M176.831 294.5L1120.56 294.5" stroke="#B5C6E8"/>
<path d="M176.831 218.393L1120.56 218.393" stroke="#B5C6E8"/>
<path d="M176.831 142.286L1120.56 142.286" stroke="#B5C6E8"/>
<path d="M176.831 66.1787L1120.56 66.1787" stroke="#B5C6E8"/>
</g>
</g>
</g>
<g opacity="0.5">
<mask id="mask2_262_5707" style="mask-type:alpha" maskUnits="userSpaceOnUse" x="782" y="150" width="994" height="600">
<rect x="782" y="150" width="993.559" height="600" fill="url(#paint2_radial_262_5707)"/>
</mask>
<g mask="url(#mask2_262_5707)">
<g opacity="0.6">
<path d="M859.663 103.221V1046.95" stroke="#B5C6E8"/>
<path d="M935.77 103.221V1046.95" stroke="#B5C6E8"/>
<path d="M1011.88 103.221V1046.95" stroke="#B5C6E8"/>
<path d="M1087.98 103.221V1046.95" stroke="#B5C6E8"/>
<path d="M1164.09 103.221V1046.95" stroke="#B5C6E8"/>
<path d="M1240.2 103.221V1046.95" stroke="#B5C6E8"/>
<path d="M1316.31 103.221V1046.95" stroke="#B5C6E8"/>
<path d="M1392.41 103.221V1046.95" stroke="#B5C6E8"/>
<path d="M1620.73 103.221V1046.95" stroke="#B5C6E8"/>
<path d="M1468.52 103.221V1046.95" stroke="#B5C6E8"/>
<path d="M1544.63 103.221V1046.95" stroke="#B5C6E8"/>
<path d="M836.831 728.822L1780.56 728.822" stroke="#B5C6E8"/>
<path d="M836.831 652.714L1780.56 652.714" stroke="#B5C6E8"/>
<path d="M836.831 576.607L1780.56 576.607" stroke="#B5C6E8"/>
<path d="M836.831 500.5L1780.56 500.5" stroke="#B5C6E8"/>
<path d="M836.831 424.393L1780.56 424.393" stroke="#B5C6E8"/>
<path d="M836.831 348.286L1780.56 348.286" stroke="#B5C6E8"/>
<path d="M836.831 272.179L1780.56 272.179" stroke="#B5C6E8"/>
<path d="M836.831 196.071L1780.56 196.071" stroke="#B5C6E8"/>
</g>
</g>
</g>
<g opacity="0.8" filter="url(#filter0_f_262_5707)">
<path d="M1399 391C1399 489.859 1246.18 570 1057.66 570C869.143 570 840 489.859 840 391C840 292.141 869.143 212 1057.66 212C1246.18 212 1399 292.141 1399 391Z" fill="#D1DDF6"/>
</g>
<g filter="url(#filter1_f_262_5707)">
<circle cx="539" cy="802" r="385" fill="#DCE8FA"/>
</g>
<g filter="url(#filter2_f_262_5707)">
<path d="M172.727 13.5264L831.245 -86.0215L851.274 46.4732L454 79.4998L192.756 146.021L172.727 13.5264Z" fill="#F9F9FE"/>
</g>
</g>
<defs>
<filter id="filter0_f_262_5707" x="640" y="12" width="959" height="758" filterUnits="userSpaceOnUse" color-interpolation-filters="sRGB">
<feFlood flood-opacity="0" result="BackgroundImageFix"/>
<feBlend mode="normal" in="SourceGraphic" in2="BackgroundImageFix" result="shape"/>
<feGaussianBlur stdDeviation="100" result="effect1_foregroundBlur_262_5707"/>
</filter>
<filter id="filter1_f_262_5707" x="-46" y="217" width="1170" height="1170" filterUnits="userSpaceOnUse" color-interpolation-filters="sRGB">
<feFlood flood-opacity="0" result="BackgroundImageFix"/>
<feBlend mode="normal" in="SourceGraphic" in2="BackgroundImageFix" result="shape"/>
<feGaussianBlur stdDeviation="100" result="effect1_foregroundBlur_262_5707"/>
</filter>
<filter id="filter2_f_262_5707" x="122.727" y="-136.021" width="778.547" height="332.042" filterUnits="userSpaceOnUse" color-interpolation-filters="sRGB">
<feFlood flood-opacity="0" result="BackgroundImageFix"/>
<feBlend mode="normal" in="SourceGraphic" in2="BackgroundImageFix" result="shape"/>
<feGaussianBlur stdDeviation="25" result="effect1_foregroundBlur_262_5707"/>
</filter>
<linearGradient id="paint0_linear_262_5707" x1="840" y1="0" x2="840" y2="830" gradientUnits="userSpaceOnUse">
<stop stop-color="#F9F9FE"/>
<stop offset="1" stop-color="#EFF1FC"/>
</linearGradient>
<radialGradient id="paint1_radial_262_5707" cx="0" cy="0" r="1" gradientUnits="userSpaceOnUse" gradientTransform="translate(598 231.5) rotate(176.708) scale(452.747 165.728)">
<stop stop-color="#737373"/>
<stop offset="0.602169" stop-color="#8F8F8F" stop-opacity="0.727831"/>
<stop offset="0.852169" stop-color="#CACACA" stop-opacity="0.147831"/>
<stop offset="1" stop-color="#D9D9D9" stop-opacity="0"/>
</radialGradient>
<radialGradient id="paint2_radial_262_5707" cx="0" cy="0" r="1" gradientUnits="userSpaceOnUse" gradientTransform="translate(1258 437.5) rotate(176.708) scale(452.747 165.728)">
<stop stop-color="#737373"/>
<stop offset="0.602169" stop-color="#8F8F8F" stop-opacity="0.727831"/>
<stop offset="0.852169" stop-color="#CACACA" stop-opacity="0.147831"/>
<stop offset="1" stop-color="#D9D9D9" stop-opacity="0"/>
</radialGradient>
</defs>
</svg>
