<svg width="81" height="81" viewBox="0 0 81 81" fill="none" xmlns="http://www.w3.org/2000/svg">
<g clip-path="url(#clip0_114_5894)">
<path d="M61.1535 15.3787H41.8082C40.8756 15.3796 39.9815 15.7505 39.3221 16.4099C38.6627 17.0693 38.2918 17.9634 38.2908 18.896V29.448H18.9455C18.013 29.4489 17.1189 29.8198 16.4595 30.4792C15.8 31.1386 15.4292 32.0327 15.4282 32.9653V61.1039C15.4292 62.0365 15.8 62.9306 16.4595 63.59C17.1189 64.2494 18.013 64.6203 18.9455 64.6212H38.2908C39.2234 64.6203 40.1175 64.2494 40.7769 63.59C41.4364 62.9306 41.8072 62.0365 41.8082 61.1039V50.5519H61.1535C62.0859 50.5505 62.9797 50.1795 63.6391 49.5202C64.2984 48.8609 64.6694 47.967 64.6708 47.0346V18.896C64.6699 17.9634 64.299 17.0693 63.6396 16.4099C62.9801 15.7505 62.086 15.3796 61.1535 15.3787ZM61.1535 18.896V25.9306H41.8082V18.896H61.1535ZM38.2908 50.5519H18.9455V43.5173H38.2908V50.5519ZM41.8082 29.448H61.1535L61.1552 36.4826H41.8082V29.448ZM38.2908 32.9653V40H18.9455V32.9653H38.2908ZM18.9455 61.1039V54.0693H38.2926V61.1039H18.9455ZM41.8082 47.0346V40H61.157V47.0346H41.8082Z" fill="black"/>
</g>
<defs>
<clipPath id="clip0_114_5894">
<rect x="0.0495605" width="80.396" height="80.396" rx="16.0792" fill="white"/>
</clipPath>
</defs>
</svg>
