<svg width="81" height="81" viewBox="0 0 81 81" fill="none" xmlns="http://www.w3.org/2000/svg">
<g clip-path="url(#clip0_114_5893)">
<path d="M26.4555 18.896V25.9306H19.4209V18.896H26.4555ZM15.9036 15.3787V29.448H29.9729V15.3787H15.9036ZM44.0422 24.172V31.2066H37.0075V24.172H44.0422ZM33.4902 20.6547V34.724H47.5595V20.6547H33.4902ZM26.4555 40V47.0346H19.4209V40H26.4555ZM15.9036 36.4826V50.5519H29.9729V36.4826H15.9036Z" fill="black"/>
<path d="M51.0769 29.448V40H40.5249V50.552H29.9729V64.6213H65.1462V29.448H51.0769ZM44.0422 43.5173H51.0769V50.552H44.0422V43.5173ZM40.5249 61.1039H33.4902V54.0693H40.5249V61.1039ZM51.0769 61.1039H44.0422V54.0693H51.0769V61.1039ZM61.6288 61.1039H54.5942V54.0693H61.6288V61.1039ZM61.6288 50.552H54.5942V43.5173H61.6288V50.552ZM54.5942 40V32.9653H61.6288V40H54.5942Z" fill="black"/>
</g>
<defs>
<clipPath id="clip0_114_5893">
<rect x="0.524902" width="80.396" height="80.396" rx="16.0792" fill="white"/>
</clipPath>
</defs>
</svg>
