<svg width="576" height="376" viewBox="0 0 576 376" fill="none" xmlns="http://www.w3.org/2000/svg">
<rect width="576" height="376" rx="16" fill="url(#paint0_linear_400_1040)"/>
<mask id="mask0_400_1040" style="mask-type:alpha" maskUnits="userSpaceOnUse" x="0" y="0" width="576" height="376">
<rect width="576" height="376" rx="16" fill="url(#paint1_radial_400_1040)"/>
</mask>
<g mask="url(#mask0_400_1040)">
<g opacity="0.1">
<path d="M53.5886 -149V572" stroke="black" stroke-width="1.1629" stroke-dasharray="4.65 4.65"/>
<path d="M111.734 -149V572" stroke="black" stroke-width="1.1629" stroke-dasharray="4.65 4.65"/>
<path d="M169.879 -149V572" stroke="black" stroke-width="1.1629" stroke-dasharray="4.65 4.65"/>
<path d="M228.024 -149V572" stroke="black" stroke-width="1.1629" stroke-dasharray="4.65 4.65"/>
<path d="M286.169 -149V572" stroke="black" stroke-width="1.1629" stroke-dasharray="4.65 4.65"/>
<path d="M344.314 -149V572" stroke="black" stroke-width="1.1629" stroke-dasharray="4.65 4.65"/>
<path d="M402.46 -149V572" stroke="black" stroke-width="1.1629" stroke-dasharray="4.65 4.65"/>
<path d="M460.605 -149V572" stroke="black" stroke-width="1.1629" stroke-dasharray="4.65 4.65"/>
<path d="M518.75 -149V572" stroke="black" stroke-width="1.1629" stroke-dasharray="4.65 4.65"/>
<path d="M-22 328.953L699 328.953" stroke="black" stroke-width="1.1629" stroke-dasharray="4.65 4.65"/>
<path d="M-22 270.808L699 270.808" stroke="black" stroke-width="1.1629" stroke-dasharray="4.65 4.65"/>
<path d="M-22 212.663L699 212.663" stroke="black" stroke-width="1.1629" stroke-dasharray="4.65 4.65"/>
<path d="M-22 154.518L699 154.518" stroke="black" stroke-width="1.1629" stroke-dasharray="4.65 4.65"/>
<path d="M-22 96.3726L699 96.3725" stroke="black" stroke-width="1.1629" stroke-dasharray="4.65 4.65"/>
<path d="M-22 38.2274L699 38.2274" stroke="black" stroke-width="1.1629" stroke-dasharray="4.65 4.65"/>
</g>
</g>
<rect x="181.5" y="178.5" width="79" height="63" rx="3.5" fill="#E1EAF9" stroke="black"/>
<g clip-path="url(#clip0_400_1040)">
<rect x="209" y="198" width="8" height="8" rx="1.85722" stroke="black" stroke-width="2" stroke-linecap="round"/>
<rect x="226" y="214" width="8" height="8" rx="1.85722" stroke="black" stroke-width="2" stroke-linecap="round"/>
<rect x="208.5" y="213.5" width="9" height="9" rx="4.5" stroke="black" stroke-width="2" stroke-linecap="round"/>
<rect x="225.5" y="197.5" width="9" height="9" rx="4.5" stroke="black" stroke-width="2" stroke-linecap="round"/>
<path d="M213 206V213" stroke="black" stroke-width="2" stroke-linecap="square"/>
<path d="M230 207L230 213" stroke="black" stroke-width="2" stroke-linecap="square"/>
<path d="M218 218L224 218" stroke="black" stroke-width="2" stroke-linecap="square"/>
</g>
<rect x="0.5" y="-0.5" width="79" height="19" rx="1.5" transform="matrix(1 0 0 -1 181 269)" fill="black" stroke="black"/>
<path d="M208.448 262.484C208.364 263.732 208.232 264.536 208.04 264.908C207.848 265.268 207.476 265.46 206.9 265.46H204.524C203.948 265.46 203.66 265.076 203.66 264.32V259.232H206.936V256.028H203.456V255.212H207.776V260.072H204.5V264.008C204.5 264.416 204.62 264.632 204.872 264.644H206.756C207.092 264.644 207.308 264.476 207.404 264.14C207.5 263.816 207.56 263.168 207.596 262.208L208.448 262.484ZM197.6 255.2H203.06V256.016H201.5V257.408H202.868V265.652H202.1V265.004H198.68V265.652H197.912V257.408H199.22V256.016H197.6V255.2ZM198.68 264.188H202.1V263.024H198.68V264.188ZM199.388 258.2H198.68V262.232H202.1V261.188H201.488C200.984 261.188 200.732 260.912 200.732 260.36V258.2H199.976V258.98C199.952 260.264 199.688 261.2 199.184 261.8L198.728 261.38C199.16 260.876 199.376 260.084 199.388 258.98V258.2ZM199.964 257.408H200.756V256.016H199.964V257.408ZM202.1 260.516V258.2H201.332V260.204C201.332 260.408 201.428 260.516 201.632 260.516H202.1ZM209.852 258.092H214.52L214.592 257.396H210.656V255.152H219.344V257.396H215.456L215.384 258.092H220.16V258.752H215.288C215.24 258.992 215.204 259.22 215.156 259.436H218.636V264.728H220.376V265.424H209.636V264.728H211.376V259.436H214.292C214.34 259.208 214.376 258.98 214.424 258.752H209.852V258.092ZM212.216 264.728H217.784V263.936H212.216V264.728ZM212.216 263.396H217.784V262.64H212.216V263.396ZM212.216 262.088H217.784V261.332H212.216V262.088ZM212.216 260.792H217.784V260.036H212.216V260.792ZM218.528 256.784V255.788H216.74V256.784H218.528ZM215.948 256.784V255.788H214.052V256.784H215.948ZM213.272 256.784V255.788H211.484V256.784H213.272ZM222.536 254.888C223.34 255.512 224.024 256.124 224.576 256.748L223.952 257.36C223.472 256.772 222.8 256.136 221.948 255.452L222.536 254.888ZM229.508 265.484C228.86 265.484 228.152 265.472 227.396 265.46C226.628 265.448 226.016 265.376 225.536 265.244C225.068 265.1 224.648 264.8 224.276 264.368C224.12 264.164 223.964 264.068 223.82 264.068C223.532 264.068 223.064 264.62 222.404 265.724L221.756 265.136C222.392 264.128 222.956 263.516 223.448 263.3V259.652H221.732V258.86H224.252V263.348C224.348 263.42 224.444 263.516 224.54 263.624C224.828 263.972 225.128 264.224 225.464 264.38C225.824 264.548 226.364 264.644 227.06 264.668C227.684 264.68 228.464 264.692 229.388 264.692C229.952 264.692 230.528 264.68 231.116 264.668C231.692 264.656 232.148 264.644 232.46 264.62L232.256 265.484H229.508ZM225.08 255.932H227.012C227.18 255.512 227.348 255.068 227.492 254.612L228.32 254.804C228.188 255.2 228.056 255.572 227.912 255.932H232.124V256.736H227.576C227.216 257.54 226.808 258.26 226.376 258.884H228.308V257.456H229.136V258.884H231.752V259.676H229.136V261.104H232.28V261.92H229.136V264.152H228.308V261.92H224.984V261.104H228.308V259.676H225.536L225.344 258.884C225.824 258.308 226.268 257.588 226.664 256.736H225.08V255.932ZM239.348 256.724C239.66 257.264 239.936 257.852 240.2 258.5H241.376C241.712 257.9 241.988 257.264 242.228 256.592L243.044 256.88C242.816 257.48 242.564 258.02 242.288 258.5H244.232V259.328H237.536V258.5H239.372C239.132 257.972 238.892 257.492 238.64 257.06L239.348 256.724ZM240.932 254.624C241.064 254.96 241.196 255.344 241.328 255.764H244.016V256.556H237.812V255.764H240.452C240.32 255.404 240.176 255.068 240.032 254.768L240.932 254.624ZM234.944 265.592H233.9L233.72 264.752C234.044 264.776 234.356 264.8 234.644 264.8C234.956 264.8 235.124 264.644 235.124 264.332V261.38C234.644 261.572 234.152 261.752 233.66 261.908L233.444 261.044C234.008 260.9 234.572 260.72 235.124 260.504V257.828H233.66V257H235.124V254.732H236.012V257H237.008V257.828H236.012V260.132C236.348 259.964 236.684 259.796 237.02 259.616V260.492C236.684 260.672 236.348 260.84 236.012 260.996V264.548C236.012 265.244 235.652 265.592 234.944 265.592ZM239.876 259.664L240.704 259.76C240.584 260.084 240.452 260.396 240.308 260.696H244.424V261.536H243.104C242.924 262.424 242.552 263.18 241.988 263.792C242.804 264.176 243.596 264.584 244.352 265.016L243.884 265.712C243.164 265.268 242.336 264.824 241.376 264.368C240.584 264.944 239.324 265.412 237.596 265.748L237.26 264.968C238.652 264.716 239.732 264.38 240.476 263.948C239.744 263.612 238.964 263.288 238.124 262.952C238.448 262.46 238.736 261.992 238.988 261.536H237.38V260.696H239.432C239.6 260.336 239.744 260 239.876 259.664ZM242.288 261.536H239.864C239.648 261.908 239.42 262.268 239.18 262.604C239.876 262.868 240.548 263.144 241.196 263.432C241.736 262.928 242.096 262.304 242.288 261.536Z" fill="white"/>
<rect x="277.5" y="134.5" width="232" height="178" rx="7.5" fill="white" stroke="black" stroke-dasharray="2 4"/>
<rect x="349" y="302" width="90" height="22" rx="11" fill="#E1EAF9"/>
<path d="M390.032 308.624V318.188H389.156V317.444H382.844V318.188H381.968V308.624H384.536C384.8 308.144 385.004 307.664 385.124 307.16L386 307.28C385.868 307.76 385.676 308.216 385.436 308.624H390.032ZM382.844 316.616H389.156V314.66H382.844V316.616ZM382.844 313.868H389.156V312.032H382.844V313.868ZM382.844 311.24H389.156V309.452H382.844V311.24ZM393.08 308.036H397.424V308.864H393.08V308.036ZM392.612 311.276H397.88V312.116H395.108C394.628 313.94 394.208 315.236 393.848 316.028C394.796 315.836 395.744 315.56 396.68 315.212C396.368 314.564 396.068 313.976 395.756 313.424L396.488 313.064C397.064 314.096 397.604 315.212 398.108 316.424L397.364 316.808C397.244 316.496 397.124 316.208 397.004 315.932C395.732 316.388 394.34 316.748 392.852 317.012L392.648 316.196C392.732 316.172 392.792 316.148 392.84 316.124C393.2 315.632 393.68 314.3 394.28 312.116H392.612V311.276ZM399.68 307.232H400.544V309.656H403.16C403.16 313.412 403.1 315.728 402.992 316.616C402.872 317.588 402.284 318.08 401.252 318.08C401.048 318.08 400.7 318.068 400.196 318.044L400.004 317.276C400.436 317.3 400.82 317.324 401.144 317.324C401.732 317.324 402.08 316.976 402.176 316.292C402.248 315.656 402.296 313.724 402.32 310.496H400.544V310.64C400.508 314.096 399.668 316.628 398.036 318.224L397.388 317.66C398.888 316.208 399.656 313.868 399.68 310.64V310.496H398.06V309.656H399.68V307.232ZM410 309.872H411.38V308.924H412.196V309.872H413.588V310.58H412.196V311.708H413.792V312.428H409.808V311.708H411.38V310.58H410V309.872ZM410.192 313.28H413.384V316.34H410.192V313.28ZM412.64 315.632V314H410.936V315.632H412.64ZM415.052 307.676V317.072C415.052 317.78 414.692 318.14 413.972 318.14H412.82L412.616 317.348C413.012 317.372 413.384 317.384 413.72 317.384C414.056 317.384 414.236 317.18 414.236 316.784V308.456H409.376V314.252C409.352 315.872 409.004 317.192 408.308 318.2L407.672 317.612C408.248 316.736 408.536 315.632 408.56 314.3V307.676H415.052ZM405.968 307.34C406.724 307.94 407.36 308.54 407.876 309.14L407.288 309.74C406.808 309.164 406.172 308.564 405.368 307.928L405.968 307.34ZM404.504 310.868H407.012V315.872C407.3 315.608 407.6 315.332 407.912 315.02L408.128 315.872C407.54 316.472 406.916 317.012 406.244 317.492L405.908 316.724C406.076 316.58 406.172 316.424 406.172 316.232V311.696H404.504V310.868ZM418.076 311.384C417.656 311.96 417.188 312.512 416.684 313.028L416.432 312.164C417.728 310.724 418.664 309.08 419.252 307.232L420.032 307.592C419.744 308.456 419.372 309.284 418.94 310.064V318.2H418.076V311.384ZM419.804 310.124H422.276C422.288 309.884 422.3 309.644 422.3 309.404V307.232H423.128V309.404C423.128 309.644 423.116 309.884 423.104 310.124H427.136V310.964H424.64V316.856C424.64 317.096 424.748 317.216 424.988 317.216H426.032C426.164 317.216 426.272 317.144 426.368 317.012C426.476 316.832 426.548 316.196 426.584 315.092L427.364 315.344C427.28 316.616 427.148 317.396 426.98 317.66C426.812 317.876 426.56 317.996 426.248 318.008H424.76C424.124 318.008 423.812 317.672 423.812 317.012V310.964H423.056C422.792 314.168 421.784 316.568 420.056 318.164L419.42 317.612C421.028 316.148 421.964 313.94 422.228 310.964H419.804V310.124ZM424.7 307.448C425.444 307.964 426.08 308.492 426.584 309.02L425.996 309.608C425.54 309.092 424.928 308.552 424.136 307.988L424.7 307.448Z" fill="black"/>
<path d="M367.5 313.59L366.205 312.295L365.5 313L367.5 315L371 311.5L370.295 310.795L367.5 313.59Z" fill="black"/>
<path d="M375 312.5H373.975C373.855 311.088 373.24 309.764 372.238 308.762C371.236 307.76 369.912 307.145 368.5 307.025V306H367.5V307.025C366.088 307.145 364.764 307.76 363.762 308.762C362.76 309.764 362.145 311.088 362.025 312.5H361V313.5H362.025C362.145 314.912 362.76 316.236 363.762 317.238C364.764 318.24 366.088 318.855 367.5 318.975V320H368.5V318.975C369.912 318.855 371.236 318.24 372.238 317.238C373.24 316.236 373.855 314.912 373.975 313.5H375V312.5ZM368.5 317.975V316.5H367.5V317.975C366.353 317.858 365.281 317.349 364.466 316.534C363.651 315.719 363.142 314.647 363.025 313.5H364.5V312.5H363.025C363.142 311.353 363.651 310.281 364.466 309.466C365.281 308.651 366.353 308.142 367.5 308.025V309.5H368.5V308.025C369.647 308.142 370.719 308.651 371.534 309.466C372.349 310.281 372.858 311.353 372.975 312.5H371.5V313.5H372.974C372.858 314.647 372.349 315.718 371.534 316.534C370.718 317.349 369.647 317.858 368.5 317.975Z" fill="black"/>
<rect x="296.5" y="178.5" width="79" height="63" rx="3.5" fill="#A1BCFD" stroke="black"/>
<g clip-path="url(#clip1_400_1040)">
<path d="M332.75 219H324.857C323.832 219 323 218.168 323 217.143V198.857C323 197.832 323.832 197 324.857 197H347.143C348.168 197 349 197.832 349 198.857V205.68" stroke="black" stroke-width="2" stroke-linecap="square"/>
<path d="M324 204L349 204" stroke="black" stroke-width="2" stroke-linecap="square"/>
<mask id="path-38-outside-1_400_1040" maskUnits="userSpaceOnUse" x="335" y="208" width="20" height="18" fill="black">
<rect fill="white" x="335" y="208" width="20" height="18"/>
<path fill-rule="evenodd" clip-rule="evenodd" d="M346.106 210H343.553L343.306 211.687C342.375 211.932 341.539 212.405 340.866 213.042L339.277 212.417L338 214.583L339.331 215.605C339.212 216.051 339.149 216.518 339.149 217C339.149 217.482 339.212 217.949 339.331 218.395L338 219.417L339.277 221.583L340.866 220.958C341.539 221.595 342.375 222.068 343.306 222.313L343.553 224H346.106L346.357 222.276C347.252 222.018 348.055 221.546 348.703 220.923L350.382 221.583L351.658 219.417L350.221 218.313C350.327 217.892 350.382 217.452 350.382 217C350.382 216.548 350.327 216.108 350.221 215.687L351.658 214.583L350.382 212.417L348.703 213.077C348.055 212.454 347.252 211.982 346.357 211.724L346.106 210Z"/>
</mask>
<path d="M343.553 210V208H341.823L341.574 209.711L343.553 210ZM346.106 210L348.085 209.711L347.835 208H346.106V210ZM343.306 211.687L343.815 213.622L345.094 213.286L345.286 211.976L343.306 211.687ZM340.866 213.042L340.134 214.903L341.316 215.368L342.239 214.496L340.866 213.042ZM339.277 212.417L340.008 210.556L338.42 209.932L337.554 211.402L339.277 212.417ZM338 214.583L336.277 213.567L335.379 215.09L336.781 216.168L338 214.583ZM339.331 215.605L341.263 216.121L341.607 214.833L340.55 214.02L339.331 215.605ZM339.331 218.395L340.55 219.98L341.607 219.167L341.263 217.879L339.331 218.395ZM338 219.417L336.781 217.832L335.379 218.91L336.277 220.433L338 219.417ZM339.277 221.583L337.554 222.598L338.42 224.068L340.008 223.444L339.277 221.583ZM340.866 220.958L342.239 219.504L341.316 218.632L340.134 219.097L340.866 220.958ZM343.306 222.313L345.286 222.024L345.094 220.714L343.815 220.378L343.306 222.313ZM343.553 224L341.574 224.289L341.823 226H343.553V224ZM346.106 224V226H347.835L348.085 224.289L346.106 224ZM346.357 222.276L345.802 220.355L344.564 220.712L344.378 221.987L346.357 222.276ZM348.703 220.923L349.434 219.061L348.24 218.592L347.316 219.482L348.703 220.923ZM350.382 221.583L349.65 223.444L351.238 224.068L352.105 222.598L350.382 221.583ZM351.658 219.417L353.381 220.433L354.28 218.91L352.877 217.832L351.658 219.417ZM350.221 218.313L348.281 217.828L347.963 219.1L349.003 219.899L350.221 218.313ZM350.221 215.687L349.003 214.101L347.963 214.9L348.281 216.172L350.221 215.687ZM351.658 214.583L352.877 216.168L354.28 215.09L353.381 213.567L351.658 214.583ZM350.382 212.417L352.105 211.402L351.238 209.932L349.65 210.556L350.382 212.417ZM348.703 213.077L347.316 214.518L348.24 215.408L349.434 214.939L348.703 213.077ZM346.357 211.724L344.378 212.013L344.564 213.288L345.802 213.645L346.357 211.724ZM343.553 212H346.106V208H343.553V212ZM345.286 211.976L345.532 210.289L341.574 209.711L341.327 211.399L345.286 211.976ZM342.239 214.496C342.673 214.086 343.212 213.78 343.815 213.622L342.798 209.753C341.538 210.084 340.406 210.725 339.492 211.588L342.239 214.496ZM338.545 214.279L340.134 214.903L341.597 211.181L340.008 210.556L338.545 214.279ZM339.723 215.598L340.999 213.433L337.554 211.402L336.277 213.567L339.723 215.598ZM340.55 214.02L339.219 212.997L336.781 216.168L338.112 217.191L340.55 214.02ZM341.149 217C341.149 216.694 341.189 216.4 341.263 216.121L337.399 215.09C337.235 215.702 337.149 216.342 337.149 217H341.149ZM341.263 217.879C341.189 217.6 341.149 217.306 341.149 217H337.149C337.149 217.658 337.235 218.298 337.399 218.91L341.263 217.879ZM339.219 221.003L340.55 219.98L338.112 216.809L336.781 217.832L339.219 221.003ZM340.999 220.567L339.723 218.402L336.277 220.433L337.554 222.598L340.999 220.567ZM340.134 219.097L338.545 219.721L340.008 223.444L341.597 222.819L340.134 219.097ZM343.815 220.378C343.212 220.22 342.673 219.914 342.239 219.504L339.492 222.412C340.406 223.275 341.538 223.916 342.798 224.247L343.815 220.378ZM345.532 223.711L345.286 222.024L341.327 222.601L341.574 224.289L345.532 223.711ZM346.106 222H343.553V226H346.106V222ZM344.378 221.987L344.127 223.711L348.085 224.289L348.336 222.565L344.378 221.987ZM347.316 219.482C346.899 219.883 346.381 220.187 345.802 220.355L346.912 224.198C348.124 223.848 349.211 223.21 350.09 222.364L347.316 219.482ZM351.114 219.721L349.434 219.061L347.971 222.784L349.65 223.444L351.114 219.721ZM349.936 218.402L348.659 220.567L352.105 222.598L353.381 220.433L349.936 218.402ZM349.003 219.899L350.44 221.003L352.877 217.832L351.44 216.727L349.003 219.899ZM348.382 217C348.382 217.287 348.347 217.564 348.281 217.828L352.162 218.798C352.306 218.22 352.382 217.618 352.382 217H348.382ZM348.281 216.172C348.347 216.436 348.382 216.713 348.382 217H352.382C352.382 216.382 352.306 215.78 352.162 215.202L348.281 216.172ZM350.44 212.997L349.003 214.101L351.44 217.273L352.877 216.168L350.44 212.997ZM348.659 213.433L349.936 215.598L353.381 213.567L352.105 211.402L348.659 213.433ZM349.434 214.939L351.114 214.279L349.65 210.556L347.971 211.216L349.434 214.939ZM345.802 213.645C346.381 213.813 346.899 214.117 347.316 214.518L350.09 211.636C349.211 210.79 348.124 210.152 346.912 209.802L345.802 213.645ZM344.127 210.289L344.378 212.013L348.336 211.435L348.085 209.711L344.127 210.289Z" fill="black" mask="url(#path-38-outside-1_400_1040)"/>
<ellipse cx="344.829" cy="217" rx="3.06373" ry="3" stroke="black" stroke-width="2" stroke-linecap="round"/>
</g>
<rect x="0.5" y="-0.5" width="79" height="19" rx="1.5" transform="matrix(1 0 0 -1 296 269)" fill="black" stroke="black"/>
<path d="M323.448 262.484C323.364 263.732 323.232 264.536 323.04 264.908C322.848 265.268 322.476 265.46 321.9 265.46H319.524C318.948 265.46 318.66 265.076 318.66 264.32V259.232H321.936V256.028H318.456V255.212H322.776V260.072H319.5V264.008C319.5 264.416 319.62 264.632 319.872 264.644H321.756C322.092 264.644 322.308 264.476 322.404 264.14C322.5 263.816 322.56 263.168 322.596 262.208L323.448 262.484ZM312.6 255.2H318.06V256.016H316.5V257.408H317.868V265.652H317.1V265.004H313.68V265.652H312.912V257.408H314.22V256.016H312.6V255.2ZM313.68 264.188H317.1V263.024H313.68V264.188ZM314.388 258.2H313.68V262.232H317.1V261.188H316.488C315.984 261.188 315.732 260.912 315.732 260.36V258.2H314.976V258.98C314.952 260.264 314.688 261.2 314.184 261.8L313.728 261.38C314.16 260.876 314.376 260.084 314.388 258.98V258.2ZM314.964 257.408H315.756V256.016H314.964V257.408ZM317.1 260.516V258.2H316.332V260.204C316.332 260.408 316.428 260.516 316.632 260.516H317.1ZM324.852 258.092H329.52L329.592 257.396H325.656V255.152H334.344V257.396H330.456L330.384 258.092H335.16V258.752H330.288C330.24 258.992 330.204 259.22 330.156 259.436H333.636V264.728H335.376V265.424H324.636V264.728H326.376V259.436H329.292C329.34 259.208 329.376 258.98 329.424 258.752H324.852V258.092ZM327.216 264.728H332.784V263.936H327.216V264.728ZM327.216 263.396H332.784V262.64H327.216V263.396ZM327.216 262.088H332.784V261.332H327.216V262.088ZM327.216 260.792H332.784V260.036H327.216V260.792ZM333.528 256.784V255.788H331.74V256.784H333.528ZM330.948 256.784V255.788H329.052V256.784H330.948ZM328.272 256.784V255.788H326.484V256.784H328.272ZM341.808 257.24C341.256 258.404 340.62 259.412 339.9 260.276L339.288 259.544C340.344 258.296 341.22 256.652 341.892 254.624L342.756 254.816C342.564 255.368 342.372 255.896 342.18 256.388H347.364V257.24H343.332V259.22H346.836V260.06H343.332V262.088H346.908V262.916H343.332V265.712H342.456V257.24H341.808ZM337.968 258.968C337.584 259.472 337.164 259.952 336.708 260.408L336.42 259.496C337.716 258.092 338.664 256.484 339.252 254.66L340.068 255.044C339.744 255.98 339.336 256.856 338.856 257.672V265.712H337.968V258.968ZM352.26 254.816H353.136V264.356H354.84V254.816H355.716V264.356H359.316V265.196H348.684V264.356H352.26V254.816ZM358.224 257L358.992 257.216C358.512 259.304 357.912 261.128 357.18 262.7L356.4 262.424C357.096 261.008 357.708 259.196 358.224 257ZM349.716 256.976C350.34 258.596 350.904 260.456 351.396 262.556L350.604 262.76C350.172 260.84 349.632 258.992 348.984 257.216L349.716 256.976Z" fill="white"/>
<rect x="66.5" y="178.5" width="79" height="63" rx="3.5" fill="#B0F2FF" stroke="black"/>
<g clip-path="url(#clip2_400_1040)">
<rect x="93" y="197" width="26" height="19" rx="1.85722" stroke="black" stroke-width="2" stroke-linecap="round"/>
<path d="M98 223H114" stroke="black" stroke-width="2" stroke-linecap="square"/>
<path d="M100 203L97 206L100 209" stroke="black" stroke-width="2" stroke-linecap="square"/>
<path d="M112 203L115 206L112 209" stroke="black" stroke-width="2" stroke-linecap="square"/>
<path d="M102 216V222" stroke="black" stroke-width="2" stroke-linecap="square"/>
<path d="M110 216V222" stroke="black" stroke-width="2" stroke-linecap="square"/>
<path d="M108 202L104 210" stroke="black" stroke-width="2" stroke-linecap="square"/>
</g>
<rect x="0.5" y="-0.5" width="79" height="19" rx="1.5" transform="matrix(1 0 0 -1 66 269)" fill="black" stroke="black"/>
<path d="M96.256 257.144C96.544 257.696 96.82 258.368 97.06 259.16H98.32C98.668 258.5 98.968 257.792 99.208 257.048L100.012 257.324C99.76 258.008 99.484 258.62 99.172 259.16H100.624V260H94.612V259.16H96.232C96.016 258.536 95.764 257.96 95.464 257.432L96.256 257.144ZM101.176 255.2H105.112V255.848C104.74 257.108 104.344 258.284 103.912 259.364C104.812 260.492 105.268 261.428 105.28 262.148C105.28 262.892 105.124 263.408 104.812 263.696C104.476 263.984 103.816 264.14 102.832 264.14L102.556 263.228C102.892 263.252 103.168 263.276 103.396 263.276C103.828 263.252 104.104 263.168 104.224 263.024C104.344 262.868 104.404 262.58 104.416 262.148C104.404 261.44 103.924 260.516 102.988 259.364C103.384 258.416 103.78 257.288 104.164 255.992H102.016V265.676H101.176V255.2ZM94.84 255.86H97.252C97.108 255.464 96.964 255.104 96.808 254.78L97.696 254.624C97.828 254.984 97.96 255.404 98.092 255.86H100.54V256.7H94.84V255.86ZM100.072 261.092V265.616H99.22V264.944H96.148V265.616H95.296V261.092H100.072ZM96.148 264.128H99.22V261.908H96.148V264.128ZM107.728 255.14H116.224V257.42H112.036V258.2H114.592V258.896H112.036V259.76H113.572C114.508 259.184 115.324 258.512 116.008 257.744L116.716 258.116C116.152 258.716 115.504 259.268 114.784 259.76H117.316V260.504H113.548C112.924 260.828 112.276 261.116 111.58 261.38H115.804V265.784H114.952V265.244H109.852V265.784H109V262.16C108.4 262.304 107.776 262.424 107.14 262.544L106.672 261.824C108.76 261.608 110.572 261.164 112.12 260.504H106.744V259.76H111.196V258.896H108.052V258.2H111.196V257.42H107.728V255.14ZM115.396 256.784V255.788H113.632V256.784H115.396ZM112.852 256.784V255.788H111.124V256.784H112.852ZM110.344 256.784V255.788H108.556V256.784H110.344ZM109.852 263.636V264.536H114.952V263.636H109.852ZM114.952 262.976V262.052H109.852V262.976H114.952Z" fill="white"/>
<path d="M176.354 211.354C176.549 211.158 176.549 210.842 176.354 210.646L173.172 207.464C172.976 207.269 172.66 207.269 172.464 207.464C172.269 207.66 172.269 207.976 172.464 208.172L175.293 211L172.464 213.828C172.269 214.024 172.269 214.34 172.464 214.536C172.66 214.731 172.976 214.731 173.172 214.536L176.354 211.354ZM150 211.5L176 211.5L176 210.5L150 210.5L150 211.5Z" fill="black"/>
<path d="M292.354 211.354C292.549 211.158 292.549 210.842 292.354 210.646L289.172 207.464C288.976 207.269 288.66 207.269 288.464 207.464C288.269 207.66 288.269 207.976 288.464 208.172L291.293 211L288.464 213.828C288.269 214.024 288.269 214.34 288.464 214.536C288.66 214.731 288.976 214.731 289.172 214.536L292.354 211.354ZM266 211.5L292 211.5L292 210.5L266 210.5L266 211.5Z" fill="black"/>
<path d="M408.354 211.354C408.549 211.158 408.549 210.842 408.354 210.646L405.172 207.464C404.976 207.269 404.66 207.269 404.464 207.464C404.269 207.66 404.269 207.976 404.464 208.172L407.293 211L404.464 213.828C404.269 214.024 404.269 214.34 404.464 214.536C404.66 214.731 404.976 214.731 405.172 214.536L408.354 211.354ZM382 211.5L408 211.5L408 210.5L382 210.5L382 211.5Z" fill="black"/>
<rect x="411.5" y="178.5" width="79" height="63" rx="3.5" fill="#A2D8FF" stroke="black"/>
<g clip-path="url(#clip3_400_1040)">
<rect x="439" y="195" width="21" height="8" rx="1.85722" stroke="black" stroke-width="2" stroke-linecap="round"/>
<path d="M450 198V200" stroke="black" stroke-width="2" stroke-linecap="square"/>
<path d="M454 198V200" stroke="black" stroke-width="2" stroke-linecap="square"/>
<rect x="445" y="217" width="21" height="8" rx="1.85722" stroke="black" stroke-width="2" stroke-linecap="round"/>
<path d="M456 220V222" stroke="black" stroke-width="2" stroke-linecap="square"/>
<path d="M460 220V222" stroke="black" stroke-width="2" stroke-linecap="square"/>
<path d="M450 204V207C450 207.552 450.448 208 451 208H457C457.552 208 458 208.448 458 209V214" stroke="black" stroke-width="2" stroke-linecap="square"/>
<path d="M455 213L457.293 215.293C457.683 215.683 458.317 215.683 458.707 215.293L461 213" stroke="black" stroke-width="2" stroke-linecap="square"/>
</g>
<rect x="0.5" y="-0.5" width="79" height="19" rx="1.5" transform="matrix(1 0 0 -1 411 269)" fill="black" stroke="black"/>
<path d="M428.476 254.816C429.292 255.452 429.988 256.076 430.552 256.7L429.94 257.312C429.436 256.712 428.752 256.076 427.876 255.38L428.476 254.816ZM435.484 265.484C434.836 265.484 434.14 265.472 433.384 265.46C432.628 265.448 432.004 265.376 431.524 265.244C431.068 265.1 430.648 264.8 430.276 264.368C430.12 264.164 429.964 264.068 429.82 264.068C429.532 264.068 429.052 264.62 428.38 265.724L427.732 265.136C428.38 264.128 428.944 263.516 429.448 263.3V259.652H427.732V258.86H430.252V263.36C430.348 263.432 430.432 263.516 430.528 263.624C430.816 263.972 431.116 264.224 431.452 264.38C431.812 264.548 432.352 264.644 433.048 264.668C433.672 264.68 434.44 264.692 435.364 264.692C435.94 264.692 436.528 264.68 437.128 264.668C437.704 264.656 438.16 264.644 438.484 264.62L438.268 265.484H435.484ZM431.896 255.38H437.404V256.172H431.896V255.38ZM431.164 258.104H438.28V258.932H434.536C433.876 260.636 433.288 261.848 432.76 262.568C434.32 262.4 435.604 262.184 436.624 261.944C436.336 261.272 436.012 260.624 435.664 260L436.372 259.772C437.02 260.876 437.596 262.136 438.1 263.552L437.332 263.756C437.212 263.384 437.08 263.024 436.936 262.688C435.616 263 433.888 263.252 431.752 263.456L431.536 262.7C432.04 262.556 432.748 261.296 433.684 258.932H431.164V258.104ZM444.1 255.464H449.848V256.316H444.1V255.464ZM443.776 258.512H450.376V259.364H448.432V264.608C448.432 265.304 448.036 265.652 447.268 265.652H445.504L445.324 264.8C445.9 264.836 446.44 264.86 446.968 264.86C447.352 264.86 447.556 264.704 447.556 264.392V259.364H443.776V258.512ZM442.204 254.804L442.984 255.164C442.312 256.496 441.232 257.672 439.744 258.692L439.492 257.828C440.74 256.94 441.64 255.932 442.204 254.804ZM442.768 257.54L443.548 257.9C443.2 258.572 442.768 259.22 442.24 259.82V265.7H441.388V260.696C440.908 261.128 440.392 261.548 439.816 261.944L439.564 261.08C441.028 260.048 442.096 258.872 442.768 257.54ZM456.556 265.664H455.212L455.02 264.812C455.452 264.848 455.86 264.872 456.256 264.872C456.544 264.872 456.7 264.716 456.7 264.428V261.488C455.548 261.56 454.3 261.632 452.944 261.692L452.704 260.924C452.98 260.9 453.232 260.84 453.46 260.768C454.444 260.336 455.548 259.664 456.772 258.752C455.728 258.836 454.6 258.908 453.4 258.98L453.22 258.212C453.436 258.188 453.628 258.128 453.808 258.056C454.408 257.756 455.116 257.168 455.932 256.28C454.912 256.328 453.832 256.352 452.68 256.352L452.428 255.596C455.872 255.596 458.74 255.344 461.02 254.84L461.44 255.572C460.192 255.86 458.728 256.076 457.024 256.208C456.28 257.072 455.524 257.744 454.756 258.248C455.716 258.2 456.688 258.128 457.672 258.044C458.212 257.612 458.764 257.132 459.34 256.616L460.132 257.012C458.104 258.8 456.34 260.084 454.828 260.876C456.784 260.768 458.464 260.636 459.856 260.468C459.556 260.084 459.244 259.688 458.92 259.304L459.568 258.908C460.552 260.06 461.308 261.056 461.836 261.908L461.14 262.4C460.912 261.992 460.648 261.584 460.36 261.164C459.532 261.26 458.608 261.344 457.576 261.428V264.644C457.576 265.316 457.228 265.664 456.556 265.664ZM459.22 262.16C460.432 263.036 461.44 263.912 462.256 264.8L461.644 265.412C460.912 264.572 459.916 263.672 458.644 262.712L459.22 262.16ZM454.648 262.244L455.26 262.784C454.444 263.768 453.436 264.62 452.236 265.352L451.696 264.656C452.872 263.96 453.856 263.156 454.648 262.244ZM467.584 262.964V263.792C466.48 264.344 465.232 264.8 463.84 265.136L463.732 264.272C465.196 263.948 466.48 263.516 467.584 262.964ZM465.664 254.672L466.492 255.008C465.892 256.544 465.28 257.768 464.656 258.68C465.184 258.608 465.712 258.512 466.24 258.416C466.456 258.008 466.672 257.588 466.9 257.132L467.68 257.432C466.624 259.424 465.748 260.852 465.052 261.716C465.892 261.5 466.732 261.212 467.584 260.84V261.644C466.324 262.172 465.112 262.52 463.96 262.712L463.72 261.92C463.876 261.848 464.008 261.752 464.116 261.656C464.572 261.176 465.136 260.372 465.796 259.22C465.148 259.34 464.488 259.46 463.828 259.556L463.6 258.764C463.744 258.704 463.864 258.596 463.984 258.428C464.632 257.336 465.184 256.088 465.664 254.672ZM467.992 259.94L467.8 259.172C467.872 259.148 467.92 259.124 467.968 259.112C468.376 258.812 468.892 258.044 469.54 256.796H467.488V255.968H470.548C470.38 255.512 470.2 255.104 470.008 254.732L470.884 254.588C471.064 254.996 471.244 255.464 471.412 255.968H474.112V256.796H470.44C469.912 257.84 469.444 258.596 469.036 259.076C470.152 258.98 471.268 258.848 472.372 258.668C472.108 258.284 471.82 257.888 471.52 257.504L472.18 257.096C472.996 258.14 473.632 259.052 474.076 259.844L473.404 260.312C473.236 260 473.056 259.7 472.852 259.388C471.364 259.628 469.744 259.808 467.992 259.94ZM468.964 260.432H469.804C469.744 261.944 469.552 263.06 469.24 263.768C468.892 264.512 468.316 265.148 467.5 265.676L466.948 264.992C467.656 264.536 468.16 264.008 468.46 263.396C468.748 262.772 468.916 261.788 468.964 260.432ZM473.236 265.484H472.396C471.676 265.484 471.316 265.136 471.316 264.44V260.324H472.144V264.296C472.144 264.548 472.228 264.68 472.42 264.704H473.2C473.464 264.68 473.62 264.536 473.668 264.272C473.716 263.936 473.752 263.42 473.752 262.712L474.496 262.976C474.496 264.104 474.412 264.812 474.256 265.076C474.1 265.316 473.764 265.46 473.236 265.484Z" fill="white"/>
<path d="M66 106V84C66 79.5817 69.5817 76 74 76H501C505.418 76 509 79.5817 509 84V106" stroke="black"/>
<rect x="180.5" y="61.5" width="215" height="29" rx="14.5" fill="#0165FF" stroke="black"/>
<path d="M229.215 70.576H236.175V72.224H230.719L230.399 75.36H230.447C230.799 75.008 231.199 74.752 231.663 74.592C232.079 74.432 232.543 74.352 233.055 74.352C234.127 74.352 235.007 74.704 235.679 75.408C236.351 76.112 236.703 77.088 236.703 78.32C236.703 79.504 236.255 80.464 235.359 81.216C234.527 81.888 233.551 82.224 232.415 82.224C231.375 82.224 230.479 81.936 229.743 81.376C228.911 80.752 228.463 79.904 228.383 78.848H230.223C230.303 79.472 230.543 79.936 230.959 80.24C231.311 80.496 231.807 80.64 232.431 80.64C233.103 80.64 233.679 80.432 234.143 80.016C234.591 79.6 234.831 79.04 234.831 78.336C234.831 77.568 234.623 76.96 234.239 76.528C233.855 76.08 233.279 75.872 232.543 75.872C232.047 75.872 231.615 75.952 231.263 76.128C230.863 76.32 230.559 76.608 230.335 77.008H228.591L229.215 70.576ZM242.857 69.136L244.297 70.016C243.561 71.328 242.809 72.416 242.057 73.248C241.321 74.08 240.265 74.992 238.857 76L237.945 74.512C238.937 73.968 239.897 73.2 240.793 72.192C241.513 71.36 242.201 70.352 242.857 69.136ZM243.289 76.656H240.409V75.04H250.137C250.073 77.12 249.977 78.784 249.817 80.064C249.657 81.344 249.401 82.224 249.017 82.736C248.649 83.216 248.057 83.488 247.241 83.536H244.169L243.721 81.888C244.665 81.92 245.561 81.952 246.393 81.952C247.177 81.952 247.689 81.616 247.945 80.976C248.201 80.304 248.377 78.864 248.441 76.656H244.985C244.617 78.288 244.121 79.584 243.481 80.56C242.649 81.728 241.417 82.784 239.785 83.712L238.697 82.32C240.137 81.552 241.225 80.704 241.961 79.776C242.521 78.976 242.969 77.936 243.289 76.656ZM247.865 68.944C248.729 71.328 250.345 73.216 252.713 74.592L251.577 75.92C249.113 74.336 247.385 72.288 246.409 69.76L247.865 68.944ZM255.945 68.896L257.513 69.232C257.385 69.696 257.273 70.128 257.145 70.528H259.785V72.048H256.601C256.345 72.64 256.089 73.2 255.817 73.728H259.593V75.232H258.057V76.736H259.897V78.272H258.057V81.36C258.745 81.12 259.433 80.816 260.121 80.432L260.393 81.888C259.257 82.464 257.945 82.928 256.457 83.312L255.801 81.92C256.217 81.776 256.425 81.568 256.425 81.28V78.272H254.393V76.736H256.425V75.232H255.657V74.016C255.465 74.336 255.289 74.64 255.113 74.928L253.785 74.08C254.809 72.448 255.529 70.72 255.945 68.896ZM263.513 68.912H265.161V71.584H268.281V79.12H266.713V78.368H265.161V83.712H263.513V78.368H262.025V79.12H260.489V71.584H263.513V68.912ZM262.025 76.864H263.513V73.12H262.025V76.864ZM265.161 76.864H266.713V73.12H265.161V76.864ZM271.929 83.52H270.457L270.089 81.936C270.537 82 270.953 82.032 271.353 82.032C271.641 82.032 271.785 81.84 271.785 81.456V78.256C271.289 78.448 270.793 78.624 270.313 78.784L269.897 77.184C270.537 77.024 271.177 76.848 271.785 76.624V73.344H270.169V71.76H271.785V68.928H273.449V71.76H274.793V73.344H273.449V75.92C273.865 75.712 274.281 75.488 274.697 75.264V76.896C274.281 77.12 273.865 77.328 273.449 77.536V81.872C273.449 82.96 272.937 83.52 271.929 83.52ZM276.169 72.272H283.193V75.552H276.169V72.272ZM281.641 74.336V73.488H277.721V74.336H281.641ZM277.657 78.352H281.657V81.712H277.657V78.352ZM280.377 80.512V79.536H278.921V80.512H280.377ZM279.817 68.768C280.009 69.168 280.201 69.616 280.393 70.112H284.473V71.616H274.841V70.112H278.761C278.601 69.728 278.409 69.36 278.201 69.024L279.817 68.768ZM282.697 83.616H281.465L281.049 82.144L282.217 82.192C282.553 82.192 282.729 82.016 282.729 81.68V77.648H276.665V83.664H275.097V76.208H284.297V82.016C284.297 83.072 283.753 83.616 282.697 83.616ZM288.585 73.44H298.121V75.008H294.249V77.248H298.793V78.816H294.249V81.632C295.337 81.792 296.665 81.872 298.233 81.888C299.033 81.888 299.849 81.84 300.697 81.76L300.361 83.408H298.969C295.545 83.408 293.113 83.104 291.641 82.496C290.649 82.032 289.817 81.344 289.161 80.448C288.553 81.712 287.817 82.768 286.937 83.632L285.865 82.288C287.353 80.752 288.361 78.688 288.873 76.096L290.489 76.384C290.297 77.296 290.073 78.144 289.785 78.944C290.521 80.144 291.449 80.912 292.569 81.264H292.585V75.008H288.585V73.44ZM300.105 70.32V74.032H298.473V71.856H288.201V74.112H286.569V70.32H292.537C292.313 69.84 292.089 69.392 291.833 68.992L293.625 68.704C293.849 69.184 294.057 69.728 294.265 70.32H300.105ZM306.313 70.352C307.417 70.352 308.329 70.672 309.049 71.312C309.753 71.952 310.105 72.768 310.105 73.792C310.105 74.784 309.721 75.68 308.985 76.496C308.537 76.976 307.737 77.584 306.617 78.336C305.449 79.104 304.745 79.776 304.489 80.352H310.121V82H302.153C302.153 80.832 302.521 79.824 303.289 78.96C303.705 78.48 304.585 77.776 305.913 76.864C306.649 76.352 307.161 75.92 307.481 75.584C307.977 75.024 308.233 74.416 308.233 73.776C308.233 73.152 308.057 72.688 307.737 72.384C307.401 72.08 306.905 71.936 306.249 71.936C305.545 71.936 305.017 72.176 304.665 72.656C304.313 73.104 304.121 73.792 304.089 74.688H302.217C302.233 73.408 302.601 72.384 303.337 71.6C304.089 70.768 305.081 70.352 306.313 70.352ZM315.73 70.352C317.058 70.352 318.098 70.896 318.85 72.016C319.554 73.072 319.906 74.496 319.906 76.288C319.906 78.08 319.554 79.504 318.85 80.56C318.098 81.664 317.058 82.224 315.73 82.224C314.386 82.224 313.346 81.664 312.61 80.56C311.906 79.504 311.554 78.08 311.554 76.288C311.554 74.496 311.906 73.072 312.61 72.016C313.346 70.896 314.386 70.352 315.73 70.352ZM315.73 71.936C314.818 71.936 314.178 72.432 313.81 73.456C313.554 74.144 313.426 75.088 313.426 76.288C313.426 77.472 313.554 78.416 313.81 79.12C314.178 80.128 314.818 80.64 315.73 80.64C316.626 80.64 317.266 80.128 317.65 79.12C317.906 78.416 318.034 77.472 318.034 76.288C318.034 75.088 317.906 74.144 317.65 73.456C317.266 72.432 316.626 71.936 315.73 71.936ZM325.324 70.352C326.652 70.352 327.692 70.896 328.444 72.016C329.148 73.072 329.5 74.496 329.5 76.288C329.5 78.08 329.148 79.504 328.444 80.56C327.692 81.664 326.652 82.224 325.324 82.224C323.98 82.224 322.94 81.664 322.204 80.56C321.5 79.504 321.148 78.08 321.148 76.288C321.148 74.496 321.5 73.072 322.204 72.016C322.94 70.896 323.98 70.352 325.324 70.352ZM325.324 71.936C324.412 71.936 323.772 72.432 323.404 73.456C323.148 74.144 323.02 75.088 323.02 76.288C323.02 77.472 323.148 78.416 323.404 79.12C323.772 80.128 324.412 80.64 325.324 80.64C326.22 80.64 326.86 80.128 327.244 79.12C327.5 78.416 327.628 77.472 327.628 76.288C327.628 75.088 327.5 74.144 327.244 73.456C326.86 72.432 326.22 71.936 325.324 71.936ZM334.918 70.352C336.246 70.352 337.286 70.896 338.038 72.016C338.742 73.072 339.094 74.496 339.094 76.288C339.094 78.08 338.742 79.504 338.038 80.56C337.286 81.664 336.246 82.224 334.918 82.224C333.574 82.224 332.534 81.664 331.798 80.56C331.094 79.504 330.742 78.08 330.742 76.288C330.742 74.496 331.094 73.072 331.798 72.016C332.534 70.896 333.574 70.352 334.918 70.352ZM334.918 71.936C334.006 71.936 333.366 72.432 332.998 73.456C332.742 74.144 332.614 75.088 332.614 76.288C332.614 77.472 332.742 78.416 332.998 79.12C333.366 80.128 334.006 80.64 334.918 80.64C335.814 80.64 336.454 80.128 336.838 79.12C337.094 78.416 337.222 77.472 337.222 76.288C337.222 75.088 337.094 74.144 336.838 73.456C336.454 72.432 335.814 71.936 334.918 71.936ZM347.088 68.88H348.704V75.296H354.944V76.928H351.6C352.464 79.2 353.68 80.944 355.232 82.176L354.08 83.472C352.336 81.968 351.008 79.792 350.096 76.928H348.704V81.664C349.472 81.376 350.24 81.008 351.024 80.544L351.344 82.128C350.128 82.8 348.752 83.344 347.184 83.776L346.464 82.24C346.88 82.08 347.088 81.824 347.088 81.472V76.928H345.984V75.296H347.088V68.88ZM353.264 69.568L354.416 70.768C353.456 72.16 352.032 73.424 350.112 74.56L349.136 73.248C350.992 72.16 352.368 70.944 353.264 69.568ZM342.448 74.448L342.192 76.544H345.584C345.584 79.28 345.488 81.104 345.312 82.032C345.12 82.96 344.256 83.472 342.736 83.568C342.288 83.568 341.84 83.536 341.376 83.504L340.96 81.984C341.408 82.016 341.888 82.048 342.368 82.048C343.184 82.048 343.648 81.792 343.776 81.28C343.888 80.784 343.952 79.712 343.952 78.048H340.448L340.976 72.928H343.76V70.896H340.544V69.36H345.344V74.448H342.448ZM357.28 70.08H362.864V68.896H364.56V70.08H370.144V71.616H364.56V72.656H369.216V74.192H364.56V75.232H370.704V76.752H365.12C365.488 77.568 365.936 78.304 366.464 78.976C367.264 78.56 368.032 77.936 368.752 77.136L369.904 78.256C369.152 78.992 368.32 79.584 367.424 80.016C368.4 80.944 369.552 81.648 370.896 82.144L369.984 83.616C367.088 82.416 364.96 80.128 363.6 76.752H363.264C362.736 77.488 362.08 78.16 361.296 78.8V81.648C362.368 81.312 363.44 80.928 364.496 80.512L364.832 82.048C363.088 82.72 361.328 83.264 359.536 83.696L358.992 82.272C359.44 82.08 359.664 81.808 359.664 81.44V79.92C358.896 80.368 358.064 80.768 357.168 81.152L356.272 79.696C358.608 78.912 360.336 77.936 361.472 76.752H356.72V75.232H362.864V74.192H358.208V72.656H362.864V71.616H357.28V70.08Z" fill="white"/>
<g clip-path="url(#clip4_400_1040)">
<path d="M212.332 84.7757C212.204 84.7217 212.098 84.6266 212.03 84.5055C211.962 84.3845 211.936 84.2442 211.957 84.1069L213.094 76.7007H210.076C209.98 76.7032 209.885 76.6838 209.798 76.6438C209.711 76.6039 209.634 76.5444 209.574 76.4702C209.513 76.3959 209.471 76.3087 209.45 76.2154C209.428 76.1221 209.429 76.0251 209.451 75.9319L211.326 67.8069C211.359 67.6671 211.439 67.5429 211.553 67.4552C211.666 67.3676 211.807 67.3218 211.951 67.3257H218.201C218.294 67.3253 218.386 67.346 218.471 67.386C218.555 67.426 218.629 67.4844 218.688 67.5569C218.748 67.6302 218.79 67.7162 218.812 67.8082C218.833 67.9002 218.834 67.9959 218.813 68.0882L217.732 72.9507H220.701C220.818 72.9504 220.933 72.9831 221.032 73.045C221.132 73.1069 221.212 73.1955 221.263 73.3007C221.308 73.4016 221.325 73.5127 221.313 73.6224C221.301 73.7322 221.26 73.8369 221.194 73.9257L213.069 84.5507C213.014 84.6321 212.941 84.6994 212.855 84.7472C212.77 84.7949 212.674 84.8218 212.576 84.8257C212.492 84.8241 212.409 84.8072 212.332 84.7757ZM216.169 74.2007L217.419 68.5757H212.451L210.863 75.4507H214.557L213.563 81.8757L219.451 74.2007H216.169Z" fill="white"/>
</g>
<defs>
<linearGradient id="paint0_linear_400_1040" x1="288" y1="0" x2="429.769" y2="493.705" gradientUnits="userSpaceOnUse">
<stop stop-color="#E8EEFF"/>
<stop offset="1" stop-color="#EFFDFF"/>
</linearGradient>
<radialGradient id="paint1_radial_400_1040" cx="0" cy="0" r="1" gradientUnits="userSpaceOnUse" gradientTransform="translate(106.479 18.5526) rotate(71.6774) scale(467.74 391.198)">
<stop stop-color="#AEDEF5"/>
<stop offset="1" stop-color="#66828F" stop-opacity="0"/>
</radialGradient>
<clipPath id="clip0_400_1040">
<rect x="201" y="190" width="40" height="40" rx="8" fill="white"/>
</clipPath>
<clipPath id="clip1_400_1040">
<rect x="316" y="190" width="40" height="40" rx="8" fill="white"/>
</clipPath>
<clipPath id="clip2_400_1040">
<rect x="86" y="190" width="40" height="40" rx="8" fill="white"/>
</clipPath>
<clipPath id="clip3_400_1040">
<rect x="431" y="190" width="40" height="40" rx="8" fill="white"/>
</clipPath>
<clipPath id="clip4_400_1040">
<rect width="20" height="20" fill="white" transform="translate(205 66)"/>
</clipPath>
</defs>
</svg>
